<svg width="209" height="179" viewBox="0 0 209 179" fill="none" xmlns="http://www.w3.org/2000/svg">
<g id="_1" clip-path="url(#clip0_326_92)">
<path id="Vector" d="M117.846 68.5184C113.174 66.392 107.269 67.2786 97.0521 63.8403C90.0366 61.476 81.1825 55.486 79.4521 51.918C78.7382 52.1414 78.0533 52.4297 77.4404 52.8911C76.3589 53.7056 75.4504 54.8157 74.6717 55.9185C73.0927 58.153 72.1121 60.7408 71.1892 63.2997C86.244 77.7665 116.894 76.9664 116.894 76.9664C119.36 72.3243 117.846 68.5184 117.846 68.5184Z" fill="#885A93"/>
<path id="Vector_2" d="M194.44 120.792C194.541 120.828 194.685 120.763 194.67 120.633C194.533 118.601 194.036 116.647 193.236 114.795C193.553 115.105 193.877 115.408 194.194 115.717C194.317 115.833 194.526 115.717 194.483 115.552C193.978 113.8 193.135 112.207 191.981 110.823C192.125 110.866 192.269 110.665 192.14 110.542C190.842 109.302 189.551 108.062 188.253 106.823C188.902 106.823 189.551 106.823 190.2 106.823C190.366 106.823 190.431 106.592 190.287 106.505C189.097 105.813 188.001 105.006 186.992 104.091C187.323 104.12 187.648 104.141 187.979 104.17C188.152 104.184 188.21 103.932 188.066 103.853C186.912 103.218 185.787 102.541 184.677 101.849C184.706 101.863 184.742 101.878 184.771 101.899C184.937 101.986 185.138 101.762 184.98 101.633C183.228 100.169 181.476 98.699 179.724 97.2357C179.868 97.2213 179.954 97.0267 179.803 96.933C179.233 96.5798 178.664 96.2266 178.094 95.8734C178.036 95.8373 177.972 95.8517 177.921 95.8878C176.313 94.9291 174.792 93.8335 173.357 92.6297C174.424 92.9613 175.491 93.1703 176.623 92.9252C176.76 92.8964 176.796 92.6729 176.667 92.6153C175.462 92.0242 174.323 91.3178 173.278 90.4672C172.795 90.0708 172.333 89.6455 171.893 89.1986C171.403 88.7012 170.999 88.002 170.48 87.5551C169.586 86.7766 168.418 86.2 167.466 85.4792C166.378 84.6574 165.339 83.7708 164.344 82.841L166.551 82.9996C166.731 83.014 166.774 82.7689 166.637 82.6824C164.496 81.3345 162.563 79.7198 160.833 77.889C160.855 77.9034 160.876 77.9178 160.905 77.9322C161.093 78.0475 161.266 77.752 161.078 77.6367C158.403 75.9932 156.053 73.9245 154.056 71.5097C154.575 71.5962 155.094 71.6827 155.62 71.7692C155.772 71.7908 155.937 71.6034 155.786 71.4809C154.084 70.1041 152.527 68.5832 151.092 66.9253C151.669 67.192 152.267 67.3722 152.924 67.4659C153.075 67.4875 153.234 67.3073 153.089 67.1776C152.123 66.3054 151.157 65.4404 150.191 64.5682C149.729 64.1574 149.268 63.7393 148.814 63.3284C148.583 63.1194 148.352 62.9176 148.122 62.7085C148.028 62.6292 147.934 62.5427 147.848 62.4634C147.631 62.3337 147.588 62.1391 147.696 61.8868C147.732 61.9156 147.768 61.9445 147.804 61.9733C147.905 62.0526 148.071 61.9445 148.064 61.8219C148.035 61.5696 147.876 61.4615 147.703 61.4471C146.341 60.3731 145.115 59.1477 144.048 57.7925C143.572 56.9852 143.096 56.1851 142.635 55.3562C140.248 51.0962 138.741 47.0812 137.551 43.4266C137.674 43.3618 137.804 43.2897 137.926 43.2248C138.035 43.2104 138.078 43.0807 138.056 42.9942C137.631 41.0191 136.939 39.1378 136.001 37.3574L136.182 37.4871C136.355 37.6096 136.513 37.379 136.441 37.2276C135.994 36.2833 135.547 35.3319 135.1 34.3876C135.223 34.5101 135.482 34.3732 135.41 34.2002C134.718 32.5279 133.579 31.1727 132.36 29.8753C132.454 29.9113 132.548 29.9474 132.641 29.9906C132.778 30.1564 133.067 29.9329 132.937 29.7599C132.93 29.7455 132.915 29.7383 132.908 29.7239C132.043 28.5273 130.983 27.5398 129.75 26.7469C129.801 26.7613 129.844 26.7685 129.894 26.7902C130.075 26.8622 130.212 26.5955 130.082 26.473C129.087 25.5576 127.897 24.9809 126.606 24.7935C126.664 24.6926 126.642 24.5556 126.506 24.5196C125.511 24.2961 124.53 24.2529 123.542 24.361C123.52 24.361 123.492 24.3466 123.47 24.3466C123.694 24.1592 123.917 23.979 124.141 23.7916C124.278 23.6762 124.155 23.4744 124.004 23.4672C122.655 23.3807 121.357 23.5897 120.117 24.0583L120.456 23.7123C120.593 23.5753 120.456 23.3519 120.269 23.3951C119.05 23.6906 117.998 24.2745 117.096 25.1323C113.08 27.2371 110.463 31.7926 106.252 32.1386C100.686 32.5928 97.1169 32.8162 95.1774 34.8129C94.7375 35.267 94.1607 36.2761 94.1607 36.2761C91.7309 42.0715 95.3144 44.9908 95.3144 44.9908C98.7176 50.3032 108.869 47.7588 114.753 53.6551C117.082 55.9905 117.486 58.744 117.168 62.1319C117.082 62.0526 116.93 62.0526 116.902 62.1967C116.548 63.9483 116.044 65.635 115.366 67.2857C115.301 67.4371 115.496 67.5308 115.618 67.4803C115.755 67.4155 115.878 67.3434 115.993 67.2713C115.467 68.5904 114.926 69.9023 114.364 71.207C114.299 71.3511 114.436 71.5385 114.594 71.4376C114.933 71.2286 115.214 70.9835 115.474 70.7096C115.265 72.0647 114.868 73.355 114.255 74.5948C114.176 74.7534 114.335 74.9048 114.486 74.8255C114.71 74.7174 114.897 74.5876 115.063 74.4434C114.609 76.0292 114.162 77.615 113.707 79.1936C113.671 79.3306 113.83 79.4748 113.96 79.3883C114.176 79.2369 114.356 79.0783 114.529 78.8981C114.428 80.1163 114.299 81.3273 114.133 82.5382C114.118 82.6464 114.191 82.7256 114.277 82.7473C114.14 84.0808 114.191 85.4143 114.428 86.7478C114.457 86.9208 114.717 86.9064 114.76 86.7478C114.76 86.7334 114.767 86.7118 114.775 86.6973C114.883 88.312 115.222 89.8834 115.82 91.4115C115.878 91.5557 116.051 91.5485 116.123 91.462C116.274 91.9377 116.426 92.4134 116.584 92.8892C121.653 111.263 136.045 126.126 128.654 143.93C128.654 143.93 123.506 145.415 123.557 149.106C123.585 151.283 132.62 152.602 134.732 150.778C141.488 144.954 138.179 110.081 138.179 110.081C138.229 110.052 138.294 110.023 138.345 109.994C139.073 110.362 139.837 110.513 140.652 110.434C140.76 110.427 140.847 110.333 140.818 110.218L140.702 109.735C141.106 109.951 141.503 110.167 141.906 110.383C142.007 110.441 142.18 110.369 142.166 110.232C142.159 110.16 142.137 110.095 142.13 110.023C142.678 110.578 143.341 110.989 144.113 111.248C144.257 111.292 144.379 111.119 144.307 110.996C144.163 110.758 144.055 110.52 143.969 110.275C144.56 110.888 145.216 111.414 146.052 111.695C146.196 111.746 146.319 111.566 146.247 111.443C146.16 111.292 146.081 111.147 146.016 110.996C146.031 110.996 146.045 111.011 146.059 111.011C146.442 111.63 146.932 112.229 147.509 112.56C147.689 112.661 147.912 112.748 148.078 112.56C148.158 112.467 148.136 112.358 148.143 112.243C148.15 112.135 148.143 112.041 148.143 111.955C148.186 111.976 148.223 111.991 148.266 112.012C148.525 112.647 148.9 113.202 149.556 113.548C149.686 113.613 149.852 113.505 149.809 113.353C149.744 113.144 149.722 112.95 149.722 112.755C149.809 112.805 149.895 112.849 149.982 112.892C150.212 113.396 150.544 113.851 151.006 114.225C151.135 114.326 151.337 114.233 151.294 114.06C151.258 113.915 151.244 113.778 151.229 113.642C151.438 113.973 151.741 114.247 152.13 114.413C147.271 118.485 145.165 124.194 147.372 130.711C149.78 137.825 163.292 141.912 162.03 142.835C159.961 144.356 154.777 141.703 148.424 143.318C145.533 144.053 144.401 148.032 145.67 149.891C146.809 151.557 186.552 154.555 188.203 149.452C189.219 146.302 187.352 143.865 187.352 143.865C189.818 139.706 191.592 136.29 192.601 132.34C192.688 132.376 192.803 132.361 192.846 132.246C193.654 130.242 193.87 128.108 193.517 126.018C193.531 125.766 193.546 125.521 193.553 125.261L194.209 126.083C194.288 126.184 194.468 126.126 194.497 126.011C194.93 124.259 194.915 122.486 194.49 120.785L194.44 120.792Z" fill="#86554A"/>
<path id="Vector_3" d="M208.326 156.883C208.326 156.746 208.326 156.602 208.326 156.465C208.341 156.465 208.348 156.48 208.362 156.487C208.427 156.516 208.521 156.523 208.571 156.458C209.509 155.276 208.571 154.029 208.218 152.804C207.987 152.018 207.923 151.196 207.562 150.454C207.23 149.755 206.704 149.171 206.142 148.652C205.089 147.686 203.863 146.655 202.472 146.266C200.813 145.257 199.04 144.435 197.518 143.231C194.072 140.492 191.664 136.03 190.899 131.727C190.899 131.698 190.885 131.684 190.871 131.662C190.82 131.568 190.712 131.568 190.64 131.626C190.618 131.64 190.597 131.64 190.582 131.655C188.369 134.553 187.402 138.265 187.785 141.883C187.842 142.438 187.943 142.964 188.059 143.491C187.979 144.918 188.318 146.309 189.082 147.57C189.176 147.729 189.371 147.643 189.385 147.484C189.876 148.724 190.51 149.884 191.318 150.958C191.419 151.095 191.62 151.045 191.635 150.872C191.649 150.684 191.671 150.504 191.685 150.317C192.147 151.268 192.716 152.148 193.423 152.955C193.517 153.056 193.733 152.984 193.719 152.832C193.697 152.652 193.69 152.479 193.683 152.306C193.74 152.364 193.791 152.414 193.848 152.472C194.252 153.337 194.75 154.144 195.355 154.908C195.463 155.045 195.687 154.894 195.644 154.743C195.593 154.577 195.557 154.411 195.536 154.252C195.572 154.296 195.608 154.339 195.644 154.382C196.019 155.485 196.523 156.537 197.179 157.525C197.266 157.655 197.511 157.619 197.497 157.438C197.489 157.33 197.482 157.215 197.475 157.107C197.497 157.15 197.518 157.193 197.54 157.237C198.117 159.277 198.319 161.497 196.631 163.075C196.531 163.169 196.603 163.378 196.754 163.371C197.187 163.335 197.54 163.234 197.886 163.054C197.828 163.27 197.763 163.479 197.691 163.688C197.28 164.589 196.595 165.317 195.68 165.807C195.55 165.872 195.579 166.088 195.723 166.117C195.925 166.16 196.069 166.052 196.235 166.088C196.3 166.052 196.365 166.023 196.43 165.987C196.487 166.016 196.523 166.052 196.567 166.081C196.062 166.924 195.478 167.725 194.836 168.489C194.375 168.799 193.884 169.058 193.365 169.274C193.228 169.332 193.178 169.57 193.365 169.606C193.502 169.635 193.646 169.656 193.783 169.685C193.654 169.829 193.524 169.966 193.387 170.103C192.558 170.802 191.642 171.365 190.633 171.804C190.503 171.862 190.532 172.093 190.676 172.114C190.878 172.143 191.072 172.172 191.274 172.201C191.217 172.258 191.152 172.323 191.087 172.381C190.279 173.16 189.472 173.938 188.708 174.753C188.7 174.76 188.686 174.774 188.679 174.781C188.657 174.796 188.635 174.81 188.607 174.825C188.571 174.846 188.549 174.882 188.534 174.926C188.174 175.286 187.727 175.711 187.482 176.18C187.107 176.475 186.739 176.778 186.357 177.066C186.249 177.146 186.249 177.283 186.357 177.362C187.359 178.126 188.643 178.263 189.753 177.78C189.912 177.766 190.049 177.751 190.178 177.737C190.193 178.09 190.142 178.421 190.041 178.782C189.998 178.926 190.164 179.056 190.294 178.977C191.058 178.515 191.743 177.967 192.377 177.355C192.594 177.304 192.803 177.254 193.012 177.189C193.012 177.549 193.019 177.903 193.026 178.263C193.026 178.421 193.207 178.479 193.322 178.385C194.137 177.686 194.894 176.929 195.6 176.129C195.86 175.992 196.112 175.848 196.365 175.697C196.372 176.194 196.365 176.692 196.314 177.203C196.3 177.355 196.509 177.427 196.61 177.326C197.482 176.382 198.167 175.336 198.694 174.183C198.694 174.414 198.701 174.644 198.708 174.868C198.708 175.005 198.903 175.106 199.004 174.99C199.523 174.385 199.97 173.743 200.388 173.073C200.482 173.311 200.539 173.563 200.532 173.83C200.532 173.967 200.727 174.075 200.828 173.952C201.729 172.814 202.443 171.581 202.998 170.247C203.049 170.593 203.099 170.947 203.149 171.293C203.171 171.437 203.402 171.458 203.459 171.336C204.072 170.06 204.555 168.741 204.923 167.379C204.988 167.487 205.06 167.602 205.125 167.71C205.197 167.825 205.349 167.811 205.421 167.71C206.452 166.254 207.043 164.618 207.209 162.859C207.245 162.859 207.281 162.866 207.324 162.859C207.814 162.751 208.139 161.59 208.334 161.208C208.752 160.394 208.939 159.904 208.831 158.967C208.745 158.253 208.579 157.561 208.355 156.883H208.326Z" fill="#86554A"/>
<path id="Vector_4" d="M96.3531 33.8831C96.3531 33.8831 97.9758 34.1066 97.8604 35.3322C97.7738 36.2479 95.9997 37.2068 95.3795 37.1924C94.9684 37.1852 94.139 36.904 94.139 36.2551C94.139 36.2551 94.8602 34.5247 96.3531 33.8831Z" fill="#473835"/>
<path id="Vector_5" d="M110.903 31.4613C110.578 31.9588 110.621 32.5716 111.004 32.8168C111.386 33.0691 111.963 32.8672 112.287 32.3625C112.612 31.8651 112.569 31.2522 112.186 31.0071C111.804 30.7547 111.227 30.9566 110.903 31.4613Z" fill="#473835"/>
<path id="Vector_6" d="M128.834 27.4172C127.19 26.2495 124.847 25.7593 123.182 26.6315C123.174 26.6315 123.16 26.6459 123.153 26.6531C123.131 26.6531 123.117 26.6531 123.095 26.6676C123.073 26.6892 123.052 26.7108 123.03 26.7324C122.331 27.1505 121.841 27.7992 121.466 28.6426C121.163 29.1472 120.896 29.6806 120.687 30.2428C120.362 31.0934 120.139 31.98 119.944 32.8738C119.843 33.3351 119.519 34.0271 119.778 34.474C119.569 35.4832 119.31 36.4779 118.978 37.4582C118.942 37.5735 119.065 37.7177 119.187 37.6672C119.367 37.5952 119.519 37.5159 119.663 37.4294C119.526 38.2583 119.245 39.0007 118.783 39.7216C118.719 39.8225 118.805 39.9955 118.935 39.9811C119.829 39.8657 118.437 41.7615 118.134 42.021C117.99 42.1435 118.149 42.3309 118.3 42.3093C118.365 42.3021 118.437 42.2877 118.502 42.2805C118.048 43.0229 117.385 43.5203 116.505 43.7221C116.361 43.7581 116.339 43.96 116.462 44.0321C117.168 44.4501 115.315 45.3367 114.962 45.4593C114.868 45.4881 114.825 45.5746 114.839 45.6683C114.94 46.1945 116.447 47.3262 115.834 47.8091C115.726 47.8956 115.798 48.0614 115.907 48.0975C116.325 48.22 116.678 48.2344 117.067 48.1335C116.93 48.566 116.7 48.912 116.318 49.2075C116.231 49.2724 116.188 49.4454 116.318 49.5031C116.721 49.6833 117.053 49.7121 117.486 49.6112C117.68 49.5679 117.875 49.4454 118.07 49.4094C118.344 49.2292 118.625 49.2436 118.92 49.467C118.899 49.5391 118.884 49.6112 118.87 49.6833C118.956 49.813 118.906 49.9356 119.05 50.0293C119.202 50.1302 119.245 50.0509 119.36 50.0725C119.454 50.0365 119.54 49.986 119.62 49.9283C119.814 49.7626 119.901 49.9572 119.894 50.5122C119.814 50.6131 119.851 50.8222 120.016 50.8077C120.781 50.7212 121.458 50.4978 122.093 50.1518C122.208 50.1806 122.331 50.2023 122.446 50.2239C122.352 50.4545 122.251 50.6852 122.129 50.9087C122.064 51.024 122.172 51.2186 122.324 51.1609C122.857 50.9375 123.362 50.6852 123.867 50.4113C124.025 50.4257 124.184 50.4329 124.342 50.4329V50.469C124.342 50.5771 124.451 50.6636 124.559 50.6347C124.782 50.5699 124.999 50.4978 125.208 50.4185C126.462 50.3392 127.645 49.9932 128.582 49.2868C128.957 49.0057 129.267 48.6453 129.527 48.2128C129.591 48.2128 129.656 48.1984 129.692 48.1407C130.291 47.2757 130.543 46.317 130.493 45.2863C130.572 45.3584 130.651 45.4377 130.716 45.5314C130.803 45.6323 130.969 45.5746 131.005 45.4593C131.394 44.0465 131.416 42.612 131.07 41.2064C131.127 41.2785 131.192 41.3434 131.25 41.4155C131.358 41.538 131.531 41.4299 131.545 41.2929C131.733 39.3467 131.718 37.4005 131.509 35.4615C131.567 35.4904 131.625 35.5192 131.675 35.548C131.783 35.5985 131.949 35.5408 131.935 35.4039C131.654 32.3764 131.646 29.1039 128.827 27.41L128.834 27.4172Z" fill="#473835"/>
<path id="Vector_7" d="M152.477 114.24C154.589 112.351 157.178 111.047 159.889 110.232C162.6 109.417 165.433 109.072 168.267 108.963" fill="#77433C"/>
<path id="Vector_8" d="M187.013 143.613C185.059 142.554 182.81 142.128 180.603 142.402C180.387 142.431 180.387 142.77 180.603 142.741C182.752 142.474 184.937 142.878 186.84 143.909C187.035 144.017 187.208 143.721 187.013 143.613Z" fill="#77433C"/>
<path id="Vector_9" d="M151.157 143.195C152.563 143.592 153.306 144.961 153.703 146.266C153.768 146.476 154.099 146.389 154.035 146.173C153.602 144.752 152.773 143.296 151.251 142.863C151.042 142.806 150.948 143.137 151.157 143.195Z" fill="#77433C"/>
<path id="Vector_10" d="M146.528 150.043C146.492 148.219 147.141 146.273 148.871 145.408C149.066 145.307 148.893 145.012 148.698 145.112C146.874 146.035 146.153 148.111 146.189 150.043C146.189 150.266 146.535 150.266 146.535 150.043H146.528Z" fill="#77433C"/>
<path id="Vector_11" d="M149.174 147.563C148.518 148.212 148.143 149.113 148.143 150.044C148.143 150.267 148.489 150.267 148.482 150.044C148.482 149.207 148.814 148.392 149.412 147.808C149.571 147.65 149.326 147.412 149.167 147.563H149.174Z" fill="#77433C"/>
<path id="Vector_12" d="M162.153 142.59C164.366 144.81 167.51 145.458 170.473 146.014C170.689 146.057 170.783 145.725 170.567 145.682C167.661 145.134 164.561 144.521 162.398 142.345C162.239 142.186 162.001 142.431 162.153 142.59Z" fill="#77433C"/>
<path id="Vector_13" d="M128.82 144.175C130.644 144.154 132.396 145.206 133.24 146.821C133.341 147.015 133.636 146.842 133.535 146.648C132.634 144.925 130.76 143.808 128.82 143.829C128.596 143.829 128.596 144.175 128.82 144.168V144.175Z" fill="#77433C"/>
<path id="Vector_14" d="M124.869 150.159C125.013 148.674 125.864 147.304 127.119 146.496C127.306 146.381 127.133 146.078 126.946 146.201C125.583 147.073 124.689 148.551 124.523 150.159C124.501 150.375 124.847 150.375 124.869 150.159Z" fill="#77433C"/>
<path id="Vector_15" d="M127.746 151.154C127.876 149.849 128.618 148.63 129.715 147.909C129.895 147.787 129.729 147.491 129.541 147.614C128.337 148.407 127.544 149.719 127.407 151.154C127.385 151.37 127.731 151.37 127.746 151.154Z" fill="#77433C"/>
<path id="Vector_16" d="M188.145 142.755C188.845 141.451 189.537 140.153 190.236 138.849C190.582 138.2 190.936 137.544 191.282 136.895C191.556 136.383 191.858 135.872 191.83 135.273C191.822 135.057 191.476 135.05 191.491 135.273C191.527 135.944 191.08 136.549 190.777 137.119C190.452 137.724 190.128 138.337 189.803 138.942C189.155 140.16 188.506 141.371 187.857 142.59C187.756 142.784 188.051 142.957 188.152 142.763L188.145 142.755Z" fill="#77433C"/>
<path id="Vector_17" d="M138.236 109.814C139.087 101.46 139.736 92.4567 135.215 84.953C135.1 84.7656 134.804 84.9386 134.92 85.126C139.404 92.5721 138.734 101.517 137.89 109.814C137.869 110.03 138.208 110.03 138.229 109.814H138.236Z" fill="#77433C"/>
<path id="Vector_18" d="M117.161 86.964C116.902 87.483 116.873 88.074 116.829 88.6507C116.779 89.3499 116.772 90.0563 116.801 90.7627C116.858 92.1106 117.06 93.4513 117.399 94.7632C117.457 94.9795 117.781 94.8858 117.731 94.6695C117.413 93.4369 117.212 92.1755 117.147 90.9069C117.118 90.3014 117.118 89.6959 117.147 89.0832C117.176 88.4489 117.161 87.7136 117.457 87.137C117.558 86.9424 117.262 86.7694 117.161 86.964Z" fill="#77433C"/>
<path id="Vector_19" d="M152.051 113.764C152.037 111.378 153.594 109.432 155.317 107.947C155.483 107.803 155.238 107.565 155.072 107.702C153.277 109.244 151.691 111.284 151.705 113.757C151.705 113.98 152.051 113.98 152.044 113.757L152.051 113.764Z" fill="#77433C"/>
<path id="Vector_20" d="M110.823 50.9305C111.854 51.3486 112.95 51.5216 114.054 51.6297C115.236 51.745 116.44 51.8748 117.63 51.745C117.846 51.7234 117.846 51.3774 117.63 51.4062C116.483 51.536 115.323 51.4134 114.176 51.3053C113.066 51.1972 111.955 51.0314 110.917 50.6061C110.715 50.5268 110.621 50.8512 110.823 50.9377V50.9305Z" fill="#77433C"/>
<path id="Vector_21" d="M202.45 149.798C202.595 150.951 202.183 152.069 201.592 153.042C201.477 153.23 201.772 153.403 201.888 153.215C202.508 152.191 202.941 151.009 202.789 149.798C202.76 149.581 202.421 149.581 202.45 149.798Z" fill="#77433C"/>
<path id="Vector_22" d="M203.546 149.834C203.993 150.411 204.224 151.132 204.224 151.853C204.224 152.076 204.563 152.076 204.563 151.853C204.563 151.031 204.282 150.238 203.784 149.589C203.726 149.517 203.604 149.531 203.539 149.589C203.467 149.661 203.481 149.755 203.539 149.834H203.546Z" fill="#77433C"/>
<path id="Vector_23" d="M117.002 66.9253C117.183 68.1219 117.615 69.1959 118.322 70.1762C118.394 70.2771 118.545 70.2915 118.618 70.1762C118.928 69.6788 119.158 69.1815 119.339 68.6264H119.007C119.209 69.3112 119.512 69.9167 119.944 70.4861C120.024 70.5871 120.168 70.6087 120.24 70.4861C120.586 69.9239 120.925 69.3545 121.271 68.7922H120.975C121.256 69.2031 121.567 69.5491 121.949 69.8734C122.035 69.9455 122.151 69.9311 122.215 69.8374C122.67 69.1959 122.98 68.5327 123.196 67.7759L122.944 67.8768C124.451 68.6985 125.972 69.5347 127.63 70.0032C129.426 70.515 131.286 70.4861 133.124 70.2771C136.737 69.8662 140.255 68.8787 143.586 67.4371C143.788 67.3506 143.615 67.055 143.413 67.1415C140.14 68.5616 136.672 69.5347 133.124 69.9383C131.372 70.1401 129.591 70.1834 127.875 69.7221C126.181 69.268 124.638 68.4174 123.11 67.5812C123.016 67.5308 122.886 67.5812 122.857 67.6822C122.655 68.403 122.345 69.0517 121.913 69.6644C121.999 69.65 122.093 69.6428 122.179 69.6284C121.819 69.3256 121.53 69.0085 121.264 68.6192C121.192 68.5111 121.04 68.5039 120.968 68.6192C120.622 69.1815 120.283 69.7509 119.937 70.3131H120.233C119.814 69.7653 119.526 69.2031 119.331 68.5327C119.281 68.3669 119.05 68.3741 119 68.5327C118.827 69.0589 118.603 69.5347 118.315 69.996H118.61C117.925 69.0373 117.5 67.9921 117.327 66.8244C117.291 66.6081 116.966 66.7018 116.995 66.9181L117.002 66.9253Z" fill="#77433C"/>
<path id="Vector_24" d="M156.478 89.9842C156.759 91.4836 157.329 92.8964 158.172 94.1722C158.245 94.2803 158.403 94.2875 158.468 94.1722C158.973 93.3144 159.521 92.4783 160.105 91.6782H159.809C160.343 92.572 161.035 93.3288 161.878 93.9488C162.015 94.0497 162.145 93.8839 162.131 93.7541C162.023 92.9756 163.522 93.5667 163.818 93.6388C164.229 93.7397 164.647 93.8046 165.065 93.8406C165.967 93.9271 166.861 93.855 167.74 93.6748C167.957 93.6316 167.863 93.3 167.647 93.3433C166.233 93.6316 164.791 93.5811 163.414 93.1703C163.032 93.0549 162.585 92.8747 162.189 93.0694C161.871 93.2279 161.749 93.509 161.792 93.8406C161.878 93.7758 161.958 93.7109 162.044 93.646C161.251 93.0621 160.602 92.3413 160.098 91.498C160.025 91.3826 159.874 91.3971 159.802 91.498C159.211 92.3053 158.67 93.1342 158.165 93.992H158.461C157.632 92.745 157.077 91.361 156.803 89.8905C156.759 89.6743 156.435 89.768 156.471 89.9842H156.478Z" fill="#77433C"/>
<path id="Vector_25" d="M178.822 117.512C178.721 118.01 178.541 118.55 178.52 119.055C178.512 119.278 178.606 119.458 178.858 119.466C179.183 119.473 179.659 119.177 179.926 119.026C180.344 118.795 180.726 118.507 181.079 118.19C180.978 118.147 180.884 118.111 180.784 118.067C180.82 118.377 180.834 118.687 180.827 119.004C180.827 119.112 180.935 119.199 181.043 119.17C181.649 118.99 182.211 118.723 182.73 118.363C182.658 118.356 182.593 118.348 182.521 118.334C182.701 118.5 182.615 118.802 182.824 118.968C183.011 119.112 183.271 119.098 183.487 119.048C184.107 118.896 184.72 118.5 185.218 118.118C186.263 117.318 187.042 116.215 187.446 114.961C187.518 114.751 187.186 114.658 187.114 114.867C186.761 115.948 186.119 116.907 185.254 117.642C184.836 118.002 184.36 118.305 183.855 118.536C183.632 118.637 183.156 118.896 182.968 118.608C182.853 118.428 182.925 118.255 182.752 118.089C182.701 118.038 182.608 118.017 182.543 118.06C182.045 118.399 181.519 118.658 180.935 118.831C181.007 118.889 181.079 118.939 181.151 118.997C181.158 118.68 181.144 118.37 181.108 118.06C181.094 117.916 180.935 117.829 180.812 117.938C180.351 118.356 179.839 118.702 179.269 118.954C179.154 119.004 178.938 119.156 178.837 119.048C178.801 119.004 178.923 118.615 178.931 118.565L179.125 117.599C179.168 117.382 178.837 117.289 178.794 117.505L178.822 117.512Z" fill="#77433C"/>
<path id="Vector_26" d="M124.753 102.015C124.696 102.815 124.631 103.615 124.573 104.415C124.559 104.559 124.725 104.61 124.833 104.559C125.143 104.422 125.453 104.292 125.763 104.156C125.914 104.091 126.073 104.019 126.224 103.954C126.311 103.918 126.397 103.867 126.484 103.838C126.614 103.795 126.642 103.781 126.722 103.867C126.816 103.961 126.873 104.156 126.931 104.278C127.003 104.437 127.061 104.595 127.118 104.761C127.176 104.941 127.241 105.143 127.464 105.165C127.666 105.179 127.883 105.021 128.027 104.905C128.128 104.826 128.214 104.732 128.294 104.624C128.322 104.588 128.344 104.552 128.373 104.516C128.445 104.415 128.431 104.386 128.568 104.393C128.726 104.401 128.906 104.552 129.043 104.624C129.188 104.703 129.332 104.783 129.476 104.869C129.779 105.042 130.082 105.208 130.385 105.381C130.579 105.489 130.752 105.194 130.558 105.085C130.24 104.905 129.923 104.725 129.606 104.545C129.317 104.379 129.022 104.17 128.712 104.047C128.488 103.961 128.308 104.033 128.171 104.22C128.077 104.35 127.998 104.48 127.883 104.588C127.803 104.66 127.717 104.725 127.623 104.775C127.508 104.84 127.537 104.819 127.479 104.725C127.4 104.595 127.371 104.415 127.313 104.271C127.248 104.119 127.183 103.975 127.104 103.838C127.003 103.651 126.895 103.442 126.657 103.449C126.368 103.449 126.022 103.687 125.756 103.802L124.674 104.278C124.761 104.329 124.847 104.379 124.934 104.429C124.999 103.629 125.056 102.829 125.114 102.029C125.128 101.813 124.789 101.813 124.775 102.029L124.753 102.015Z" fill="#77433C"/>
<path id="Vector_27" d="M150.436 127.409C150.515 128.361 150.84 129.284 151.402 130.055C151.518 130.214 151.64 130.423 151.828 130.495C152.001 130.56 152.174 130.481 152.261 130.322C152.362 130.135 152.369 129.897 152.441 129.695C152.527 129.45 152.65 129.219 152.794 129.003C152.708 129.017 152.614 129.024 152.527 129.039C153.083 129.536 153.717 129.925 154.417 130.192C154.626 130.272 154.713 129.94 154.511 129.861C153.869 129.615 153.285 129.255 152.773 128.794C152.686 128.714 152.571 128.736 152.506 128.83C152.297 129.147 152.138 129.493 152.044 129.861C152.023 129.94 152.023 130.048 151.987 130.12C151.965 130.163 151.987 130.171 151.936 130.156C151.914 130.156 151.878 130.091 151.864 130.077C151.734 129.925 151.619 129.752 151.518 129.579C151.114 128.923 150.869 128.173 150.797 127.402C150.775 127.186 150.436 127.178 150.45 127.402L150.436 127.409Z" fill="#77433C"/>
<path id="Vector_28" d="M95.473 45.0413C96.3959 45.5099 97.636 45.5027 98.6526 45.5099C99.8423 45.5099 101.039 45.3801 102.186 45.0485C104.161 44.4719 105.942 43.3114 107.139 41.6319C107.218 41.5237 107.038 41.4228 106.959 41.5309C105.791 43.1672 104.053 44.2989 102.128 44.8539C101.068 45.1639 99.9649 45.3008 98.8617 45.308C97.8235 45.3152 96.5256 45.3513 95.5811 44.8683C95.4657 44.8107 95.3576 44.9837 95.4802 45.0485L95.473 45.0413Z" fill="#77433C"/>
<path id="Vector_29" d="M86.0781 42.8573C90.6133 34.3084 87.2534 21.0021 92.2789 15.6536C95.5595 12.1648 72.934 15.1418 72.934 15.1418C73.4531 19.0631 62.6307 50.3033 66.4016 54.9526C72.7898 62.8311 79.8918 54.5129 86.0781 42.8573Z" fill="#473835"/>
<g id="Clip path group">
<mask id="mask0_326_92" style="mask-type:luminance" maskUnits="userSpaceOnUse" x="0" y="122" width="33" height="21">
<g id="clippath">
<path id="Vector_30" d="M26.9476 136.247C23.804 134.697 20.4801 133.363 16.291 132.196C15.5411 131.986 13.7963 131.669 12.6571 131.914C10.7103 132.332 9.30434 135.136 7.91278 137.227C6.90335 138.741 5.92998 140.254 4.84846 141.242C3.23338 142.719 1.63273 142.453 0.983813 140.355C0.515153 138.841 4.72588 128.231 6.2977 123.971C7.17734 121.578 7.27828 122.335 8.82126 122.306C10.8906 122.263 12.3254 122.717 13.2339 123.185C15.0004 124.079 16.875 124.728 18.7785 125.254C21.5039 126.011 25.282 127.092 29.5288 128.31C35.5421 130.04 32.1894 138.834 26.9476 136.247Z" fill="white"/>
</g>
</mask>
<g mask="url(#mask0_326_92)">
<g id="Group">
<path id="Vector_31" d="M7.9344 137.234C9.32596 135.151 10.7319 132.34 12.6787 131.922C13.8179 131.677 15.5627 131.994 16.3126 132.203C19.6004 133.118 22.3475 134.142 24.8999 135.281C25.7435 132.758 26.6015 130.235 27.236 127.647C20.6171 125.751 15.5339 124.324 14.5677 124.13C14.5677 124.13 11.8711 122.457 8.98709 122.32C7.45132 122.248 7.15571 121.664 6.31933 123.985C4.77635 128.26 0.536781 138.856 1.00544 140.37C1.65436 142.467 3.26222 142.727 4.87009 141.256C5.9444 140.269 6.92498 138.755 7.9344 137.241V137.234Z" fill="#E89F89"/>
<path id="Vector_32" d="M22.7366 126.364C22.6718 126.559 20.9413 130.047 20.1843 133.536L19.146 133.154C19.146 133.154 19.9391 129.009 21.5037 126.292C19.7444 125.759 18.1654 125.449 16.7162 125.232C15.476 125.045 14.2647 124.742 13.075 124.353C11.9647 123.993 10.4577 123.661 9.26807 124C9.26807 124 8.42448 124.389 7.5809 125.643C6.84546 126.739 5.98745 129.247 5.20875 131.626C4.68962 133.205 4.89151 134.985 5.75673 136.261C6.13886 136.823 7.14829 137.335 7.97745 137.27L6.67242 139.533C6.67242 139.533 5.20875 143.325 2.07234 142.027L0.0318604 141.278L6.63636 122.176L9.44833 121.953L13.1111 122.457C16.6008 122.666 22.7583 126.306 22.7366 126.371V126.364Z" fill="#473835"/>
</g>
</g>
</g>
<g id="Clip path group_2">
<mask id="mask1_326_92" style="mask-type:luminance" maskUnits="userSpaceOnUse" x="75" y="121" width="21" height="27">
<g id="clippath-1">
<path id="Vector_33" d="M83.6699 125.506C83.1075 128.699 82.7903 131.994 82.848 136.023C82.8552 136.744 83.0282 138.373 83.5473 139.324C84.427 140.946 87.2822 141.465 89.4957 142.15C91.1036 142.654 92.7042 143.123 93.8579 143.822C95.5883 144.867 95.7686 146.359 94.0742 147.484C92.8557 148.291 82.3288 147.318 78.1397 147.03C75.7892 146.871 76.4309 146.583 76.0055 145.228C75.4287 143.404 75.4575 142.013 75.6378 141.076C75.9767 139.281 76.056 137.443 76.0344 135.612C75.9983 132.995 75.9767 129.363 75.955 125.276C75.9262 119.487 84.6072 120.172 83.6771 125.499L83.6699 125.506Z" fill="white"/>
</g>
</mask>
<g mask="url(#mask1_326_92)">
<g id="Group_2">
<path id="Vector_34" d="M89.4959 142.128C87.2824 141.436 84.4272 140.917 83.5476 139.303C83.0356 138.351 82.8626 136.722 82.8482 136.001C82.8049 132.844 82.9996 130.141 83.3529 127.582C80.8942 127.488 78.4283 127.388 75.9625 127.496C75.9985 133.861 76.0562 138.748 76.1283 139.656C76.1283 139.656 75.3424 142.489 75.9697 145.084C76.3086 146.468 75.8615 146.879 78.1399 147.015C82.3362 147.275 92.8559 148.277 94.0744 147.47C95.7688 146.345 95.5813 144.853 93.8581 143.808C92.7045 143.109 91.1038 142.633 89.4959 142.136V142.128Z" fill="#E89F89"/>
<path id="Vector_35" d="M75.9911 131.813C76.1785 131.821 79.7259 132.455 83.0282 132.217L82.9561 133.241C82.9561 133.241 79.0698 133.608 76.2506 132.931C76.2362 134.632 76.3732 136.11 76.5535 137.457C76.7121 138.604 76.7553 139.764 76.7193 140.925C76.6832 142.006 76.7842 143.433 77.397 144.399C77.397 144.399 77.9667 145.048 79.2933 145.473C80.4542 145.841 82.9128 145.949 85.2273 146.021C86.763 146.071 88.2916 145.423 89.2001 144.327C89.6038 143.844 89.7913 142.813 89.5173 142.092L91.8678 142.662C91.8678 142.662 95.6171 142.972 95.2782 146.093L95.1412 148.097L76.4525 147.203L75.5224 144.759L75.0177 141.379C74.2967 138.229 75.9262 131.813 75.9911 131.813Z" fill="#473835"/>
</g>
</g>
</g>
<path id="Vector_36" d="M121.509 51.644C123.448 51.1827 128.474 50.3826 131.416 48.0327C134.011 45.964 134.047 44.58 136.29 43.9241C138.222 43.3546 140.111 43.7367 140.645 44.6233C140.883 45.0125 140.738 45.6396 140.738 45.6396C141.95 45.928 141.704 47.1894 141.704 47.1894C142.144 47.5138 142.397 47.6075 142.57 48.1697C142.8 48.9121 142.599 49.4455 142.599 49.4455C143.139 49.9501 143.55 50.8367 143.514 52.2856C143.493 53.0641 143.002 54.03 142.353 54.8877C142.353 54.8877 141.82 54.0011 141.38 53.028C141.38 53.028 141.257 52.6964 141.12 52.6171C140.724 52.4009 139.657 54.1453 137.667 55.1328C136.506 55.7095 135.828 55.623 134.365 55.8752C129.887 56.6393 125.482 58.6576 124.04 59.2415L121.509 51.644Z" fill="#E89F89"/>
<path id="Vector_37" d="M62.299 91.873C67.375 84.6432 85.1913 79.9506 93.6488 81.2193C109.129 83.5475 91.0604 125.477 82.574 137.068L75.5225 133.724C77.5197 116.28 81.2762 105.727 85.6527 97.9278C85.6527 97.9278 73.381 107.025 65.7383 108.322C65.7383 108.322 61.304 107.32 60.2297 101.395C59.3861 96.7024 62.299 91.873 62.299 91.873Z" fill="#E9D6D2"/>
<path id="Vector_38" d="M40.236 84.4485C36.0036 88.5067 34.9653 94.0426 34.8716 95.9455C33.9343 115.22 65.5364 132.671 65.5364 132.671C47.9148 126.688 27.2577 127.2 27.2577 127.2C25.2893 130.53 24.5178 135.353 24.5178 135.353C37.2437 142.446 77.5413 151.874 81.7304 146.338C88.2772 137.695 75.7748 121.794 62.9119 99.0018C62.3712 98.0359 62.7533 95.3112 63.3085 92.7739C63.3301 92.673 40.236 84.4557 40.236 84.4557V84.4485Z" fill="#E9D6D2"/>
<path id="Vector_39" d="M42.2764 77.2257C41.8366 81.2046 40.236 84.4483 40.236 84.4483C44.8288 93.7036 63.3085 92.7666 63.3085 92.7666C64.6856 90.9717 66.7117 83.7852 66.7117 83.7852C59.2275 71.4952 42.2764 77.2257 42.2764 77.2257Z" fill="#E89F89"/>
<path id="Vector_40" d="M64.6279 35.13L74.0228 38.3881L79.3583 48.2994C80.0216 50.9736 79.6828 52.4657 79.6828 52.4657C82.7327 54.9958 93.2811 56.7762 100.65 56.0121C111.371 54.902 116.375 51.644 121.516 51.644C121.516 51.644 124.472 54.484 124.155 59.7243C124.155 59.7243 96.5257 73.2036 76.8131 66.2261C76.8131 66.2261 75.7388 69.6716 73.3162 74.256C71.6074 77.4853 69.0694 82.5238 66.9352 84.3258C66.9352 84.3258 47.0207 83.0644 41.3175 77.233C41.3175 77.233 44.5909 41.0984 64.6352 35.1228L64.6279 35.13Z" fill="#A56DAE"/>
<path id="Vector_41" d="M91.702 9.26001C94.2761 16.2736 93.072 23.8205 91.0748 30.8125C90.1302 34.1138 89.0992 37.4079 87.9239 40.6372C86.7126 43.9602 85.2273 47.1967 83.0354 50.0006C82.8984 50.1736 83.0138 50.2962 83.1508 50.1232C86.4386 45.9136 88.2628 40.9472 89.8635 35.9231C91.6516 30.3151 93.4036 24.5846 93.519 18.6451C93.5839 15.423 93.1441 12.2082 92.0265 9.17351C91.9544 8.97168 91.6227 9.05818 91.6948 9.26721L91.702 9.26001Z" fill="#473835"/>
<path id="Vector_42" d="M79.3583 48.8256C79.6178 47.8525 77.2673 41.2354 77.2673 41.2354C78.0965 33.5731 81.9035 25.7666 81.9035 25.7666L71.5569 23.0996L64.6279 35.1373C64.7577 37.0979 70.7277 38.9288 72.4582 41.2858C75.5369 45.4738 78.7094 51.2476 79.3583 48.8328V48.8256Z" fill="#E89F89"/>
<path id="Vector_43" opacity="0.5" d="M79.416 31.9728L78.6877 34.3515C73.6406 33.1405 73.5181 25.2188 73.5181 25.2188C75.162 26.0044 79.416 31.9728 79.416 31.9728Z" fill="#E2795C"/>
<path id="Vector_44" d="M82.163 0.934416C85.5013 1.96519 88.3926 2.67159 90.4331 4.31505C91.8607 5.46115 92.7187 7.47223 92.7043 9.2959C92.7043 9.41844 92.6538 9.53377 92.6899 9.62748C94.4708 14.5867 83.9295 26.509 76.9285 24.707C73.7344 23.8853 70.3888 22.9914 70.3888 22.9914C66.5314 24.534 62.9552 13.5559 67.7427 5.96572C70.7998 1.11462 74.5852 -1.41545 82.1558 0.927208L82.163 0.934416Z" fill="#473835"/>
<path id="Vector_45" d="M73.345 19.8488L73.9723 19.6469C74.477 19.5893 74.0083 18.6954 74.1381 18.1909C75.7964 11.754 81.0094 8.07059 85.9988 8.82024C89.1569 9.29598 91.4136 9.74289 92.351 11.7035C93.1369 13.347 92.9061 16.2807 92.351 18.9117C91.8318 21.3553 92.6682 22.6383 93.4181 24.152C93.7137 24.7431 93.0071 25.4856 92.3654 25.1396L91.5434 24.844C91.356 24.7792 91.1541 24.8656 91.082 25.0531C90.397 26.6893 89.6039 28.1526 88.6449 29.3347C86.6045 31.8648 83.8574 33.0758 79.9927 32.1459C74.9312 30.9205 73.3378 24.7287 72.6816 22.7969C72.6816 22.7969 72.8979 21.3408 73.345 19.8704V19.8488Z" fill="#E89F89"/>
<path id="Vector_46" opacity="0.81" d="M89.3232 28.3834C89.2367 28.5132 89.0636 28.7656 88.9698 28.8881C88.9338 28.9386 88.8544 29.0395 88.7895 29.1261C88.7895 29.1261 88.3063 28.8016 87.8376 28.3258C87.4193 27.9004 87.1452 27.201 87.1813 27.0568C87.2029 26.9631 87.7222 27.4534 88.3063 27.8571C88.9338 28.2825 89.316 28.3834 89.316 28.3834H89.3232Z" fill="white"/>
<path id="Vector_47" d="M91.3416 18.3423C91.5795 18.1332 91.5074 17.9458 90.8081 17.6287C90.1736 17.3403 88.8325 16.9511 87.9961 17.0664C86.0782 17.3331 85.5302 17.7584 85.9556 17.6647C86.8713 17.4557 87.6212 17.4773 88.8757 17.6287C89.7265 17.7296 91.1758 18.4792 91.3344 18.3423H91.3416Z" fill="#473835"/>
<path id="Vector_48" d="M88.4214 20.5408C88.3421 20.8797 88.5224 21.2041 88.8253 21.2835C89.1282 21.3556 89.4455 21.1465 89.5248 20.8076C89.6042 20.4759 89.4239 20.1443 89.121 20.065C88.8181 19.9929 88.5007 20.202 88.4214 20.5408Z" fill="#473835"/>
<path id="Vector_49" d="M71.5858 40.3776C78.6229 37.5448 78.2912 19.546 84.5208 15.6536C88.5801 13.1163 91.7382 13.3614 92.2068 11.4152C92.2068 11.4152 89.8635 5.48282 80.8941 6.6938C76.8348 7.24162 65.9402 10.233 65.9402 10.233C65.4427 14.1615 53.3729 42.5257 49.4722 47.0596C46.8405 50.1159 61.7223 39.2027 71.5785 40.3776H71.5858Z" fill="#473835"/>
<path id="Vector_50" d="M76.6328 65.9666C74.2751 65.1593 72.1192 63.9123 69.9994 62.6148C67.9013 61.3245 65.9473 59.8469 64.4981 57.8358C62.1692 54.6065 60.2946 48.9193 63.5319 45.6467C63.6833 45.4882 63.4454 45.2503 63.2868 45.4017C60.0855 48.6453 61.6573 54.1668 63.8564 57.5042C65.2335 59.6018 67.137 61.2236 69.2496 62.5571C71.5568 64.0204 73.9434 65.4116 76.5391 66.2982C76.7481 66.3703 76.8347 66.0387 76.6328 65.9666Z" fill="#885A93"/>
<path id="Vector_51" d="M79.7692 52.2207C77.8801 50.8583 76.4814 48.9698 74.7798 47.4056C73.1503 45.9063 71.2035 44.8107 69.091 44.1619C68.8819 44.0971 68.7881 44.4286 68.9972 44.4935C71.2396 45.1783 73.2368 46.3821 74.924 48.0111C76.4814 49.5176 77.8297 51.2404 79.5962 52.5162C79.7764 52.646 79.9495 52.3504 79.7692 52.2207Z" fill="#885A93"/>
<path id="Vector_52" d="M95.7685 56.2356C95.2638 57.0934 94.9322 58.0305 94.6942 58.9892C94.4635 59.8974 94.1318 60.9714 94.4274 61.9013C94.4923 62.1103 94.824 62.0238 94.7591 61.8076C94.6005 61.3102 94.6582 60.8056 94.7591 60.2938C94.8456 59.8541 94.9394 59.4144 95.0547 58.9819C95.2855 58.0809 95.6027 57.2087 96.0714 56.4014C96.1795 56.214 95.8839 56.041 95.7757 56.2284L95.7685 56.2356Z" fill="#885A93"/>
<path id="Vector_53" d="M42.2476 73.1677C49.9913 78.2279 59.2059 80.3182 68.3556 80.6931C68.5791 80.7003 68.5791 80.3615 68.3556 80.3471C59.2636 79.9722 50.1139 77.8963 42.4206 72.8722C42.2332 72.7496 42.0673 73.0452 42.2476 73.1677Z" fill="#885A93"/>
<path id="Vector_54" d="M63.1137 93.0837C62.746 94.1866 62.3423 95.4552 62.4792 96.6374C62.609 97.8123 63.2796 98.9512 63.7699 100.004C64.9884 102.627 66.2069 105.244 67.584 107.788C67.6922 107.983 67.9878 107.81 67.8796 107.615C66.6323 105.323 65.5147 102.959 64.4188 100.595C63.8924 99.4558 63.1858 98.2664 62.8974 97.041C62.609 95.7796 63.0488 94.3812 63.4454 93.1847C63.5175 92.9756 63.1858 92.8819 63.1137 93.0909V93.0837Z" fill="#D3BDBC"/>
<path id="Vector_55" d="M85.8474 97.5601C86.4675 94.1723 87.1669 90.5682 89.6399 87.9949C89.7914 87.8363 89.5534 87.5912 89.3948 87.7498C86.8712 90.3736 86.143 94.0137 85.5085 97.4664C85.4725 97.6827 85.7969 97.7764 85.8402 97.5601H85.8474Z" fill="#D3BDBC"/>
<path id="Vector_56" d="M65.6086 132.866C67.3462 133.435 68.9757 134.192 70.3889 135.36C71.7372 136.477 72.8476 137.883 73.5253 139.504C73.6118 139.706 73.9435 139.62 73.857 139.411C73.1576 137.731 72.0328 136.275 70.634 135.115C69.1704 133.904 67.4976 133.118 65.7023 132.534C65.4932 132.462 65.3995 132.794 65.6086 132.866Z" fill="#D3BDBC"/>
<path id="Vector_57" d="M85.1985 97.7547C83.533 96.4789 83.2518 93.8839 83.5402 91.9594C83.569 91.7431 83.2446 91.6494 83.2085 91.8656C82.8985 93.9632 83.2157 96.6663 85.0255 98.0503C85.1985 98.1872 85.3716 97.8845 85.1985 97.7547Z" fill="#D3BDBC"/>
<path id="Vector_58" d="M77.0798 123.409C79.4447 127.474 81.1031 131.878 82.6172 136.311C82.6893 136.52 83.021 136.427 82.9489 136.218C81.4275 131.756 79.7548 127.323 77.3754 123.228C77.2673 123.041 76.9717 123.207 77.0798 123.401V123.409Z" fill="#D3BDBC"/>
<path id="Vector_59" d="M31.4612 127.51C29.7884 130.458 28.8511 133.774 28.7213 137.162H29.0674C29.0674 137.075 29.0674 136.989 29.0674 136.902C29.0674 136.679 28.7285 136.679 28.7285 136.902C28.7285 136.989 28.7285 137.075 28.7285 137.162C28.7285 137.385 29.0602 137.378 29.0746 137.162C29.1972 133.832 30.1201 130.581 31.764 127.683C31.8722 127.489 31.5765 127.316 31.4684 127.51H31.4612Z" fill="#D3BDBC"/>
<path id="Vector_60" d="M57.6845 93.6606C57.2952 94.8211 56.3362 95.6572 55.4349 96.4285C54.5481 97.1926 53.5964 97.8846 52.6014 98.5045C50.6474 99.7154 48.5276 100.624 46.3069 101.215C46.0978 101.272 46.1843 101.604 46.4006 101.546C48.7728 100.912 51.0368 99.9245 53.0989 98.5982C54.0794 97.9639 55.0168 97.2574 55.8964 96.4862C56.776 95.7149 57.634 94.886 58.0162 93.7543C58.0883 93.5452 57.7566 93.4587 57.6845 93.6606Z" fill="#D3BDBC"/>
<path id="Vector_61" d="M35.2177 96.414C35.7801 96.5149 36.3353 96.6086 36.8977 96.7095C37.2726 96.7744 37.6836 96.9041 38.0225 96.6663C38.3542 96.4284 38.5128 95.9743 38.6786 95.6211C38.931 95.1093 39.1689 94.5831 39.3996 94.0641C40.2721 92.0458 40.9786 89.9626 41.505 87.829C41.5555 87.6128 41.231 87.5263 41.1733 87.7353C40.7119 89.5878 40.1279 91.4043 39.3996 93.1775C39.0319 94.0713 38.6353 94.9507 38.2027 95.8157C38.073 96.0752 37.9576 96.3635 37.662 96.4428C37.4024 96.5149 37.078 96.3996 36.8184 96.3563C36.3137 96.2698 35.809 96.1761 35.3043 96.0896C35.088 96.0536 34.9942 96.3851 35.2105 96.4212L35.2177 96.414Z" fill="#D3BDBC"/>
<path id="Vector_62" d="M65.7456 132.52C66.0629 132.116 66.575 131.871 67.0293 131.655C67.5197 131.431 68.0318 131.273 68.5582 131.165C68.7746 131.121 68.6808 130.79 68.4645 130.833C67.9092 130.941 67.3683 131.121 66.849 131.359C66.3658 131.583 65.8249 131.85 65.4932 132.275C65.3562 132.448 65.6014 132.693 65.7384 132.52H65.7456Z" fill="#D3BDBC"/>
<path id="Vector_63" d="M90.9378 5.70615C89.8275 8.5678 86.9434 9.94456 84.4271 11.343C81.9179 12.7341 80.0361 14.3416 78.7599 16.9509C76.1426 22.2994 75.5225 28.5056 72.2563 33.5658C71.2829 35.0723 70.05 36.1895 68.4782 37.0545C67.0362 37.8474 65.5148 38.4673 64.1665 39.426C63.9863 39.5558 64.1665 39.8513 64.3396 39.7216C66.654 38.0781 69.5669 37.3645 71.4848 35.1732C73.3811 33.0107 74.4915 30.1707 75.4072 27.4821C76.4022 24.5772 77.1592 21.5858 78.3345 18.7385C79.0122 17.0951 79.7981 15.4084 81.0599 14.1253C82.1559 13.0152 83.5186 12.2296 84.8741 11.4871C87.4121 10.0959 90.1591 8.64709 91.2695 5.79986C91.3488 5.59803 91.0171 5.50433 90.9378 5.70615Z" fill="#3A2C29"/>
<path id="Vector_64" d="M79.7404 46.6342C81.9395 43.1238 83.5185 39.253 84.3982 35.202C84.4415 34.9858 84.117 34.8921 84.0665 35.1083C83.1941 39.1305 81.6367 42.9724 79.4448 46.454C79.3295 46.6414 79.6251 46.8144 79.7404 46.627V46.6342Z" fill="#3A2C29"/>
<path id="Vector_65" d="M52.7889 44.6449C58.4416 39.7218 62.0539 32.7298 62.811 25.2694C62.8326 25.0531 62.4937 25.0531 62.4721 25.2694C61.7222 32.6361 58.1316 39.5416 52.5509 44.3999C52.3851 44.544 52.6302 44.7891 52.7961 44.6449H52.7889Z" fill="#3A2C29"/>
<path id="Vector_66" d="M66.2213 35.3463C71.8308 29.1617 73.1575 20.7065 74.3039 12.7487C74.3328 12.5324 74.0083 12.4387 73.9723 12.6549C72.8403 20.5479 71.5424 28.9671 65.9834 35.1084C65.8392 35.2742 66.0771 35.5121 66.2285 35.3535L66.2213 35.3463Z" fill="#3A2C29"/>
<path id="Vector_67" d="M117.45 52.8693C118.235 54.0803 118.769 55.421 119.245 56.7762C119.728 58.1529 120.175 59.5657 120.06 61.0434C120.045 61.2596 120.384 61.2596 120.398 61.0434C120.514 59.5369 120.06 58.088 119.569 56.6824C119.086 55.2985 118.538 53.9289 117.738 52.6891C117.623 52.5017 117.32 52.6747 117.442 52.8621L117.45 52.8693Z" fill="#885A93"/>
<path id="Vector_68" d="M142.491 49.2725C141.215 49.3229 139.989 49.9358 139.203 50.9524C139.073 51.1254 139.311 51.3705 139.448 51.1975C140.176 50.253 141.301 49.6618 142.491 49.6185C142.708 49.6113 142.715 49.2653 142.491 49.2797V49.2725Z" fill="#E2795C"/>
<path id="Vector_69" d="M141.554 47.0452C140.263 47.3409 139.08 48.0114 138.172 48.9631C138.02 49.1217 138.258 49.3668 138.417 49.2082C139.289 48.2926 140.414 47.6581 141.648 47.3769C141.864 47.3264 141.77 46.9948 141.554 47.0452Z" fill="#E2795C"/>
<path id="Vector_70" d="M140.666 45.3874C139.044 45.1855 137.335 45.3081 135.929 46.2235C135.742 46.3461 135.915 46.6416 136.102 46.5191C137.458 45.6397 139.102 45.5387 140.666 45.7334C140.883 45.7622 140.883 45.4162 140.666 45.3946V45.3874Z" fill="#E2795C"/>
<path id="Vector_71" d="M45.6219 58.7801C53.8559 65.4044 63.8348 69.7293 74.3184 71.1421C74.9168 71.2214 75.1764 70.306 74.5707 70.2267C64.2602 68.8355 54.4039 64.6331 46.2925 58.1097C45.8166 57.7277 45.1461 58.398 45.6219 58.7801Z" fill="white"/>
<path id="Vector_72" d="M44.2448 63.2996C52.3057 69.8518 62.2197 73.319 72.3427 75.121C72.9412 75.2291 73.2007 74.3137 72.5951 74.2056C62.6523 72.4324 52.8465 69.0734 44.9225 62.6292C44.4538 62.2472 43.7761 62.9176 44.252 63.2996H44.2448Z" fill="white"/>
</g>
<defs>
<clipPath id="clip0_326_92">
<rect width="208.95" height="178.957" fill="white" transform="translate(0.0249023 0.0478516)"/>
</clipPath>
</defs>
</svg>
