<svg width="226" height="178" viewBox="0 0 226 178" fill="none" xmlns="http://www.w3.org/2000/svg">
<g id="_Layer_" clip-path="url(#clip0_291_1706)">
<path id="Vector" d="M45.0658 78.5044V74.3409H7.92104V78.5044L0.109131 92.6897V154.272H52.8737V92.6897L45.0658 78.5044Z" fill="#FFC661"/>
<path id="Vector_2" d="M44.2188 78.6887H9.04507C8.94471 78.6887 8.86041 78.6086 8.86041 78.5044C8.86041 78.4002 8.9407 78.32 9.04507 78.32H44.2147C44.3151 78.32 44.3994 78.4002 44.3994 78.5044C44.3994 78.6086 44.3191 78.6887 44.2147 78.6887H44.2188Z" fill="#DD771B"/>
<path id="Vector_3" d="M12.7503 95.8514H3.08374V99.1212H12.7503V95.8514Z" fill="#FCE6DC"/>
<path id="Vector_4" d="M52.8737 140.331H0.109131V147.772H52.8737V140.331Z" fill="#FCE6DC"/>
<path id="Vector_5" d="M15.7289 152.813C15.6286 152.813 15.5443 152.733 15.5443 152.629V92.7338L8.5593 80.0511C8.51113 79.963 8.54325 79.8508 8.63156 79.8027C8.72389 79.7546 8.83228 79.7866 8.88045 79.8748L15.8855 92.6016C15.9015 92.6296 15.9096 92.6577 15.9096 92.6897V152.629C15.9096 152.729 15.8293 152.813 15.7249 152.813H15.7289Z" fill="#DD771B"/>
<path id="Vector_6" d="M43.9064 126.292C49.1394 121.069 49.1394 112.6 43.9064 107.376C38.6734 102.152 30.1891 102.152 24.9561 107.376C19.7231 112.6 19.7231 121.069 24.9561 126.292C30.1891 131.516 38.6734 131.516 43.9064 126.292Z" fill="#C65B46"/>
<path id="Vector_7" d="M39.6906 115.787C40.2526 115.458 40.0157 114.745 40.5496 114.208C40.8266 113.928 41.3244 113.683 41.8222 113.823C42.2317 113.94 42.617 114.312 42.6732 114.801C42.7334 115.338 42.3922 115.871 41.8382 116.064C42.8258 115.671 43.8936 115.895 44.4717 116.584C44.5238 116.645 45.1421 117.41 44.853 118.34C44.6322 119.053 43.9779 119.542 43.3597 119.626C42.4605 119.75 41.4368 119.113 40.8989 118.472C40.6701 118.199 40.4051 117.771 39.8632 117.61C39.5902 117.53 39.3654 117.546 39.2851 117.554C38.1772 117.634 30.7225 117.546 29.1088 117.474C28.8037 117.458 28.2055 117.422 27.788 117.799C27.495 118.059 27.5472 118.291 27.1819 118.652C27.0574 118.776 26.6961 119.125 26.1341 119.213C26.0177 119.233 25.259 119.341 24.689 118.788C24.3759 118.484 24.1711 118.027 24.2072 117.598C24.2755 116.797 25.2068 116.027 26.5075 115.975C25.3554 116.023 24.5445 115.282 24.5364 114.577C24.5284 114.052 24.97 113.479 25.4678 113.387C26.2546 113.242 27.218 114.284 27.6837 114.785C27.8202 114.933 28.0771 115.226 28.5187 115.478C28.607 115.527 28.884 115.683 29.2774 115.787C31.4331 116.372 38.41 115.947 39.1808 115.907C39.3092 115.899 39.4939 115.895 39.6866 115.783L39.6906 115.787Z" fill="white"/>
<path id="Vector_8" d="M49.602 92.8741H19.5105C19.4101 92.8741 19.3258 92.7939 19.3258 92.6897C19.3258 92.5855 19.4061 92.5054 19.5105 92.5054H49.606C49.7064 92.5054 49.7907 92.5855 49.7907 92.6897C49.7907 92.7939 49.7104 92.8741 49.606 92.8741H49.602Z" fill="#DD771B"/>
<path id="Vector_9" d="M101.841 65.1004L98.011 55.2267L85.5424 60.953L90.8173 71.8364C91.9011 74.8338 94.8637 76.2363 105.919 80.6762C107.766 81.4176 110.01 82.3152 112.571 83.325L123.301 78.1197C116.987 73.5796 108.372 69.2438 101.845 65.1004H101.841Z" fill="#FEB695"/>
<path id="Vector_10" d="M99.5846 65.7616C99.5243 65.7616 99.4641 65.7215 99.4481 65.6574C99.428 65.5813 99.4722 65.5051 99.5484 65.4851L101.331 65.0202C101.411 65.0042 101.483 65.0443 101.503 65.1204C101.523 65.1966 101.479 65.2727 101.403 65.2927L99.6207 65.7576H99.5846V65.7616Z" fill="#E0705A"/>
<path id="Vector_11" d="M35.074 145.913L50.8464 145.704L51.7577 157.229L23.858 157.618C24.6287 156.412 25.5199 155.149 26.5516 153.867C29.4058 150.329 32.4527 147.756 35.074 145.913Z" fill="#FEB695"/>
<path id="Vector_12" d="M17.2504 157.81C17.2504 157.47 17.5193 157.217 17.6117 157.129C23.0109 151.944 25.7126 149.351 29.4018 146.402C29.4459 146.37 29.5985 146.245 29.8273 146.133C29.9277 146.085 30.2047 145.965 30.6262 145.929C31.136 145.885 33.087 145.861 35.7364 145.909L23.858 157.622C22.5654 158.259 21.1684 158.976 19.6429 159.08C19.3418 159.108 18.3664 159.145 17.6839 158.56C17.5595 158.455 17.2504 158.183 17.2504 157.81Z" fill="#5F3B57"/>
<path id="Vector_13" d="M102.391 153.767C102.27 153.711 99.9178 152.629 99.2153 152.036C99.0105 151.864 98.9062 151.699 98.866 151.631C98.866 151.631 98.6412 151.234 98.6613 150.661C98.6894 149.836 100.291 144.915 102.712 138.251L90.1589 137.358L85.1731 153.539L85.2413 154.26L102.391 153.771V153.767Z" fill="#FEB695"/>
<path id="Vector_14" d="M107.164 158.331C106.919 158.572 106.545 158.56 106.421 158.555C105.642 158.531 97.6978 158.407 86.7627 158.227C86.4978 158.239 85.1249 158.271 84.6111 157.45C84.2739 156.909 84.4425 156.207 84.7676 154.861C84.9001 154.312 85.0486 153.859 85.1691 153.539L102.387 153.767C103.747 154.24 105.241 154.729 106.389 155.738C106.622 155.931 107.332 156.604 107.392 157.498C107.409 157.71 107.421 158.079 107.164 158.331Z" fill="#5F3B57"/>
<path id="Vector_15" d="M120.339 96.7169C120.202 95.8914 119.749 93.7276 118.063 91.6639C117.994 91.5797 117.493 90.9706 116.882 90.4417C114.205 88.1256 110.323 88.1095 108.954 88.1576C105.004 88.0735 89.1032 87.9933 85.2735 88.0374L85.6468 84.0583L49.4816 86.7351C48.0204 97.883 49.0641 106.538 50.2403 112.249C51.3523 117.638 53.0423 122.651 55.471 129.848C57.4982 135.855 59.3769 140.784 60.7458 144.226L43.8535 145.28L33.372 158.143C33.372 158.143 54.07 158.732 70.3642 158.984C71.2112 158.996 73.3589 159.004 75.5507 157.846C76.0646 157.574 77.1765 156.973 78.0798 155.827C79.0994 154.532 79.6454 152.853 79.6333 150.649C79.6133 146.37 78.425 131.479 76.3054 111.407L97.5493 109.035C97.2483 109.844 97.0476 110.55 96.9111 111.115C96.1805 114.144 96.7826 115.09 95.771 117.558C95.0685 119.277 94.6269 119.169 93.6193 121.473C92.9609 122.984 92.6438 124.17 92.2263 125.769C91.3673 129.059 91.568 129.632 90.9618 131.707C90.2593 134.116 89.5367 134.897 88.5572 137.013C87.6339 139.009 86.5741 141.95 86.1727 146.065H101.138C111.005 124.723 117.822 108.782 119.576 103.922C119.921 102.96 120.905 100.127 120.335 96.7209L120.339 96.7169Z" fill="#FCE6DC"/>
<path id="Vector_16" d="M61.5888 147.367C61.5085 147.367 61.4323 147.311 61.4122 147.227L60.7338 144.546C60.7097 144.45 60.7699 144.35 60.8662 144.326C60.9626 144.298 61.067 144.362 61.087 144.458L61.7654 147.139C61.7895 147.235 61.7293 147.335 61.633 147.359C61.6169 147.363 61.5888 147.363 61.5888 147.363V147.367Z" fill="#EFD2C7"/>
<path id="Vector_17" d="M76.3536 110.918C76.2573 110.918 76.1689 110.842 76.1649 110.746L75.615 101.149C75.6109 101.049 75.6872 100.961 75.7876 100.957C75.892 100.957 75.9763 101.033 75.9803 101.129L76.5302 110.726C76.5342 110.826 76.454 110.914 76.3536 110.918Z" fill="#EFD2C7"/>
<path id="Vector_18" d="M98.1515 108.646C98.019 108.626 97.9508 108.53 97.9709 108.43L98.6453 104.723C98.6613 104.623 98.7456 104.563 98.858 104.575C98.9584 104.595 99.0226 104.687 99.0066 104.787L98.3322 108.494C98.3161 108.582 98.2398 108.646 98.1515 108.646Z" fill="#EFD2C7"/>
<path id="Vector_19" d="M102.623 61.2215C99.697 50.8189 95.4578 43.3375 92.0778 40.4203C90.2432 38.8374 88.2802 37.7275 88.2802 37.7275C87.1883 37.1304 85.9077 36.5293 84.4425 36.0004C83.6236 35.7038 82.8367 35.4634 82.0981 35.2711L66.406 33.7123C64.427 33.8044 61.2757 34.1931 57.7832 35.7519C55.9487 36.5694 53.0864 37.8437 50.6136 40.7609C46.9846 45.0365 46.6474 49.9453 46.5631 51.3719C46.3182 55.6275 47.647 59.0296 49.0922 62.7402C49.7385 64.3992 50.3848 65.7335 50.8625 66.6552C49.8629 70.9308 48.9677 75.7114 48.3254 80.9447C47.7393 85.7493 47.4503 90.2293 47.362 94.3166L86.6704 88.0254C86.8471 84.4951 87.1321 80.7724 87.5576 76.8855C87.9671 73.1348 88.4689 69.5684 89.0349 66.1903C90.4118 66.0701 91.9613 65.8297 93.6313 65.3889C97.5533 64.3591 100.568 62.648 102.615 61.2215H102.623Z" fill="#936EA0"/>
<path id="Vector_20" d="M88.9586 65.6173C88.8342 65.6013 88.7619 65.5131 88.778 65.413C89.059 63.1489 89.4283 60.8488 89.8739 58.5807C90.3034 56.4169 90.8132 54.229 91.3953 52.0851C91.4234 51.989 91.5238 51.9288 91.6201 51.9529C91.7205 51.9809 91.7767 52.0811 91.7526 52.1773C91.1745 54.3131 90.6647 56.493 90.2392 58.6489C89.7896 60.9089 89.4243 63.201 89.1433 65.457C89.1312 65.5492 89.0509 65.6173 88.9626 65.6173H88.9586Z" fill="#7C5282"/>
<path id="Vector_21" d="M69.8303 22.6525C69.485 22.5483 69.208 22.4 68.9913 22.2518C67.2812 21.0697 67.4257 18.477 67.4498 18.1244C67.6786 18.0843 68.3891 17.9962 69.1438 18.3929C69.2723 18.461 70.031 18.8697 70.3842 19.7553C70.7656 20.709 70.5488 21.835 69.8303 22.6525Z" fill="#5F3B57"/>
<path id="Vector_22" d="M70.4324 14.1814C69.9065 19.2985 69.469 23.474 69.2562 26.816C69.1559 28.3828 68.9752 31.328 66.9801 33.2434C66.7593 33.4598 66.5385 33.6241 66.4141 33.7123C69.1197 38.581 73.9289 40.7809 77.6703 39.4505C80.1913 38.5529 81.5722 36.2889 82.1061 35.2711C80.8015 34.3254 80.2515 33.4959 80.0428 32.7305C79.8902 32.1695 79.9866 31.288 80.0187 30.6949C80.0468 30.174 80.0909 29.7452 80.1311 29.4487C80.1792 29.1 80.2274 28.7474 80.2756 28.3988C78.9669 26.5314 77.6301 24.4758 76.3094 22.2278C74.8281 19.7072 73.5636 17.2829 72.4837 15.0068L70.4324 14.1814Z" fill="#FEB695"/>
<path id="Vector_23" d="M80.1752 29.1L80.1311 29.4487C80.0869 29.7292 80.0428 30.1259 80.0147 30.6107C78.9147 30.8151 78.0316 30.7269 77.5177 30.6107C73.668 29.8614 71.9338 25.7581 71.8334 25.4936C72.4516 26.2429 74.9205 29.1161 78.6056 29.2323C79.1917 29.2483 79.7056 29.1882 80.1793 29.1H80.1752Z" fill="#DB7E65"/>
<path id="Vector_24" d="M79.4125 29.4967C81.6887 29.2323 83.1539 27.8338 83.752 27.2687C85.5585 25.5577 86.1727 23.482 86.3975 22.6405C86.4617 22.4 86.5139 22.1877 86.5621 21.9993C87.096 19.9717 88.1678 9.95379 86.6424 6.57976C86.3694 5.9907 85.8154 4.74848 84.591 3.59842C81.7208 0.901603 77.2167 0.633123 73.9249 1.99155C73.4271 2.19191 73.0257 2.4083 72.7487 2.56458C72.7487 2.56458 72.5681 2.66876 72.3995 2.77295C70.7415 3.8108 69.75 6.39943 69.75 6.39943C68.8588 8.7276 68.8749 10.8314 68.8869 11.5086C68.9833 17.1627 69.0876 23.3177 72.6724 26.856C73.1501 27.3289 74.3625 28.523 76.3295 29.1441C76.9076 29.3244 78.0075 29.661 79.4085 29.5007L79.4125 29.4967Z" fill="#FEB695"/>
<path id="Vector_25" d="M76.3054 15.5558C76.2813 15.9846 75.9241 16.3132 75.5146 16.2891C75.1011 16.2651 74.788 15.9004 74.8121 15.4717C74.8362 15.0429 75.1894 14.7183 75.6029 14.7384C76.0164 14.7624 76.3335 15.1271 76.3094 15.5558H76.3054Z" fill="#232323"/>
<path id="Vector_26" d="M84.9483 16.0407C84.9242 16.4695 84.571 16.798 84.1575 16.774C83.744 16.75 83.4309 16.3853 83.455 15.9565C83.4791 15.5278 83.8323 15.2032 84.2458 15.2272C84.6593 15.2513 84.9724 15.6159 84.9483 16.0407Z" fill="#232323"/>
<path id="Vector_27" d="M82.3871 13.3479C82.7324 13.7526 83.4309 13.2557 84.3501 13.4481C85.1089 13.6083 85.8515 14.2054 86.1285 14.0972C86.1606 14.0852 86.2489 14.0491 86.277 13.973C86.3091 13.8848 86.2449 13.7927 86.2208 13.7566C85.5665 12.7588 84.4184 12.5945 84.4184 12.5945C83.4268 12.4182 82.3189 12.847 82.3109 13.1876C82.3109 13.2557 82.351 13.3078 82.3871 13.3479Z" fill="#5F3B57"/>
<path id="Vector_28" d="M77.7104 12.7909C77.7265 12.4142 76.5984 11.8292 75.5427 11.9293C75.5427 11.9293 74.3183 12.0015 73.5475 13.0473C73.5194 13.0834 73.4472 13.1796 73.4713 13.2797C73.4913 13.3679 73.5837 13.416 73.6158 13.432C73.9008 13.5803 74.7318 12.9872 75.5467 12.883C76.5302 12.7548 77.2207 13.3759 77.6181 12.9592C77.6582 12.9191 77.7064 12.863 77.7104 12.7869V12.7909Z" fill="#5F3B57"/>
<path id="Vector_29" d="M79.7015 20.3844C79.5891 20.3764 79.5008 20.2883 79.4928 20.1761C79.4888 20.0559 79.5811 19.9517 79.7015 19.9477C80.3519 19.9196 81.1507 19.7673 81.2591 19.595C81.2832 19.4708 81.0664 18.8657 80.8898 18.3809C80.5566 17.4592 80.1391 16.3132 80.2314 15.5157C80.2435 15.3955 80.3559 15.3034 80.4763 15.3234C80.5967 15.3354 80.6851 15.4476 80.669 15.5678C80.5887 16.2651 80.9861 17.355 81.3033 18.2326C81.6405 19.1663 81.785 19.591 81.6324 19.8315C81.3474 20.2803 80.099 20.3724 79.6975 20.3885L79.7015 20.3844Z" fill="#DB7E65"/>
<path id="Vector_30" d="M75.6832 18.6734C75.627 19.6511 74.788 20.3965 73.8125 20.3444C72.833 20.2883 72.0863 19.4508 72.1385 18.477C72.1907 17.5033 73.0337 16.754 74.0092 16.8061C74.9887 16.8622 75.7354 17.6997 75.6792 18.6734H75.6832Z" fill="#FEAB90"/>
<path id="Vector_31" d="M86.8471 19.3025C86.7909 20.2803 85.9519 21.0256 84.9724 20.9695C83.9929 20.9134 83.2462 20.0759 83.3024 19.1021C83.3586 18.1244 84.1976 17.3791 85.1731 17.4312C86.1526 17.4873 86.8993 18.3248 86.8471 19.3025Z" fill="#FEAB90"/>
<path id="Vector_32" d="M76.6185 21.6988C76.4017 22.2478 76.9999 23.0813 77.4334 23.482C77.9151 23.9268 78.4129 24.035 78.6538 24.0871C78.8826 24.1352 79.3402 24.2193 79.9023 24.043C80.4602 23.8627 81.3233 23.3618 81.3394 22.7647C81.3474 22.5283 80.0106 22.3079 78.9709 22.0554C77.9754 21.815 76.7108 21.4664 76.6225 21.6988H76.6185Z" fill="white"/>
<path id="Vector_33" d="M74.4709 5.85045C74.2541 6.46755 73.8647 7.37317 73.1381 8.29482C72.1225 9.58512 71.3075 9.82155 70.6251 10.9395C70.2598 11.5406 69.8704 12.4983 69.9226 13.989L66.5987 13.7125C66.0929 11.9974 66.0166 10.5629 66.0367 9.61317C66.121 5.47778 68.1282 3.0254 68.7986 2.41631C68.9592 2.27205 69.3164 1.94346 69.8865 1.79119C70.5207 1.61888 71.0787 1.75112 71.3597 1.83928C71.4159 1.64292 71.5243 1.33838 71.7732 1.06589C72.1225 0.677197 72.568 0.528932 72.8932 0.448789C75.9722 -0.308565 78.5454 0.120201 78.5454 0.120201C81.0985 0.544961 82.8889 1.47062 83.9327 2.0196C86.0201 3.12157 87.104 3.65452 87.8908 4.98089C87.9149 5.02096 87.951 5.08107 87.9952 5.16121C88.224 5.57796 89.059 7.2249 88.5612 9.17239C88.3083 10.1541 87.8065 10.8754 87.4091 11.3282C87.3328 10.6671 87.2284 9.9618 87.0879 9.21646C86.9474 8.49918 86.7909 7.82999 86.6223 7.20888C86.0723 7.3371 85.4942 7.44129 84.8881 7.51743C80.6489 8.05439 76.9878 6.95642 74.4709 5.84644V5.85045Z" fill="#5F3B57"/>
<path id="Vector_34" d="M74.0935 5.66613C74.1296 5.66613 74.1658 5.65812 74.1939 5.63808C74.2621 5.58999 74.2822 5.48981 74.23 5.42169C73.8687 4.91679 73.4873 4.39987 73.0939 3.89096C72.6524 3.32194 72.1907 2.75292 71.725 2.20795C71.6688 2.14383 71.5725 2.13582 71.5043 2.18791C71.44 2.24401 71.432 2.34018 71.4882 2.40831C71.9499 2.95328 72.4075 3.51428 72.8451 4.0833C73.2344 4.5882 73.6158 5.10112 73.9731 5.60202C74.0012 5.64209 74.0453 5.66212 74.0895 5.66613H74.0935Z" fill="#42253E"/>
<path id="Vector_35" d="M65.7838 14.9628C65.4988 16.6017 67.0122 18.5892 69.6778 19.8475L69.9989 14.1573C69.2884 13.2237 68.2567 12.7909 67.3936 13.0113C66.4542 13.2477 65.9123 14.2415 65.7838 14.9628Z" fill="#FEB695"/>
<path id="Vector_36" d="M67.3133 14.8065C67.799 14.8626 68.2807 15.095 68.5818 15.4957C68.8869 15.8884 68.9873 16.4174 68.8869 16.8902C68.8789 16.9223 68.8468 16.9423 68.8146 16.9383C68.7825 16.9303 68.7625 16.9022 68.7665 16.8702C68.7906 16.7099 68.7865 16.5496 68.7665 16.3893C68.6139 16.2771 68.4253 16.205 68.2406 16.209C68.0439 16.209 67.8552 16.3011 67.7187 16.4454C67.6826 16.4815 67.6264 16.4815 67.5903 16.4454C67.5541 16.4093 67.5541 16.3492 67.5903 16.3132C67.7589 16.1449 67.9997 16.0407 68.2406 16.0447C68.4253 16.0447 68.5898 16.1168 68.7424 16.209C68.6902 15.9846 68.5898 15.7762 68.4493 15.5999C68.1724 15.2553 67.7428 15.0349 67.3012 14.9748C67.2531 14.9708 67.2169 14.9227 67.2209 14.8786C67.229 14.8305 67.2691 14.7985 67.3173 14.8025L67.3133 14.8065Z" fill="#DB7E65"/>
<path id="Vector_37" d="M108.167 77.4545C108.167 76.7172 108.573 76.072 109.195 75.7675C110.066 75.3427 110.881 75.8596 110.933 75.8957C110.973 75.7274 111.074 75.4229 111.339 75.1784C111.752 74.7977 112.394 74.7336 112.984 75.0061C113.249 74.6294 113.691 74.1165 114.369 73.7238C114.719 73.5235 115.233 73.2309 115.955 73.2309C116.613 73.2309 117.111 73.4754 117.36 73.6236C117.541 72.5457 118.352 71.7884 119.219 71.7723C120.078 71.7563 120.644 72.4776 120.716 72.5738C120.857 72.5016 121.728 72.0608 122.695 72.4616C123.329 72.726 123.667 73.2149 123.791 73.4153C123.819 73.3872 124.249 73.0065 124.763 73.1628C125.212 73.2991 125.529 73.7879 125.489 74.3409C125.806 74.3169 126.794 74.2888 127.661 74.9781C127.874 75.1464 128.311 75.507 128.56 76.1682C128.797 76.8013 128.717 77.3663 128.697 77.4585H108.159L108.167 77.4545Z" fill="#C65B46"/>
<path id="Vector_38" d="M134.843 86.3183H102.057C101.331 86.3183 100.869 85.553 101.202 84.9078C102.395 82.6077 104.02 80.2074 106.252 77.9834C106.594 77.6428 106.935 77.3223 107.28 77.0137H129.355C129.809 77.2982 130.266 77.6228 130.72 77.9834C133.389 80.1152 134.887 82.8081 135.75 85.024C135.995 85.6491 135.517 86.3183 134.847 86.3183H134.843Z" fill="#5F3B57"/>
<path id="Vector_39" d="M75.3299 71.6401L68.7785 62.2313L56.1574 69.7768C57.2011 71.3315 58.3693 72.9504 59.67 74.6094C61.4965 76.9376 63.323 78.9972 65.0693 80.8085L75.3339 71.6361L75.3299 71.6401Z" fill="#FEB695"/>
<path id="Vector_40" d="M105.197 89.4038C105.301 89.472 105.963 89.8727 106.758 89.6363C106.919 89.5882 107.581 89.3878 107.698 88.951C107.874 88.2938 106.646 87.7529 105.124 86.154C104.446 85.4408 102.627 83.5253 103.161 82.3913C103.282 82.1348 103.487 81.9986 103.563 81.9505C104.595 81.2853 106.076 82.7319 107.019 82.1148C107.405 81.8664 107.493 81.4055 107.501 81.3615C107.722 80.1473 105.257 78.8249 104.297 78.312C96.7987 74.3249 82.7565 73.1668 72.5641 70.9549C71.1912 70.6583 68.0118 69.929 65.7035 71.6241C63.8971 72.9504 63.4756 75.2505 63.4394 75.4549C63.3592 75.9157 63.0621 77.6388 63.9734 79.3819C63.9734 79.3819 64.6237 80.6322 65.9404 81.5458C69.7219 84.1745 80.2555 83.8098 85.6468 84.0623C88.6656 84.2025 92.9088 84.6634 97.9989 86.134C99.3839 87.4403 100.624 88.382 101.552 89.0232C102.467 89.6603 103.222 90.1051 104.097 89.9488C104.599 89.8607 104.972 89.6002 105.201 89.4038H105.197Z" fill="#FEB695"/>
<path id="Vector_41" d="M104.37 88.8829C104.281 88.8068 104.197 88.7266 104.113 88.6505C103.679 88.2418 103.282 87.789 102.933 87.3081C102.888 87.248 102.904 87.1678 102.961 87.1238C103.021 87.0797 103.101 87.0957 103.145 87.1518C103.483 87.6207 103.868 88.0574 104.293 88.4582C104.546 88.6986 104.815 88.923 105.096 89.1314C105.161 89.1834 105.165 89.2556 105.124 89.3157C105.08 89.3718 105 89.3838 104.94 89.3437C104.747 89.1995 104.558 89.0472 104.374 88.8869L104.37 88.8829Z" fill="#DB7E65"/>
<path id="Vector_42" d="M72.6764 72.5617C72.6202 72.5617 72.568 72.5257 72.544 72.4696C72.5159 72.3974 72.552 72.3173 72.6242 72.2892L74.6475 71.5319C74.7237 71.5078 74.8 71.5399 74.8281 71.612C74.8562 71.6842 74.8201 71.7643 74.7478 71.7923L72.7246 72.5497C72.7246 72.5497 72.6925 72.5577 72.6764 72.5577V72.5617Z" fill="#E0705A"/>
<path id="Vector_43" d="M105.241 78.7929C102.415 77.6468 99.5565 76.6851 96.6862 75.9238C95.7469 75.6753 94.8115 75.4509 93.9083 75.2505C93.832 75.2345 93.7839 75.1584 93.8039 75.0863C93.82 75.0101 93.8963 74.962 93.9685 74.9821C94.8758 75.1824 95.8151 75.4068 96.7585 75.6553C99.6408 76.4166 102.511 77.3824 105.297 78.5244C105.369 78.5525 105.401 78.6366 105.373 78.7047C105.353 78.7608 105.297 78.7889 105.245 78.7889L105.241 78.7929Z" fill="#E0705A"/>
<path id="Vector_44" d="M127.597 86.4025C127.87 86.8152 128.343 87.0436 128.821 86.9915C129.463 86.9234 129.78 86.3864 129.809 86.3344C129.877 86.4145 130.202 86.7591 130.72 86.7832C130.804 86.7832 131.061 86.7952 131.31 86.6549C131.908 86.3263 132.012 85.4287 131.9 84.8437C131.848 84.5632 131.76 84.1024 131.35 83.874C130.908 83.6295 130.423 83.8539 130.379 83.874C129.941 84.0863 129.672 84.5832 129.704 85.1362C129.708 84.6674 129.463 84.2426 129.07 84.0423C129.018 84.0142 128.524 83.7738 128.058 84.0423C127.673 84.2627 127.464 84.7355 127.552 85.2204C127.36 84.7074 126.966 84.3628 126.541 84.3348C126.24 84.3147 126.015 84.459 125.951 84.5031C125.3 84.9359 125.1 86.1821 125.654 86.691C125.903 86.9194 126.236 86.9354 126.372 86.9434C127.063 86.9755 127.524 86.4746 127.597 86.3945V86.4025Z" fill="#FEB695"/>
<path id="Vector_45" d="M61.1673 49.1038L71.0386 63.1249C69.4529 64.8159 66.9279 67.124 63.319 69.0595C60.0353 70.8266 57.0084 71.6641 54.8407 72.0929L51.9303 67.673L61.1673 49.1038Z" fill="#936EA0"/>
<path id="Vector_46" d="M70.8178 63.4574C70.7576 63.4574 70.6974 63.4254 70.6612 63.3733L61.645 49.2921C61.5888 49.208 61.6169 49.0918 61.7012 49.0397C61.7855 48.9836 61.8979 49.0116 61.9541 49.0958L70.9703 63.1769C71.0266 63.2611 71.0025 63.3773 70.9141 63.4294C70.882 63.4494 70.8499 63.4574 70.8138 63.4574H70.8178Z" fill="#7C5282"/>
<path id="Vector_47" d="M55.1177 71.9246C55.0615 71.9246 55.0053 71.8966 54.9692 71.8485L51.7617 67.3725C51.7015 67.2923 51.7216 67.1761 51.8059 67.116C51.8861 67.0559 52.0026 67.0759 52.0628 67.1601L55.2702 71.6361C55.3305 71.7162 55.3104 71.8324 55.2261 71.8925C55.194 71.9166 55.1578 71.9286 55.1217 71.9286L55.1177 71.9246Z" fill="#7C5282"/>
<path id="Vector_48" d="M215.129 137.334C215.202 137.358 215.294 137.31 215.29 137.225C215.194 135.831 214.856 134.496 214.303 133.222C214.523 133.431 214.744 133.643 214.961 133.851C215.045 133.931 215.19 133.851 215.158 133.735C214.812 132.533 214.23 131.439 213.439 130.489C213.54 130.517 213.636 130.381 213.552 130.301C212.661 129.451 211.773 128.602 210.882 127.752C211.328 127.752 211.773 127.752 212.219 127.752C212.335 127.752 212.38 127.592 212.279 127.532C211.464 127.059 210.714 126.506 210.015 125.877C210.24 125.897 210.469 125.913 210.694 125.933C210.81 125.941 210.85 125.769 210.754 125.713C209.963 125.276 209.188 124.815 208.426 124.338C208.446 124.35 208.47 124.362 208.49 124.37C208.602 124.426 208.739 124.274 208.63 124.186C207.426 123.18 206.226 122.174 205.021 121.173C205.122 121.165 205.182 121.028 205.074 120.964C204.68 120.72 204.291 120.479 203.897 120.235C203.857 120.211 203.813 120.223 203.781 120.247C202.677 119.59 201.633 118.84 200.646 118.015C201.376 118.243 202.111 118.388 202.89 118.219C202.986 118.199 203.006 118.047 202.918 118.003C202.091 117.598 201.308 117.113 200.594 116.528C200.26 116.256 199.943 115.967 199.642 115.659C199.309 115.318 199.028 114.841 198.675 114.533C198.06 113.996 197.262 113.607 196.603 113.11C195.853 112.549 195.146 111.94 194.456 111.303L195.969 111.415C196.089 111.423 196.122 111.255 196.029 111.195C194.56 110.273 193.231 109.163 192.047 107.905C192.063 107.913 192.079 107.925 192.095 107.933C192.224 108.013 192.34 107.809 192.216 107.729C190.381 106.603 188.767 105.184 187.394 103.529C187.752 103.589 188.109 103.649 188.466 103.709C188.567 103.725 188.683 103.597 188.583 103.513C187.414 102.567 186.343 101.526 185.363 100.392C185.757 100.576 186.17 100.7 186.62 100.76C186.724 100.776 186.832 100.652 186.736 100.564C186.074 99.9667 185.407 99.3697 184.745 98.7766C184.428 98.4921 184.115 98.2076 183.798 97.9231C183.641 97.7828 183.48 97.6386 183.324 97.4983C183.26 97.4422 183.199 97.3861 183.135 97.326C182.987 97.2379 182.959 97.1056 183.035 96.9333C183.059 96.9534 183.083 96.9734 183.107 96.9934C183.175 97.0455 183.292 96.9774 183.284 96.8933C183.268 96.7209 183.155 96.6448 183.035 96.6368C182.095 95.8995 181.256 95.062 180.526 94.1323C180.201 93.5793 179.875 93.0303 179.554 92.4613C177.912 89.5401 176.881 86.7872 176.062 84.2787C176.146 84.2346 176.234 84.1865 176.319 84.1425C176.391 84.1304 176.423 84.0423 176.411 83.9822C176.122 82.6277 175.64 81.3414 175.002 80.1193L175.127 80.2074C175.243 80.2916 175.355 80.1353 175.307 80.0271C174.998 79.3779 174.693 78.7288 174.384 78.0796C174.468 78.1638 174.649 78.0716 174.597 77.9514C174.119 76.8053 173.34 75.8757 172.501 74.9861C172.565 75.0101 172.63 75.0382 172.694 75.0622C172.786 75.1744 172.987 75.0262 172.899 74.9059C172.891 74.8979 172.883 74.8899 172.878 74.8819C172.284 74.0604 171.554 73.3832 170.711 72.8423C170.743 72.8543 170.779 72.8583 170.811 72.8703C170.936 72.9224 171.028 72.7341 170.94 72.6539C170.257 72.0248 169.442 71.6321 168.551 71.4998C168.587 71.4317 168.579 71.3356 168.483 71.3155C167.8 71.1632 167.126 71.1312 166.448 71.2073C166.431 71.2073 166.415 71.1993 166.395 71.1953C166.548 71.0671 166.7 70.9429 166.853 70.8146C166.945 70.7385 166.865 70.5982 166.761 70.5902C165.837 70.5301 164.946 70.6744 164.095 70.9949L164.328 70.7585C164.42 70.6664 164.328 70.5101 164.199 70.5421C163.36 70.7465 162.642 71.1472 162.02 71.7323C159.262 73.1788 157.467 76.3004 154.573 76.5369C150.751 76.8454 148.303 77.0017 146.966 78.3681C146.665 78.6767 146.267 79.3699 146.267 79.3699C144.597 83.341 147.062 85.3486 147.062 85.3486C149.399 88.9871 156.367 87.248 160.41 91.2912C162.008 92.8901 162.289 94.7775 162.072 97.1056C162.012 97.0535 161.907 97.0535 161.887 97.1537C161.646 98.3519 161.297 99.5139 160.831 100.644C160.787 100.748 160.924 100.812 161.004 100.776C161.096 100.732 161.181 100.684 161.261 100.632C160.9 101.538 160.53 102.435 160.141 103.329C160.097 103.429 160.193 103.557 160.302 103.489C160.534 103.345 160.731 103.18 160.904 102.988C160.763 103.918 160.486 104.803 160.065 105.653C160.013 105.761 160.117 105.865 160.225 105.813C160.378 105.737 160.506 105.653 160.619 105.553C160.31 106.639 160 107.725 159.691 108.811C159.663 108.903 159.776 109.003 159.864 108.943C160.013 108.843 160.137 108.73 160.253 108.606C160.185 109.44 160.097 110.273 159.98 111.099C159.968 111.171 160.021 111.223 160.077 111.239C159.984 112.153 160.017 113.066 160.177 113.984C160.197 114.1 160.378 114.092 160.402 113.984C160.402 113.972 160.41 113.96 160.41 113.948C160.486 115.054 160.719 116.132 161.124 117.178C161.161 117.274 161.281 117.274 161.333 117.214C161.438 117.538 161.542 117.863 161.65 118.191C165.131 130.79 175.014 140.98 169.94 153.186C169.94 153.186 166.403 154.2 166.439 156.732C166.46 158.227 172.662 159.129 174.111 157.882C178.747 153.891 176.479 129.98 176.479 129.98C176.515 129.96 176.556 129.94 176.596 129.92C177.094 130.173 177.619 130.277 178.181 130.225C178.258 130.217 178.314 130.157 178.294 130.077L178.214 129.744C178.491 129.892 178.764 130.041 179.041 130.189C179.113 130.225 179.229 130.181 179.217 130.089C179.213 130.041 179.201 129.992 179.189 129.944C179.566 130.325 180.024 130.61 180.554 130.782C180.65 130.814 180.739 130.694 180.686 130.61C180.586 130.449 180.514 130.285 180.454 130.113C180.859 130.533 181.313 130.894 181.883 131.086C181.983 131.118 182.063 130.998 182.015 130.914C181.955 130.814 181.903 130.71 181.855 130.61C181.867 130.614 181.875 130.618 181.887 130.622C182.148 131.046 182.485 131.455 182.882 131.683C183.007 131.756 183.163 131.812 183.272 131.683C183.328 131.619 183.308 131.543 183.316 131.467C183.32 131.395 183.316 131.331 183.316 131.271C183.344 131.283 183.372 131.299 183.4 131.311C183.577 131.748 183.838 132.128 184.283 132.365C184.372 132.409 184.488 132.333 184.456 132.232C184.412 132.088 184.396 131.956 184.396 131.82C184.456 131.852 184.516 131.884 184.572 131.916C184.729 132.264 184.958 132.577 185.275 132.83C185.363 132.902 185.504 132.838 185.471 132.713C185.443 132.613 185.435 132.521 185.427 132.425C185.572 132.653 185.777 132.838 186.05 132.954C182.71 135.743 181.264 139.658 182.782 144.126C184.436 149.002 193.713 151.803 192.846 152.441C191.421 153.482 187.864 151.663 183.504 152.773C181.521 153.278 180.743 156.007 181.614 157.281C182.397 158.423 209.682 160.479 210.818 156.981C211.517 154.821 210.236 153.15 210.236 153.15C211.93 150.301 213.146 147.953 213.841 145.248C213.901 145.272 213.977 145.26 214.009 145.184C214.563 143.813 214.712 142.347 214.471 140.916C214.479 140.744 214.491 140.575 214.495 140.399L214.945 140.964C215.001 141.032 215.121 140.992 215.142 140.912C215.439 139.714 215.431 138.496 215.133 137.326L215.129 137.334Z" fill="#86554A"/>
<path id="Vector_49" d="M224.664 162.078C224.664 161.982 224.664 161.885 224.664 161.789C224.672 161.793 224.68 161.797 224.688 161.801C224.732 161.821 224.796 161.825 224.828 161.781C225.474 160.968 224.828 160.114 224.583 159.277C224.427 158.74 224.379 158.179 224.134 157.666C223.905 157.189 223.548 156.784 223.158 156.428C222.44 155.766 221.597 155.061 220.637 154.793C219.501 154.104 218.281 153.538 217.237 152.709C214.873 150.83 213.215 147.768 212.693 144.819C212.693 144.803 212.685 144.787 212.673 144.775C212.641 144.711 212.564 144.707 212.512 144.751C212.5 144.759 212.484 144.759 212.476 144.771C210.955 146.758 210.296 149.303 210.553 151.783C210.593 152.16 210.662 152.529 210.742 152.885C210.686 153.863 210.918 154.821 211.444 155.682C211.513 155.791 211.641 155.73 211.653 155.626C211.99 156.476 212.428 157.273 212.978 158.01C213.05 158.107 213.187 158.071 213.199 157.95C213.211 157.826 213.223 157.698 213.235 157.574C213.552 158.227 213.941 158.828 214.427 159.381C214.491 159.453 214.64 159.401 214.628 159.297C214.612 159.173 214.608 159.052 214.604 158.936C214.64 158.972 214.68 159.012 214.716 159.048C214.993 159.641 215.334 160.194 215.748 160.715C215.824 160.812 215.976 160.707 215.944 160.599C215.912 160.483 215.888 160.375 215.868 160.263C215.892 160.291 215.92 160.323 215.944 160.355C216.201 161.112 216.551 161.829 216.996 162.511C217.056 162.603 217.225 162.575 217.217 162.45C217.213 162.374 217.205 162.298 217.201 162.226C217.217 162.254 217.229 162.286 217.245 162.314C217.638 163.713 217.779 165.235 216.619 166.313C216.547 166.377 216.599 166.522 216.703 166.514C216.996 166.486 217.241 166.422 217.482 166.297C217.442 166.446 217.398 166.59 217.349 166.734C217.068 167.351 216.599 167.852 215.968 168.189C215.88 168.237 215.9 168.381 215.997 168.405C216.133 168.433 216.233 168.361 216.346 168.385C216.39 168.361 216.434 168.337 216.482 168.317C216.518 168.337 216.547 168.361 216.575 168.381C216.229 168.958 215.824 169.507 215.386 170.032C215.073 170.244 214.732 170.425 214.379 170.569C214.282 170.609 214.25 170.773 214.379 170.793C214.475 170.809 214.571 170.829 214.668 170.845C214.579 170.942 214.487 171.038 214.395 171.134C213.825 171.611 213.199 172 212.504 172.3C212.416 172.34 212.436 172.5 212.532 172.516C212.669 172.536 212.805 172.557 212.942 172.577C212.902 172.617 212.857 172.657 212.817 172.697C212.263 173.23 211.709 173.763 211.183 174.324C211.179 174.332 211.171 174.336 211.163 174.344C211.147 174.352 211.131 174.364 211.115 174.372C211.087 174.388 211.075 174.412 211.067 174.44C210.818 174.688 210.513 174.977 210.34 175.297C210.083 175.498 209.831 175.71 209.566 175.906C209.489 175.963 209.493 176.051 209.566 176.111C210.252 176.636 211.135 176.728 211.898 176.395C212.006 176.387 212.103 176.375 212.191 176.367C212.199 176.608 212.167 176.836 212.099 177.085C212.071 177.181 212.183 177.269 212.271 177.217C212.797 176.9 213.267 176.528 213.7 176.107C213.845 176.071 213.993 176.035 214.138 175.991C214.138 176.235 214.146 176.484 214.15 176.728C214.15 176.836 214.274 176.876 214.351 176.812C214.913 176.331 215.427 175.814 215.912 175.265C216.089 175.173 216.262 175.073 216.438 174.969C216.446 175.309 216.438 175.654 216.402 175.999C216.39 176.099 216.539 176.151 216.603 176.083C217.201 175.438 217.675 174.716 218.036 173.927C218.036 174.083 218.044 174.24 218.048 174.4C218.048 174.496 218.18 174.564 218.249 174.484C218.602 174.071 218.915 173.63 219.2 173.17C219.264 173.334 219.304 173.506 219.296 173.687C219.296 173.779 219.429 173.855 219.497 173.771C220.115 172.989 220.609 172.144 220.986 171.23C221.023 171.471 221.055 171.707 221.091 171.947C221.107 172.048 221.263 172.064 221.308 171.975C221.729 171.098 222.058 170.196 222.311 169.259C222.359 169.335 222.403 169.411 222.452 169.487C222.5 169.567 222.604 169.559 222.656 169.487C223.363 168.489 223.772 167.367 223.885 166.161C223.909 166.161 223.933 166.165 223.965 166.161C224.302 166.085 224.527 165.292 224.66 165.031C224.949 164.474 225.077 164.137 225.001 163.492C224.945 163.003 224.828 162.531 224.676 162.066L224.664 162.078Z" fill="#86554A"/>
<path id="Vector_50" d="M147.777 77.751C147.777 77.751 148.889 77.9033 148.813 78.7448C148.752 79.3739 147.536 80.0271 147.106 80.0191C146.821 80.011 146.255 79.8227 146.255 79.3779C146.255 79.3779 146.749 78.1878 147.777 77.755V77.751Z" fill="#473835"/>
<path id="Vector_51" d="M157.768 76.088C157.544 76.4287 157.576 76.8454 157.837 77.0177C158.102 77.19 158.495 77.0498 158.72 76.7091C158.945 76.3685 158.913 75.9518 158.652 75.7795C158.387 75.6072 157.993 75.7474 157.768 76.088Z" fill="#473835"/>
<path id="Vector_52" d="M170.085 73.3151C168.956 72.5176 167.343 72.177 166.203 72.7781C166.195 72.7781 166.191 72.7861 166.183 72.7901C166.171 72.7941 166.154 72.7901 166.142 72.8022C166.126 72.8182 166.114 72.8342 166.094 72.8462C165.613 73.1347 165.275 73.5755 165.018 74.1566C164.81 74.5052 164.629 74.8658 164.484 75.2505C164.264 75.8356 164.107 76.4447 163.975 77.0538C163.906 77.3703 163.686 77.8432 163.858 78.1517C163.714 78.845 163.537 79.5262 163.312 80.1994C163.284 80.2795 163.373 80.3757 163.457 80.3436C163.581 80.2956 163.682 80.2435 163.782 80.1793C163.69 80.7484 163.497 81.2573 163.176 81.7542C163.132 81.8223 163.188 81.9425 163.276 81.9305C163.89 81.8543 162.935 83.1527 162.726 83.329C162.626 83.4131 162.738 83.5414 162.839 83.5253C162.883 83.5173 162.931 83.5133 162.975 83.5053C162.662 84.0142 162.208 84.3548 161.606 84.4951C161.506 84.5191 161.494 84.6594 161.578 84.7114C162.064 85 160.791 85.605 160.546 85.6892C160.482 85.7092 160.45 85.7693 160.466 85.8335C160.534 86.1941 161.57 86.9715 161.149 87.3001C161.076 87.3562 161.124 87.4724 161.201 87.4964C161.486 87.5806 161.731 87.5886 161.996 87.5205C161.903 87.817 161.743 88.0574 161.478 88.2578C161.418 88.3059 161.385 88.4221 161.478 88.4622C161.755 88.5824 161.984 88.6064 162.277 88.5383C162.409 88.5062 162.546 88.4221 162.678 88.398C162.863 88.2738 163.059 88.2858 163.26 88.4381C163.244 88.4862 163.232 88.5343 163.228 88.5864C163.288 88.6745 163.256 88.7627 163.352 88.8268C163.457 88.8949 163.485 88.8428 163.565 88.8589C163.629 88.8348 163.69 88.7988 163.742 88.7587C163.874 88.6465 163.935 88.7787 163.931 89.1594C163.874 89.2275 163.898 89.3718 164.015 89.3598C164.537 89.3037 165.006 89.1514 165.444 88.911C165.524 88.927 165.604 88.943 165.689 88.959C165.629 89.1193 165.556 89.2756 165.472 89.4319C165.428 89.512 165.504 89.6483 165.604 89.6042C165.97 89.4519 166.319 89.2756 166.664 89.0913C166.773 89.0993 166.885 89.1033 166.993 89.1073V89.1313C166.993 89.2075 167.07 89.2676 167.142 89.2436C167.295 89.1995 167.443 89.1474 167.588 89.0913C168.451 89.0352 169.258 88.7988 169.904 88.3139C170.165 88.1175 170.374 87.8771 170.55 87.5806C170.594 87.5806 170.638 87.5686 170.663 87.5325C171.072 86.9394 171.249 86.2823 171.213 85.577C171.269 85.6251 171.321 85.6812 171.365 85.7413C171.425 85.8094 171.538 85.7693 171.562 85.6892C171.831 84.7195 171.843 83.7377 171.606 82.776C171.646 82.8241 171.69 82.8722 171.73 82.9162C171.803 83.0004 171.923 82.9243 171.931 82.8321C172.06 81.4977 172.048 80.1633 171.907 78.8329C171.947 78.853 171.983 78.873 172.023 78.889C172.096 78.9251 172.208 78.885 172.2 78.7889C172.007 76.7131 172.003 74.4691 170.068 73.3111L170.085 73.3151Z" fill="#473835"/>
<path id="Vector_53" d="M186.315 132.842C187.764 131.547 189.542 130.654 191.405 130.093C193.267 129.532 195.214 129.299 197.157 129.219" fill="#77433C"/>
<path id="Vector_54" d="M210.027 152.982C208.686 152.256 207.141 151.964 205.628 152.152C205.479 152.172 205.479 152.405 205.628 152.388C207.101 152.204 208.602 152.481 209.907 153.186C210.039 153.258 210.16 153.054 210.027 152.982Z" fill="#77433C"/>
<path id="Vector_55" d="M185.411 152.693C186.375 152.965 186.889 153.903 187.158 154.797C187.202 154.941 187.431 154.881 187.382 154.733C187.085 153.759 186.519 152.761 185.471 152.465C185.327 152.425 185.263 152.649 185.407 152.689L185.411 152.693Z" fill="#77433C"/>
<path id="Vector_56" d="M182.232 157.389C182.208 156.139 182.653 154.805 183.838 154.212C183.974 154.144 183.854 153.939 183.717 154.007C182.461 154.64 181.967 156.063 181.995 157.389C181.995 157.542 182.232 157.542 182.232 157.389Z" fill="#77433C"/>
<path id="Vector_57" d="M184.046 155.686C183.593 156.131 183.336 156.752 183.34 157.385C183.34 157.538 183.577 157.538 183.577 157.385C183.577 156.812 183.806 156.255 184.215 155.855C184.323 155.746 184.155 155.582 184.05 155.69L184.046 155.686Z" fill="#77433C"/>
<path id="Vector_58" d="M192.958 152.28C194.476 153.803 196.635 154.244 198.675 154.628C198.823 154.657 198.887 154.428 198.739 154.404C196.744 154.031 194.616 153.611 193.127 152.116C193.018 152.008 192.854 152.176 192.962 152.28H192.958Z" fill="#77433C"/>
<path id="Vector_59" d="M170.072 153.366C171.325 153.354 172.525 154.071 173.107 155.181C173.176 155.314 173.38 155.197 173.312 155.061C172.694 153.883 171.405 153.118 170.072 153.13C169.92 153.13 169.92 153.366 170.072 153.366Z" fill="#77433C"/>
<path id="Vector_60" d="M167.359 157.47C167.459 156.456 168.045 155.51 168.904 154.961C169.033 154.881 168.912 154.677 168.784 154.757C167.849 155.354 167.234 156.368 167.122 157.47C167.106 157.618 167.343 157.618 167.359 157.47Z" fill="#77433C"/>
<path id="Vector_61" d="M169.334 158.151C169.422 157.253 169.932 156.42 170.687 155.927C170.811 155.843 170.695 155.642 170.566 155.722C169.739 156.267 169.197 157.169 169.097 158.151C169.081 158.299 169.318 158.299 169.334 158.151Z" fill="#77433C"/>
<path id="Vector_62" d="M210.802 152.392C211.28 151.499 211.757 150.609 212.235 149.716C212.476 149.271 212.713 148.822 212.954 148.377C213.142 148.025 213.351 147.676 213.331 147.263C213.323 147.111 213.09 147.111 213.094 147.263C213.118 147.72 212.813 148.137 212.604 148.526C212.38 148.942 212.159 149.359 211.934 149.776C211.488 150.609 211.043 151.443 210.597 152.272C210.525 152.404 210.73 152.525 210.802 152.392Z" fill="#77433C"/>
<path id="Vector_63" d="M176.536 129.808C177.118 124.082 177.567 117.907 174.464 112.766C174.388 112.637 174.183 112.754 174.259 112.886C177.338 117.991 176.877 124.126 176.299 129.812C176.283 129.96 176.519 129.96 176.536 129.812V129.808Z" fill="#77433C"/>
<path id="Vector_64" d="M162.068 114.14C161.887 114.497 161.867 114.901 161.843 115.294C161.811 115.775 161.803 116.26 161.823 116.741C161.863 117.666 162.004 118.584 162.236 119.482C162.273 119.626 162.501 119.566 162.461 119.418C162.244 118.572 162.108 117.71 162.064 116.837C162.044 116.42 162.04 116.003 162.064 115.591C162.084 115.154 162.076 114.653 162.277 114.256C162.345 114.12 162.14 114.004 162.072 114.136L162.068 114.14Z" fill="#77433C"/>
<path id="Vector_65" d="M186.021 132.517C186.013 130.878 187.081 129.548 188.265 128.53C188.382 128.43 188.213 128.265 188.101 128.366C186.868 129.423 185.781 130.818 185.789 132.517C185.789 132.669 186.025 132.669 186.025 132.517H186.021Z" fill="#77433C"/>
<path id="Vector_66" d="M157.716 89.4399C158.423 89.7244 159.178 89.8446 159.936 89.9208C160.747 90.0009 161.574 90.0891 162.389 89.9969C162.538 89.9809 162.538 89.7445 162.389 89.7605C161.602 89.8487 160.803 89.7685 160.017 89.6924C159.254 89.6202 158.491 89.504 157.777 89.2115C157.636 89.1554 157.576 89.3838 157.712 89.4359L157.716 89.4399Z" fill="#77433C"/>
<path id="Vector_67" d="M220.625 157.217C220.726 158.007 220.445 158.772 220.039 159.441C219.959 159.569 220.164 159.69 220.244 159.561C220.669 158.86 220.966 158.047 220.862 157.221C220.842 157.073 220.609 157.073 220.625 157.221V157.217Z" fill="#77433C"/>
<path id="Vector_68" d="M221.38 157.245C221.685 157.638 221.846 158.135 221.846 158.628C221.846 158.78 222.082 158.78 222.082 158.628C222.082 158.063 221.89 157.522 221.548 157.077C221.508 157.025 221.424 157.037 221.384 157.077C221.336 157.125 221.344 157.193 221.384 157.241L221.38 157.245Z" fill="#77433C"/>
<path id="Vector_69" d="M161.955 100.404C162.08 101.225 162.377 101.958 162.863 102.636C162.915 102.708 163.015 102.716 163.067 102.636C163.28 102.295 163.437 101.954 163.561 101.574H163.336C163.477 102.042 163.682 102.459 163.979 102.848C164.031 102.916 164.131 102.928 164.183 102.848C164.42 102.459 164.657 102.074 164.89 101.686H164.685C164.878 101.966 165.091 102.203 165.352 102.423C165.412 102.475 165.492 102.463 165.536 102.399C165.849 101.958 166.062 101.501 166.207 100.985L166.034 101.053C167.066 101.618 168.113 102.191 169.254 102.511C170.486 102.86 171.766 102.844 173.027 102.7C175.508 102.415 177.924 101.742 180.213 100.752C180.349 100.692 180.233 100.492 180.092 100.548C177.844 101.522 175.464 102.187 173.027 102.463C171.827 102.599 170.602 102.631 169.426 102.315C168.266 102.006 167.202 101.421 166.154 100.848C166.086 100.812 166.002 100.844 165.982 100.916C165.841 101.413 165.633 101.854 165.336 102.275C165.396 102.267 165.46 102.259 165.52 102.251C165.271 102.042 165.075 101.826 164.89 101.558C164.842 101.485 164.733 101.477 164.685 101.558C164.448 101.946 164.211 102.331 163.979 102.72H164.183C163.898 102.343 163.698 101.958 163.565 101.501C163.533 101.389 163.373 101.393 163.34 101.501C163.224 101.858 163.067 102.187 162.871 102.507H163.075C162.602 101.85 162.313 101.133 162.192 100.331C162.168 100.183 161.943 100.247 161.967 100.395L161.955 100.404Z" fill="#77433C"/>
<path id="Vector_70" d="M189.06 116.216C189.253 117.246 189.642 118.211 190.224 119.085C190.273 119.157 190.381 119.165 190.429 119.085C190.774 118.496 191.152 117.927 191.553 117.374H191.348C191.714 117.987 192.191 118.508 192.766 118.933C192.858 119.001 192.95 118.889 192.938 118.8C192.866 118.267 193.894 118.672 194.098 118.72C194.379 118.788 194.668 118.832 194.957 118.861C195.576 118.917 196.19 118.873 196.796 118.748C196.944 118.716 196.88 118.492 196.732 118.524C195.764 118.724 194.773 118.688 193.821 118.404C193.556 118.324 193.251 118.199 192.982 118.336C192.766 118.444 192.681 118.636 192.713 118.865C192.77 118.82 192.83 118.776 192.886 118.732C192.34 118.332 191.898 117.839 191.553 117.258C191.505 117.178 191.401 117.19 191.348 117.258C190.943 117.811 190.57 118.38 190.224 118.969H190.429C189.859 118.111 189.478 117.165 189.289 116.156C189.261 116.007 189.036 116.072 189.064 116.22L189.06 116.216Z" fill="#77433C"/>
<path id="Vector_71" d="M204.403 135.086C204.335 135.426 204.211 135.799 204.194 136.143C204.186 136.3 204.255 136.42 204.427 136.424C204.648 136.432 204.977 136.224 205.162 136.123C205.451 135.963 205.712 135.767 205.953 135.546C205.885 135.518 205.82 135.49 205.752 135.462C205.78 135.679 205.788 135.891 205.784 136.103C205.784 136.179 205.86 136.24 205.933 136.216C206.35 136.091 206.732 135.907 207.093 135.663C207.045 135.655 206.996 135.651 206.952 135.643C207.073 135.759 207.017 135.967 207.161 136.079C207.29 136.179 207.466 136.171 207.619 136.131C208.044 136.027 208.462 135.759 208.807 135.494C209.526 134.945 210.059 134.188 210.34 133.33C210.389 133.186 210.16 133.126 210.116 133.266C209.875 134.008 209.429 134.665 208.835 135.17C208.546 135.414 208.221 135.622 207.876 135.779C207.719 135.851 207.398 136.027 207.269 135.827C207.189 135.703 207.241 135.586 207.121 135.47C207.085 135.438 207.021 135.422 206.98 135.45C206.639 135.687 206.278 135.859 205.876 135.979C205.925 136.015 205.977 136.055 206.025 136.091C206.029 135.875 206.021 135.663 205.993 135.45C205.981 135.35 205.872 135.294 205.792 135.366C205.479 135.651 205.126 135.891 204.732 136.059C204.652 136.095 204.504 136.196 204.435 136.123C204.411 136.095 204.496 135.823 204.504 135.791L204.636 135.13C204.664 134.981 204.439 134.917 204.411 135.065L204.403 135.086Z" fill="#77433C"/>
<path id="Vector_72" d="M167.278 124.459C167.238 125.008 167.194 125.557 167.154 126.105C167.146 126.206 167.258 126.238 167.331 126.206C167.543 126.113 167.756 126.021 167.969 125.929C168.073 125.881 168.182 125.837 168.286 125.789C168.342 125.765 168.402 125.733 168.463 125.713C168.555 125.685 168.571 125.673 168.627 125.733C168.692 125.797 168.732 125.929 168.772 126.013C168.82 126.122 168.864 126.23 168.9 126.342C168.94 126.466 168.985 126.606 169.137 126.618C169.274 126.63 169.426 126.522 169.527 126.438C169.595 126.382 169.659 126.318 169.711 126.246C169.731 126.222 169.747 126.194 169.763 126.17C169.812 126.101 169.804 126.081 169.896 126.085C170.004 126.089 170.129 126.194 170.221 126.246C170.317 126.302 170.418 126.358 170.514 126.414C170.723 126.53 170.928 126.646 171.136 126.767C171.269 126.843 171.385 126.638 171.257 126.562C171.04 126.438 170.819 126.314 170.602 126.194C170.406 126.081 170.201 125.933 169.988 125.853C169.836 125.797 169.711 125.845 169.615 125.969C169.551 126.057 169.498 126.146 169.418 126.222C169.366 126.27 169.302 126.314 169.237 126.35C169.157 126.394 169.177 126.378 169.137 126.314C169.085 126.226 169.061 126.101 169.021 126.005C168.977 125.905 168.932 125.805 168.88 125.709C168.812 125.577 168.736 125.44 168.571 125.44C168.37 125.44 168.134 125.605 167.953 125.681L167.21 126.005C167.27 126.037 167.327 126.073 167.387 126.105C167.431 125.557 167.471 125.008 167.511 124.459C167.523 124.306 167.287 124.31 167.274 124.459H167.278Z" fill="#77433C"/>
<path id="Vector_73" d="M184.914 141.87C184.97 142.519 185.191 143.152 185.576 143.685C185.652 143.793 185.74 143.937 185.869 143.985C185.989 144.034 186.106 143.977 186.166 143.869C186.234 143.741 186.242 143.577 186.29 143.44C186.351 143.272 186.431 143.112 186.531 142.964C186.471 142.972 186.407 142.98 186.347 142.988C186.728 143.328 187.166 143.593 187.643 143.777C187.784 143.833 187.844 143.605 187.708 143.553C187.27 143.384 186.864 143.136 186.515 142.823C186.455 142.771 186.375 142.783 186.331 142.847C186.186 143.064 186.078 143.3 186.013 143.553C186.001 143.609 185.997 143.681 185.973 143.733C185.957 143.765 185.969 143.769 185.941 143.761C185.925 143.757 185.901 143.717 185.889 143.705C185.801 143.601 185.72 143.481 185.648 143.364C185.371 142.912 185.203 142.399 185.154 141.87C185.142 141.721 184.905 141.717 184.918 141.87H184.914Z" fill="#77433C"/>
<path id="Vector_74" d="M147.175 85.4007C147.809 85.7213 148.66 85.7173 149.354 85.7213C150.173 85.7253 150.992 85.6291 151.779 85.4007C153.136 85.008 154.356 84.2106 155.179 83.0565C155.231 82.9844 155.111 82.9122 155.059 82.9844C154.256 84.1064 153.064 84.8798 151.743 85.2645C151.016 85.4768 150.258 85.573 149.499 85.577C148.784 85.585 147.893 85.6051 147.247 85.2765C147.167 85.2364 147.094 85.3566 147.175 85.3967V85.4007Z" fill="#77433C"/>
</g>
<defs>
<clipPath id="clip0_291_1706">
<rect width="225" height="177.245" fill="white" transform="translate(0.109131)"/>
</clipPath>
</defs>
</svg>
