<svg width="233" height="198" viewBox="0 0 233 198" fill="none" xmlns="http://www.w3.org/2000/svg">
<g id="Group 11">
<path id="Vector" d="M14.3896 195.728L221.806 196.188C225.915 192.701 226.5 186.436 224.981 181.28C223.462 176.125 220.257 171.656 217.751 166.893C211.553 155.156 209.578 141.274 212.252 128.284C213.923 120.169 217.318 112.463 220.5 104.733C223.94 96.3848 227.13 88.0062 227.601 79.054C228.224 67.3391 224.001 55.7071 217.34 46.0302C210.68 36.3458 201.687 28.4503 192.148 21.5512C177.786 11.1723 161.526 2.6729 143.913 0.453702C136.371 -0.497382 128.313 -0.180353 121.743 3.62398C112.045 9.24745 107.959 20.7737 102.688 30.6242C94.8955 45.1924 83.0551 57.5942 68.8298 66.0936C59.1008 71.9058 48.354 75.8988 38.6401 81.7336C28.9262 87.5685 19.9339 95.8112 16.7896 106.658C16.0301 109.27 15.6352 111.897 15.5061 114.546C14.9364 125.899 19.1516 137.591 20.1389 149.17C21.0883 160.379 18.9845 171.596 16.8807 182.654C16.0529 187.01 15.225 191.365 14.3972 195.72L14.3896 195.728Z" fill="#EDF6F9"/>
<path id="Vector_2" d="M14.3894 195.728L221.806 196.188C225.915 192.701 226.5 186.436 224.981 181.28C223.462 176.125 220.257 171.656 217.75 166.893C211.553 155.156 209.578 141.274 212.252 128.284C213.923 120.169 217.317 112.463 220.5 104.733C219.771 102.122 217.568 99.774 214.872 99.0267C210.672 97.8643 206.062 99.8948 203.145 103.125C200.229 106.356 198.725 110.591 197.609 114.78C196.583 118.637 194.973 123.385 190.986 123.853C190.113 123.951 189.209 123.815 188.351 124.042C185.373 124.819 185.199 128.865 183.87 131.628C181.72 136.074 174.756 137.153 171.346 133.568C169.204 131.318 168.642 128.027 168.285 124.948C167.935 121.86 167.632 118.607 165.824 116.078C164.016 113.55 160.105 112.214 157.705 114.199C155.958 115.648 155.487 118.396 153.452 119.384C151.69 120.237 149.617 119.384 147.855 118.531C144.566 116.939 140.966 115.014 139.812 111.564C139.014 109.187 139.569 106.598 140.009 104.129C140.708 100.159 141.072 96.0074 139.872 92.1578C138.672 88.3082 135.627 84.8133 131.632 84.0887C127.645 83.364 123.065 86.255 122.89 90.2783C122.837 91.4709 123.126 92.7466 122.556 93.7958C122.039 94.7469 120.976 95.2299 120.103 95.8715C116.898 98.2644 116.526 102.786 115.432 106.62C114.346 110.455 110.837 114.606 107.078 113.225C105.042 112.478 103.721 110.266 101.602 109.798C97.3713 108.862 94.9865 115.105 90.7561 116.078C86.4878 117.075 83.1536 112.425 79.0372 110.915C70.8347 107.919 61.2347 117.837 53.7386 113.376C49.5386 110.878 48.7715 105.307 47.3437 100.65C46.2196 96.9811 44.2981 94.1732 40.607 92.7013C39.1412 92.12 37.3412 91.8634 36.088 92.8145C34.5539 93.9769 34.5919 96.2867 33.5666 97.9096C32.8223 99.0947 31.5615 99.8344 30.4147 100.65C28.1286 102.272 28.3261 103.933 27.2248 106.205C25.0527 110.659 20.1995 112.463 15.4831 114.538C14.9135 125.891 19.1286 137.583 20.116 149.162C21.0653 160.372 18.9616 171.588 16.8578 182.647C16.0299 187.002 15.2021 191.357 14.3742 195.713L14.3894 195.728Z" fill="#D6E8E5"/>
<path id="Vector_3" d="M78.0653 62.4251C78.0653 62.4251 84.6501 68.592 82.7589 70.6905C80.8602 72.7889 69.4755 68.8713 69.4755 68.8713L72.0425 61.6929L78.0653 62.4251Z" fill="#B21924"/>
<path id="Vector_4" d="M56.2754 76.4347C55.645 75.2195 55.7058 74.057 55.3564 72.804C55.0602 71.7246 54.1944 71.0679 53.5944 70.1697C52.9868 69.2639 52.7362 68.2524 52.6298 67.2183C52.6678 66.471 52.7589 65.7313 52.8956 64.9991C53.1007 64.199 53.321 63.3988 53.5868 62.6138C54.6804 59.3077 56.8602 56.4997 57.8779 53.2011C58.9564 49.7138 59.245 46.0982 62.45 43.7507C64.2424 42.4373 66.088 42.1051 68.2601 42.09C69.3158 42.09 70.2804 42.007 71.2145 41.6447C71.3361 41.6069 71.45 41.5617 71.5639 41.5088C73.1512 40.8748 75.0879 41.3201 76.2955 42.5052C77.6702 43.8639 78.1335 45.7811 77.7461 47.6607C77.3132 49.744 75.9689 51.2989 74.5867 52.8312C73.4626 54.0767 72.331 55.3146 71.2069 56.5601C70.9563 56.8318 71.488 58.9529 71.5259 59.3152C71.7158 60.9607 71.9133 62.6138 72.1031 64.2593C72.293 65.9049 72.4221 67.3239 71.7462 68.8713C70.8804 70.8641 70.007 72.7512 68.5108 74.3665C66.8627 76.1403 64.8424 77.5217 62.8374 78.8879C62.2753 79.2729 61.6981 79.6654 61.0374 79.8541C60.1564 80.1107 59.2678 79.9673 58.4399 79.5975C57.6349 78.6086 56.8678 77.5745 56.283 76.4423L56.2754 76.4347Z" fill="#B21924"/>
<path id="Vector_5" d="M50.3209 110.009C50.3209 110.711 69.4677 111.655 69.4677 111.655L68.7613 95.2149L63.1183 71.7321C63.1183 71.7321 59.6474 73.5437 57.2551 77.1745C57.1411 77.3481 57.0272 77.5292 56.9209 77.7179C56.8525 77.8387 56.7842 77.9519 56.7158 78.0727C54.3538 82.2997 56.0095 93.3429 54.5893 94.9809C53.169 96.6264 51.9918 98.9739 51.9918 101.087C51.9918 103.201 53.8829 104.846 52.9336 106.258C51.9842 107.67 50.3361 109.315 50.3361 110.017L50.3209 110.009Z" fill="#EFB44B"/>
<path id="Vector_6" d="M66.8624 105.314L67.0979 110.009L92.6243 106.25C92.6243 106.25 91.6825 104.371 92.1534 98.7323C92.6243 93.0938 66.8624 105.307 66.8624 105.307V105.314Z" fill="#E68972"/>
<path id="Vector_7" d="M56.9131 77.7104C57.7409 80.2692 58.9181 82.73 60.3156 85.0096C60.4523 85.236 60.8092 85.0322 60.6725 84.8058C59.2143 82.3828 58.1055 79.8314 57.2472 77.1745C57.1333 77.3481 57.0194 77.5292 56.9131 77.7179V77.7104Z" fill="#D89B39"/>
<path id="Vector_8" d="M81.1638 67.6183C81.1638 67.6183 86.6018 67.3843 89.017 68.9317C91.6144 70.5924 92.7461 95.5696 92.7461 95.5696C92.7461 95.5696 93.2169 99.3287 92.9815 99.7967C92.7461 100.265 89.9056 101.91 87.5436 101.91C85.1815 101.91 77.617 101.91 74.0702 103.088C70.5234 104.265 67.2196 106.145 66.5057 105.903C65.7994 105.669 63.9082 103.556 63.9082 102.378C63.9082 101.201 63.6728 99.3211 63.6728 99.3211C63.6728 99.3211 58.7133 96.0301 59.6551 91.803C60.5969 87.576 62.488 82.881 62.2525 78.8879C62.0171 74.8949 61.2272 72.9172 61.7817 72.5474C63.2019 71.6114 68.3968 68.5543 68.3968 68.5543L81.1562 67.6183H81.1638Z" fill="#EFB44B"/>
<path id="Vector_9" d="M61.9488 57.4357C63.088 60.1757 65.731 58.9302 65.8601 58.8623C66.4146 61.0438 67.5234 65.8294 66.9842 67.6183C66.2778 69.9658 63.6728 71.3774 63.6728 71.3774C63.6728 71.3774 65.093 83.3565 68.8753 82.6545C71.9285 82.0884 76.6753 73.9664 78.8018 71.1434C80.9284 68.3279 81.3993 67.6183 81.3993 67.6183C81.3993 67.6183 77.1461 67.6183 76.4398 66.9163C76.2879 66.7654 76.1284 66.4257 75.9613 65.9803C75.7715 65.4595 75.5816 64.7877 75.4145 64.1235C75.4221 64.1235 75.4373 64.1235 75.4525 64.1235H75.4677C76.0069 64.1914 79.1664 63.897 80.374 61.8816C82.3942 57.8584 79.4094 51.5707 76.3107 47.5625C75.4525 46.4605 73.774 45.5547 72.3614 45.9094C71.0398 46.2416 70.7133 47.4342 69.7107 48.1513C69.1943 48.5136 68.5639 48.657 67.9791 48.891C67.3943 49.125 66.8019 49.51 66.6196 50.1063C66.5209 50.4384 66.5589 50.8007 66.4981 51.148C66.4146 51.6311 66.1411 52.0613 66.0804 52.5444C66.0424 52.8614 66.0956 53.186 66.126 53.503C66.1639 53.9559 66.1411 54.4088 66.0956 54.8617C66.0804 55.058 66.0424 55.2693 65.8905 55.3825C65.5791 55.6241 65.3589 55.058 65.1614 54.907C64.8804 54.6957 64.5842 54.4994 64.2728 54.3409C63.688 54.0465 62.8829 53.7899 62.3057 54.2352C61.2121 55.0655 61.645 56.6884 61.9488 57.4281V57.4357Z" fill="#E68972"/>
<path id="Vector_10" d="M77.6852 54.8995C77.6017 54.6957 77.3587 54.5824 77.1536 54.6655C76.9485 54.7485 76.7435 54.824 76.5384 54.907C76.3333 54.99 76.2194 55.2316 76.303 55.4354C76.3865 55.6392 76.6296 55.7524 76.8346 55.6694C77.0397 55.5864 77.2447 55.5109 77.4498 55.4279C77.6549 55.3448 77.7688 55.1033 77.6852 54.8995Z" fill="#D1755F"/>
<path id="Vector_11" d="M71.1157 49.276C70.6145 49.5553 70.7284 49.4647 70.2347 49.7742C69.7411 50.0837 69.2854 50.4535 68.7993 50.7856C68.3664 51.08 68.7993 51.782 69.2322 51.4801C69.7183 51.148 70.1664 50.7781 70.6677 50.4686C71.1537 50.1667 71.0398 50.2497 71.5487 49.9704C72.012 49.7138 71.579 49.0193 71.1157 49.276Z" fill="#B21924"/>
<path id="Vector_12" d="M76.8119 50.1894C76.6904 50.1365 76.6068 50.0308 76.584 49.895C76.5537 49.6987 76.698 49.5176 76.903 49.4949C77.1461 49.4723 77.3967 49.4421 77.6397 49.4798C77.9359 49.5251 78.2397 49.6157 78.5359 49.6836C78.6574 49.7138 78.7866 49.7365 78.9005 49.7968C79.0144 49.8572 79.1131 49.9478 79.1587 50.0686C79.341 50.5819 78.5663 50.3252 78.3157 50.2875C77.8828 50.2271 77.4499 50.1743 77.0169 50.212C76.9486 50.212 76.8802 50.212 76.8195 50.1818L76.8119 50.1894Z" fill="#B21924"/>
<path id="Vector_13" d="M70.8499 53.7521C70.4929 53.5332 70.2651 53.1407 70.5461 52.7407C70.7588 52.4387 71.26 52.2349 71.6246 52.3557C72.2929 52.5821 72.4448 53.7144 71.6777 53.9106C71.4271 53.9786 71.1081 53.9106 70.8499 53.7446V53.7521Z" fill="#1A1A1A"/>
<path id="Vector_14" d="M79.3864 52.3406C79.5839 52.1066 79.508 51.8047 79.2877 51.5858C79.0523 51.3518 78.627 51.1631 78.3004 51.2914C78.027 51.3971 77.8827 51.7669 78.0497 52.016C78.1865 52.2274 78.3763 52.4161 78.6118 52.4991C78.8472 52.5897 79.1358 52.567 79.3257 52.401C79.3485 52.3783 79.3713 52.3557 79.394 52.333L79.3864 52.3406Z" fill="#1A1A1A"/>
<path id="Vector_15" d="M69.908 62.4628C71.2903 64.3424 73.2346 65.8369 75.9612 65.9728C75.7713 65.452 75.5814 64.7802 75.4143 64.1159C75.4219 64.1159 75.4371 64.1159 75.4523 64.1159L75.384 64.1008C75.384 64.1008 75.3688 64.1008 75.3612 64.1008C73.3485 63.9347 71.2447 63.0969 69.9156 62.4628H69.908Z" fill="#1A1A1A"/>
<path id="Vector_16" d="M78.8168 57.1866C78.2016 57.096 74.5561 57.3074 74.0093 57.481C74.6017 59.6096 78.1865 61.4212 78.8168 57.1866Z" fill="white"/>
<path id="Vector_17" d="M60.422 87.5987C61.2271 84.7228 62.0321 80.4504 61.7891 77.4764C61.7359 76.8801 62.3435 76.5329 62.3967 77.1292C62.6018 79.605 62.2372 83.7339 61.736 86.172C61.4777 87.4326 61.1056 88.6554 60.6727 89.8631C60.2018 91.169 59.7689 92.4371 60.1106 93.8335C60.4144 95.0715 61.1739 96.1433 62.0625 97.0416C62.7233 97.7134 63.8549 98.2946 64.265 99.1475C64.6448 99.9552 64.2499 100.853 64.3106 101.699C64.4018 103.05 65.1233 104.197 66.1866 105.02C66.5511 105.307 66.065 105.933 65.6853 105.669C64.0524 104.522 63.217 102.703 63.4144 100.725C63.46 100.287 63.5283 99.7061 63.2473 99.3211C63.0954 99.1098 62.7461 98.9135 62.541 98.7475C62.0473 98.3399 61.5689 97.9021 61.1284 97.4341C60.3765 96.6113 59.7537 95.6904 59.3739 94.6412C58.4853 92.1654 59.7613 89.9613 60.422 87.6062V87.5987Z" fill="#D89B39"/>
<path id="Vector_18" d="M66.088 101.895C68.2297 101.216 70.2272 100.136 72.3918 99.5174C74.7158 98.8531 77.0322 99.1173 79.4094 99.2985C83.7461 99.6381 88.1588 99.1701 91.8651 96.7547C92.0777 96.6113 92.26 96.9434 92.0625 97.0944C89.4575 99.0116 86.1309 99.7363 82.9487 99.857C81.1259 99.9325 79.3335 99.7589 77.5183 99.6155C75.5588 99.4645 73.6981 99.5702 71.8221 100.197C69.9234 100.831 68.1386 101.782 66.2095 102.34C65.9209 102.423 65.7994 101.978 66.088 101.888V101.895Z" fill="#D89B39"/>
<path id="Vector_19" d="M86.4877 68.2146C86.5029 68.9242 86.8675 69.4375 87.0573 70.0942C87.3156 71 87.4827 71.951 87.7029 72.8644C88.1434 74.7439 88.6143 76.6234 89.1383 78.4803C89.6168 80.1938 90.1485 81.9072 90.4371 83.666C90.7105 85.3417 90.7181 87.0627 90.7409 88.7535C90.7561 89.9688 90.8016 91.1841 90.908 92.3993C90.9687 93.1466 90.6725 94.3393 91.5763 94.7167C91.8269 94.8223 92.108 94.7921 92.3738 94.7771C93.0345 94.7469 93.7105 94.8148 94.3484 94.9733C95.1003 95.162 95.8143 95.479 96.5737 95.6451C97.9712 95.947 99.2623 95.2979 100.394 94.528C101.336 93.8939 102.164 93.0183 103.272 92.7768C104.176 92.5805 105.11 92.8296 106.029 92.9126C108.399 93.1315 110.761 92.2182 112.705 90.8519C114.293 89.7348 115.645 88.3233 116.936 86.874C117.984 85.6965 119.077 84.5944 120.08 83.3565C121.774 81.2807 123.399 79.1446 124.933 76.9556C125.024 76.8272 125.123 76.6914 125.214 76.5555C125.214 76.5555 125.222 76.5404 125.229 76.5329C126.315 74.9628 127.569 73.2946 128.237 71.4906C128.267 71.4 128.298 71.3245 128.32 71.2491C128.996 68.8336 128.822 64.9689 127.895 62.01C127.196 59.7832 126.065 58.0622 124.538 57.8584C122.776 59.836 120.938 61.7533 119.055 63.6102C117.581 65.067 116.062 66.4936 114.452 67.7995C114.384 67.8523 114.315 67.9052 114.255 67.9656C114.255 67.9656 114.239 67.9806 114.232 67.9806C113.1 68.8864 111.908 69.7771 110.518 70.23C109.774 70.4716 109.143 71.0453 108.452 71.4529C107.685 71.9058 106.88 72.2983 106.014 72.5247C105.953 72.5398 105.893 72.5549 105.832 72.57C104.996 72.7663 104.123 72.804 103.257 72.8191C101.024 72.8719 98.7915 72.9852 96.6269 72.3058C96.3763 72.2228 96.1332 72.1398 95.8902 72.0416C95.7611 71.9888 95.6244 71.9359 95.4953 71.8831C95.0548 71.6944 94.6295 71.4755 94.2041 71.2642C92.1991 70.2451 90.2396 69.0978 88.0978 68.3958C87.6118 68.2373 87.0042 68.041 86.4953 68.2146H86.4877Z" fill="#EFB44B"/>
<path id="Vector_20" d="M105.422 74.057C105.528 74.057 105.635 74.0193 105.726 73.9513C107.017 72.887 109.204 71.3698 110.222 70.8339C113.04 69.362 114.741 67.5579 114.809 67.4825C114.984 67.2937 114.976 66.9994 114.786 66.8182C114.596 66.6446 114.3 66.6521 114.118 66.8409C114.103 66.8559 112.44 68.6071 109.774 70.0036C108.581 70.6301 106.326 72.2228 105.11 73.2342C104.913 73.4003 104.883 73.6947 105.05 73.8985C105.141 74.0117 105.278 74.0646 105.414 74.0646L105.422 74.057Z" fill="#FFF3E1"/>
<path id="Vector_21" d="M124.174 77.0461C124.379 77.0461 124.584 77.031 124.796 77.0009C125.055 76.9631 125.237 76.7291 125.199 76.4725C125.161 76.2158 124.926 76.0347 124.667 76.0724C123.71 76.2007 122.883 75.9667 122.138 75.3478C119.146 72.8418 118.85 65.2104 118.85 65.135C118.842 64.8783 118.622 64.6745 118.364 64.6821C118.105 64.6896 117.9 64.9085 117.908 65.1651C117.915 65.4973 118.219 73.2946 121.531 76.0649C122.313 76.714 123.194 77.0461 124.166 77.0461H124.174Z" fill="#D89B39"/>
<path id="Vector_22" d="M119.921 66.6748C119.989 66.6748 120.065 66.6446 120.11 66.5842L122.237 63.7687C122.313 63.663 122.298 63.5196 122.191 63.4366C122.085 63.3611 121.941 63.3838 121.857 63.4819L119.731 66.2974C119.655 66.4031 119.67 66.5465 119.776 66.6295C119.822 66.6597 119.867 66.6748 119.921 66.6748Z" fill="#D89B39"/>
<path id="Vector_23" d="M121.812 69.4903C121.872 69.4903 121.933 69.4677 121.979 69.4224L123.87 67.5429C123.961 67.4523 123.961 67.3013 123.87 67.2107C123.779 67.1201 123.627 67.1201 123.536 67.2107L121.645 69.0902C121.553 69.1808 121.553 69.3318 121.645 69.4224C121.69 69.4677 121.751 69.4903 121.812 69.4903Z" fill="#D89B39"/>
<path id="Vector_24" d="M123.467 74.8949C123.543 74.8949 123.619 74.8571 123.665 74.7892L125.556 71.9737C125.632 71.868 125.602 71.717 125.488 71.6491C125.381 71.5736 125.229 71.6038 125.161 71.717L123.27 74.5326C123.194 74.6382 123.224 74.7892 123.338 74.8571C123.376 74.8873 123.422 74.8949 123.467 74.8949Z" fill="#D89B39"/>
<path id="Vector_25" d="M108.407 97.902C107.951 97.902 108.035 97.2 108.49 97.2076C111.354 97.2302 114.657 96.6641 115.933 93.7505C116.116 93.3353 116.769 93.592 116.586 94.0071C115.166 97.2378 111.612 97.9322 108.407 97.902Z" fill="#7297C4"/>
<path id="Vector_26" d="M128.206 63.2101C128.844 65.9577 128.898 69.1582 128.313 71.2566C128.29 71.3321 128.267 71.4151 128.229 71.4981C128.085 71.6189 126.536 72.3134 124.508 65.1349C125.784 64.5688 127.014 63.9348 128.206 63.2026V63.2101Z" fill="#1A1A1A"/>
<path id="Vector_27" d="M93.2473 87.1004C93.2473 87.3722 93.6726 87.3722 93.6726 87.1004C93.7106 81.9752 93.7637 76.7895 95.8751 72.0416C95.746 71.9888 95.6093 71.9359 95.4802 71.8831C93.2397 76.5781 93.2017 82.0053 93.2397 87.1004H93.2473Z" fill="#D89B39"/>
<path id="Vector_28" d="M90.0271 94.0072C91.022 94.3242 92.0246 94.4676 93.0727 94.3242C93.5967 94.2487 93.8322 95.0413 93.2929 95.1243C92.1157 95.313 90.9233 95.2602 89.7993 94.8224C89.298 94.6261 89.4955 93.8335 90.0271 94.0072Z" fill="#D89B39"/>
<path id="Vector_29" d="M123.802 58.5378C126.088 55.609 128.229 52.2878 128.936 48.6495C129.004 48.3023 129.057 47.9551 129.217 47.638C129.376 47.321 129.665 47.0493 130.014 47.004C130.561 46.9285 131.024 47.4191 131.275 47.9098C131.738 48.8156 131.86 49.8648 131.754 50.8762C131.685 51.5556 132.635 50.7857 132.885 50.6498C133.554 50.2875 134.222 49.9327 134.898 49.5779C136.242 48.8759 137.602 48.1966 138.969 47.5324C139.242 47.404 139.516 47.2682 139.819 47.2455C140.116 47.2229 140.45 47.3285 140.602 47.5852C140.662 47.6909 140.693 47.8116 140.776 47.8947C141.118 48.2343 142.067 47.6909 142.5 47.7286C142.865 47.7588 143.237 48.0003 143.29 48.3627C143.397 49.0797 142.622 49.6836 142.121 50.0459C140.981 50.8762 139.789 51.616 138.665 52.4689C138.24 52.7935 137.799 53.1634 137.64 53.6767C138.042 53.8729 138.521 53.6616 138.923 53.4502C139.827 52.9747 140.731 52.4916 141.634 52.016C142.045 51.7971 142.47 51.5782 142.933 51.5556C143.518 51.5329 144.034 51.9104 143.738 52.5293C143.51 53.0124 142.903 53.4955 142.455 53.7748C141.338 54.4692 140.275 55.1712 139.121 55.7751C138.672 56.0091 138.057 56.3412 137.867 56.8318C138.619 56.6884 139.379 56.545 140.131 56.394C140.389 56.3412 140.655 56.2959 140.921 56.2808C141.194 56.2657 141.505 56.3035 141.665 56.5224C141.809 56.7186 141.771 56.9979 141.65 57.2093C141.422 57.5867 141.019 57.949 140.624 58.1452C138.437 59.2095 136.128 60.0248 133.941 61.0966C133.189 61.4816 132.376 61.8363 131.7 62.3421C129.961 63.6404 126.065 68.2901 125.685 68.7128C124.47 65.4973 122.799 61.8439 123.802 58.5378Z" fill="#E68972"/>
<path id="Vector_30" d="M133.477 59.1793C133.591 57.949 133.538 56.6884 133.288 55.4731C133.128 54.6806 132.817 53.5257 131.974 53.2086C131.26 52.9445 131.176 53.654 131.814 54.0012C132.277 54.2579 132.331 55.6769 132.391 56.1374C132.498 57.013 132.27 58.1528 132.217 59.0284C132.171 59.836 133.409 59.987 133.485 59.1718L133.477 59.1793Z" fill="#D1755F"/>
<path id="Vector_31" d="M30.3465 123.989C30.3465 123.989 27.7491 123.287 26.0934 127.046C24.4377 130.805 24.4377 135.968 24.4377 135.968L34.8351 136.202L30.3465 123.989Z" fill="#5B74CA"/>
<path id="Vector_32" d="M28.2653 123.634C29.1767 122.774 30.5437 124.125 29.6475 125.008C27.7564 126.857 26.8374 129.227 26.7007 131.832C26.6855 132.156 26.526 132.556 26.1995 132.7C25.9412 132.813 25.6982 132.911 25.4248 132.798C24.9995 132.624 24.6957 132.307 24.6805 131.832C24.6197 128.752 26.04 125.74 28.2653 123.634Z" fill="white"/>
<path id="Vector_33" d="M71.9435 112.712C71.9435 112.712 36.0197 104.96 29.8754 112.478C23.7311 119.996 49.2576 127.982 49.2576 127.982L76.4397 120.932L71.9511 112.712H71.9435Z" fill="#A6644F"/>
<path id="Vector_34" d="M94.2802 108.605C94.2802 108.605 93.3156 105.277 92.746 104.967C92.1764 104.658 68.8752 107.783 66.3917 109.549C65.5335 110.16 64.9715 114.72 64.9715 114.72L73.7132 121.294L94.2726 108.613L94.2802 108.605Z" fill="#A6644F"/>
<path id="Vector_35" opacity="0.7" d="M73.3183 110.696C73.3867 109.972 73.4626 109.255 73.531 108.53C73.5538 108.266 73.9715 108.266 73.9487 108.53C73.8424 109.67 73.7208 110.81 73.6373 111.949C73.5917 112.599 73.8651 112.87 74.3284 113.248C74.693 113.542 75.0727 113.837 75.4297 114.146C75.6196 112.199 76.0297 110.244 76.5006 108.372C76.5613 108.115 76.9639 108.221 76.8955 108.477C76.2727 111.029 76.0069 113.572 75.7411 116.176C75.7107 116.441 75.3082 116.456 75.3158 116.176C75.3158 115.678 75.3537 115.18 75.3917 114.674C74.9132 114.335 74.4651 113.942 74.0094 113.565C73.6525 113.27 73.2803 112.991 73.1968 112.508C73.0981 111.934 73.2651 111.27 73.3183 110.696Z" fill="#7F4133"/>
<path id="Vector_36" d="M71.002 132.443C71.002 132.443 78.1412 132.534 84.9006 132.571C90.9006 132.601 96.6044 132.594 96.7639 132.443C96.7639 132.443 108.999 123.951 107.913 114.916C107.898 114.81 107.89 114.704 107.868 114.591C106.447 105.428 96.3537 106.847 92.7765 108.137C89.1993 109.428 71.002 132.443 71.002 132.443Z" fill="#A6644F"/>
<path id="Vector_37" opacity="0.7" d="M84.7715 132.451L84.9006 132.571C90.9006 132.601 96.6044 132.594 96.7639 132.443C96.7639 132.443 108.999 123.951 107.913 114.916C107.875 118.048 106.235 121.136 104.093 123.053C101.731 125.166 84.7791 132.458 84.7791 132.458L84.7715 132.451Z" fill="#7F4133"/>
<path id="Vector_38" d="M46.4247 127.038L55.1133 124.615L57.9993 132.911L47.3665 135.266L46.4247 127.038Z" fill="#E3916F"/>
<path id="Vector_39" d="M0.809814 196.332C0.809814 198.098 4.09081 197.743 78.8018 197.743C143.229 197.743 156.794 198.445 156.794 196.332C156.794 194.747 121.872 194.92 78.8018 194.92C35.7311 194.92 0.809814 194.037 0.809814 196.332Z" fill="#307650"/>
<path id="Vector_40" d="M90.8777 131.454C90.8777 131.454 6.71104 130.76 6.06549 131.696C5.41992 132.632 4.9946 142.263 6.06549 142.263C7.13637 142.263 8.21484 142.263 8.34395 142.762C8.70851 144.12 7.56929 194.173 8.21486 195.584C8.86041 196.996 146.495 197.109 147.141 196.407C147.786 195.705 146.601 142.739 147.574 142.452C148.925 142.06 149.601 142.505 149.822 141.795C150.034 141.093 150.68 131.696 149.822 131.228C148.963 130.76 90.8777 131.454 90.8777 131.454Z" fill="#F7F0ED"/>
<path id="Vector_41" d="M10.9261 142.075C15.3388 141.841 19.7894 142.007 24.202 142.007H63.6119C81.1713 142.007 98.7383 141.999 116.298 142.007C126.148 142.007 136.006 141.909 145.857 142.09C146.586 142.105 146.586 143.32 145.857 143.335C128.305 143.66 110.731 143.418 93.1713 143.418H25.9185C20.9286 143.418 15.9084 143.614 10.9261 143.35C10.1818 143.313 10.1818 142.127 10.9261 142.09V142.075Z" fill="#E5D5CA"/>
<path id="Vector_42" d="M104.655 161.994C104.655 161.994 105.665 151.487 104.753 147.404C103.842 143.32 102.239 141.735 100.872 141.735C100.872 141.735 103.082 139.984 105.741 144.49C108.399 148.996 109.546 162.153 109.546 162.153L102.695 166.69L87.6648 162.402C87.6648 162.402 91.204 155.45 92.1154 151.148C93.0268 146.838 94.766 142.837 97.9331 141.946C97.9331 141.946 96.1939 145.932 95.5103 149.11C94.8268 152.287 93.6876 161.813 93.6876 161.813L104.662 162.002L104.655 161.994Z" fill="#3A1714"/>
<path id="Vector_43" d="M78.0423 195.947C78.7182 196.792 85.0676 197.185 92.6093 197.29C93.908 197.305 95.2371 197.321 96.5814 197.321C100.166 197.321 103.842 197.283 107.176 197.192C108.521 197.154 109.804 197.117 111.012 197.071C115.705 196.898 119.123 196.649 119.579 196.392C121.174 195.486 119.123 186.413 120.034 179.831C120.946 173.257 124.143 162.817 123.232 161.232C122.921 160.696 117.657 160.417 110.799 160.296C109.804 160.281 108.771 160.266 107.716 160.251C103.713 160.206 99.3688 160.206 95.2599 160.228C94.2118 160.228 93.1789 160.236 92.1688 160.251C84.1866 160.319 77.7005 160.47 77.3588 160.553C76.4474 160.779 78.6499 170.056 79.6448 176.661C81.2397 187.319 76.8499 194.43 78.0499 195.939L78.0423 195.947Z" fill="#ED4450"/>
<path id="Vector_44" d="M79.341 161.172C79.265 160.674 79.9941 160.447 80.1156 160.96C81.4675 166.742 82.6827 172.562 84.0346 178.352C84.0498 178.352 84.065 178.352 84.0878 178.344C95.1004 177.612 108.05 178.895 119.055 177.921C119.579 177.876 119.571 178.684 119.055 178.737C108.11 179.846 95.2067 178.518 84.2397 179.235C84.8245 181.801 85.2498 184.443 84.8776 187.07C84.4599 190.036 83.0776 192.859 83.5409 195.909C83.6245 196.46 82.789 196.717 82.6751 196.143C82.1739 193.493 83.108 190.972 83.6928 188.421C84.4219 185.251 83.989 182.156 83.2523 179.031C81.8701 173.106 80.2751 167.195 79.3334 161.179L79.341 161.172Z" fill="#C02328"/>
<path id="Vector_45" d="M92.6092 197.29C93.9079 197.305 95.237 197.321 96.5813 197.321C97.4092 195.403 97.1282 182.065 96.1029 178.699C95.0396 175.189 94.356 169.966 94.8117 164.976C94.918 163.783 95.0699 162.108 95.2522 160.228C95.8294 154.25 96.7408 146.166 97.7813 144.784C99.1484 142.973 100.295 141.607 102.574 142.06C104.86 142.512 107.138 151.585 107.366 153.631C107.495 154.763 107.617 157.579 107.708 160.251C107.776 162.38 107.822 164.425 107.822 165.429C107.822 167.701 108.277 176.314 108.505 179.265C108.726 182.156 108.445 193.924 107.169 197.192C108.513 197.154 109.796 197.117 111.004 197.071C111.308 195.569 111.688 193.35 111.809 190.942C112.037 186.632 111.581 180.737 111.581 177.333C111.581 174.887 111.346 166.335 110.784 160.289C110.564 157.934 110.298 155.956 109.979 154.877C108.839 151.019 106.326 141.946 102.9 141.267C99.475 140.588 97.8801 140.814 95.8218 143.539C94.2649 145.6 92.8446 154.409 92.1459 160.251C91.9181 162.13 91.7662 163.7 91.713 164.636C91.4852 168.494 92.9206 176.487 93.232 178.842C93.5358 181.167 92.6092 196.898 92.5864 197.29H92.6092Z" fill="#C02328"/>
<path id="Vector_46" d="M5.67795 194.437C6.08047 194.384 6.49818 194.497 6.80197 194.814C6.83995 194.837 6.87794 194.86 6.91592 194.897C6.90073 194.852 6.87794 194.814 6.86275 194.769C6.68047 194.392 6.42982 194.045 6.1868 193.712C5.85262 193.259 5.03996 192.482 5.42731 191.81C5.8754 191.033 6.86275 191.984 7.28806 192.293C7.74376 192.625 8.18425 192.988 8.60957 193.365C8.66273 193.418 9.43742 194.211 9.4754 194.195C9.4678 194.195 9.54375 193.803 9.58931 193.614C9.58931 193.607 9.58931 193.592 9.58931 193.584C9.58931 193.584 9.59691 193.584 9.60449 193.584C9.61209 193.539 9.61971 193.509 9.61971 193.516C9.68047 193.297 9.92349 193.093 10.1438 193.192C10.4703 193.335 11.6475 193.931 12.0653 194.384C12.0653 194.331 12.0653 194.279 12.0653 194.233C11.9361 193.931 11.7766 193.577 11.7463 193.448C11.6551 193.041 11.6627 192.701 11.7463 192.293C11.8374 191.871 12.3159 191.893 12.5134 192.18C13.2652 193.29 13.6298 194.83 14.9057 195.365C14.9589 195.388 15.0045 195.418 15.0348 195.448C15.0728 195.448 15.1108 195.456 15.1488 195.464C23.3741 196.475 31.6297 196.898 39.9005 196.505C42.1334 196.4 44.3663 196.301 46.5916 196.249C46.6144 196.09 46.6144 195.894 46.7056 195.682C46.8043 195.441 47.1005 195.411 47.2904 195.516C47.4651 195.615 47.6625 195.75 47.8676 195.856C47.8904 195.645 47.9055 195.388 47.9131 195.373C47.9435 195.131 48.2397 194.973 48.4372 195.048C48.7714 195.177 48.7866 195.222 49.0448 195.486C49.1435 195.63 49.2498 195.758 49.3714 195.879C49.4245 195.818 49.4853 195.781 49.5612 195.758C49.7207 195.781 49.8802 195.728 50.0397 195.811C50.1992 195.894 50.2448 196.128 50.3739 196.211C50.3891 196.196 50.3967 196.188 50.4119 196.173C50.465 196.113 50.5258 196.075 50.6017 196.052C50.7612 196.022 50.9511 196.09 51.0802 196.067C51.3309 196.022 51.2701 196.045 51.5891 195.758C51.7941 195.569 52.022 195.396 52.2878 195.335C52.6828 195.245 53.0929 195.35 53.3435 195.705C53.5638 196.022 53.4422 196.181 53.7536 196.317C54.0043 196.332 54.2625 196.339 54.5131 196.354C55.06 196.392 55.6144 196.43 56.1612 196.475C56.8827 196.498 57.5966 196.52 58.3182 196.535C58.5688 196.535 58.8118 196.543 59.0625 196.551C59.1308 196.551 59.1916 196.551 59.2447 196.543C59.2751 196.422 59.2751 196.241 59.3283 196.113C59.4118 195.924 59.6245 195.864 59.7916 195.901C60.2245 196.007 60.6346 196.143 61.0371 196.309C61.9561 196.339 62.8599 196.656 63.7865 196.581C64.6827 196.505 65.465 196.286 66.3308 196.256C66.3915 196.203 66.4675 196.166 66.5662 196.158C67.1662 196.113 67.7586 196.113 68.3586 196.135C68.389 195.924 68.5561 195.833 68.7232 195.826C68.6093 195.599 68.5409 195.358 68.5561 195.086C68.5637 194.928 68.632 194.762 68.7687 194.686C69.4295 194.324 70.0447 194.731 70.6675 195.071C71.7687 195.667 72.7712 196.294 74.0472 196.181C74.1004 196.181 74.1459 196.181 74.1839 196.203C75.1029 196.075 76.037 196.271 76.9712 196.226C78.3763 196.158 79.7585 195.849 81.1636 195.833C83.6167 195.811 86.0851 195.984 88.5458 196.12C88.8344 196.007 89.0395 195.796 89.3357 195.667C89.4952 195.599 89.6547 195.637 89.8142 195.667C89.8142 195.652 89.8142 195.645 89.8218 195.63C89.5104 194.935 88.88 193.992 89.8218 193.667C90.1712 193.546 90.5965 193.826 90.8851 193.999C91.242 194.211 91.5762 194.46 91.8952 194.731C92.0167 194.784 92.1306 194.83 92.2522 194.845C92.2901 194.814 92.3281 194.777 92.3737 194.731C92.6243 194.505 92.837 194.105 93.118 193.924C93.399 193.735 93.5813 193.78 93.7332 193.916C93.7863 193.841 93.8395 193.773 93.9078 193.697C94.1812 193.38 94.599 193.644 94.6369 194.029C94.6749 194.49 94.7205 194.95 94.7585 195.411C95.3281 195.011 95.7306 194.271 96.118 193.705C96.604 192.995 97.0673 192.263 97.5154 191.523C97.7888 191.078 98.3888 191.365 98.2977 191.886C98.1534 192.678 97.9559 193.448 97.6749 194.195C97.5762 194.467 96.961 195.471 97.1053 195.75C97.2192 195.977 99.2167 195.947 99.5281 195.977C100.242 196.045 100.956 196.113 101.67 196.181C104.731 196.445 107.776 196.234 110.837 196.135C110.89 196.135 110.936 196.143 110.981 196.158C111.065 196.128 111.148 196.098 111.232 196.06C111.437 195.969 111.612 195.773 111.839 195.758C111.991 195.75 112.174 195.932 112.272 195.924C112.295 195.954 112.318 195.984 112.341 196.022C112.318 195.901 112.341 195.818 112.424 195.766C112.538 195.72 112.667 195.645 112.789 195.599C113.001 195.524 113.168 195.637 113.26 195.818C113.525 195.486 113.768 195.116 114.163 194.92C114.467 194.769 114.923 195.026 114.794 195.448C114.695 195.766 114.574 196.067 114.444 196.369C115.5 196.43 116.487 196.03 117.558 196.06C118.128 196.075 118.69 195.969 119.26 195.984C119.89 196 120.513 196.113 121.151 196.052C122.191 195.954 123.224 196.022 124.272 195.939C125.222 195.871 126.08 195.849 126.961 196.226C126.961 196.226 126.961 196.226 126.968 196.226C127.447 196.324 127.941 195.947 128.411 195.856C128.936 195.758 129.513 195.75 130.044 195.728C130.341 195.713 130.743 195.66 131.032 195.781C131.07 195.796 131.168 195.879 131.26 195.947C131.184 195.758 131.115 195.562 131.047 195.373C130.88 194.913 131.457 194.671 131.738 194.935C132.11 195.282 132.482 195.63 132.847 195.977C135.194 196.354 137.503 195.939 139.849 195.879C140.822 195.23 141.9 195.652 143.016 195.501C143.237 195.471 143.503 195.365 143.776 195.275C143.973 195.147 144.216 195.056 144.505 195.048C144.687 195.048 144.877 195.041 145.059 195.033C145.135 194.958 145.211 194.882 145.287 194.814C145.416 194.686 145.584 194.656 145.728 194.709C146.457 193.924 146.738 192.625 147.558 191.908C147.778 191.712 148.204 191.735 148.265 192.112C148.356 192.671 148.287 193.275 148.135 193.871C148.477 193.493 148.834 193.124 149.115 192.761C149.601 192.135 150.064 191.025 150.809 190.776C151.067 190.686 151.34 190.927 151.34 191.221C151.325 192.497 150.3 194.233 149.594 195.358C161.92 195.109 176.107 195.728 188.434 195.758C202.56 195.796 215.889 195.758 229.294 195.758C230.654 195.758 230.251 196.913 228.892 196.966C214.781 197.539 200.943 197.328 186.816 197.366C172.697 197.404 158.624 198.249 144.513 197.758C144.08 197.743 143.753 197.57 143.533 197.32C128.556 197.404 113.487 197.305 98.5331 197.426C68.0852 197.32 37.4246 199.079 7.03741 196.913C6.82477 196.898 6.64249 196.762 6.52097 196.581C6.3311 196.837 5.82985 196.83 5.77669 196.43C5.71593 195.947 5.59439 195.547 5.35895 195.124C5.16908 194.792 5.42729 194.46 5.73109 194.422L5.67795 194.437Z" fill="#307650"/>
<path id="Vector_47" d="M53.6323 125.046C53.6323 125.046 58.1209 141.954 61.1968 142.663C62.3209 142.92 64.1892 142.029 65.169 141.592C67.1588 140.693 69.0727 139.546 71.0094 138.534C71.8297 138.104 72.6575 137.674 73.5537 137.44C74.617 137.161 75.7334 137.168 76.8195 137.002C77.617 136.881 78.3993 136.662 79.1056 136.293C79.8423 135.9 80.4803 135.349 81.141 134.836C83.3663 133.092 85.7967 131.839 88.4853 131.031C89.4119 130.752 90.3384 130.148 91.2043 129.718C92.0625 129.303 92.9207 128.88 93.7713 128.465C95.222 127.756 96.6726 127.038 98.1156 126.321C99.0878 125.838 100.06 125.355 101.032 124.872C101.192 124.797 102.004 124.525 102.073 124.351C102.073 124.351 107.032 111.429 101.837 108.379C96.6346 105.322 89.3131 109.315 85.2954 111.436C81.2777 113.55 55.5158 124.827 53.6247 125.061L53.6323 125.046Z" fill="#A6644F"/>
<path id="Vector_48" d="M55.2198 124.034C61.7894 121.438 68.2222 118.554 74.6323 115.595C80.8298 112.742 87.0272 109.776 93.4449 107.413C93.9537 107.224 94.1512 108.002 93.6727 108.205C87.1639 110.953 80.7234 113.814 74.3057 116.773C68.1007 119.634 61.8805 122.517 55.478 124.925C54.9084 125.136 54.6653 124.253 55.2198 124.034Z" fill="#7F4133"/>
<path id="Vector_49" d="M57.8779 151.336C57.8779 151.336 60.4829 157.466 61.4247 159.813C62.3664 162.161 67.8044 165.92 68.0398 168.267C68.2753 170.615 58.5842 191.757 55.9867 191.289C53.3893 190.821 54.331 181.424 54.5665 176.729C54.8019 172.034 54.331 168.743 53.3817 166.161C52.4399 163.58 45.1108 153.714 45.1108 153.714L57.8703 151.344L57.8779 151.336Z" fill="#E3916F"/>
<path id="Vector_50" d="M52.9183 169.671C52.9183 170.373 54.3386 176.012 53.6246 181.884C52.9183 187.757 53.1538 189.402 53.6246 190.338C53.7841 190.655 54.1411 190.957 54.5284 191.214C54.8322 191.418 55.1588 191.591 55.4246 191.712C56.1613 192.067 57.1563 191.689 57.8018 191.289C59.4803 190.255 60.4373 188.232 61.4094 186.587C62.6018 184.587 63.7258 182.541 64.7663 180.465C66.6575 176.691 68.8524 172.328 68.9891 168.026C69.0195 167.052 67.8423 165.603 66.5056 164.334C64.9183 162.817 63.1031 161.557 62.8448 161.685C62.8448 161.685 62.6094 161.685 62.6094 163.097C62.6094 164.508 62.6094 166.856 61.4246 167.324C60.2398 167.792 55.9867 165.912 54.331 166.856C52.6753 167.792 52.9107 168.969 52.9107 169.671H52.9183Z" fill="#5B74CA"/>
<path id="Vector_51" d="M54.5286 191.221C54.8324 191.425 55.159 191.599 55.4248 191.72C56.1615 192.074 57.1565 191.697 57.802 191.297C59.4805 190.263 60.5134 188.829 61.4932 187.191C62.6856 185.19 63.8628 183.22 64.9033 181.137C66.7944 177.363 70.3716 172.366 70.5083 168.056C70.5387 167.082 68.5564 164.908 66.5134 164.335C65.9893 165.64 63.8779 170.886 62.8526 172.728C61.6678 174.842 62.8526 176.955 62.3818 179.069C61.9109 181.182 57.8932 189.402 56.002 190.814C55.516 191.176 55.0147 191.274 54.5362 191.221H54.5286Z" fill="white"/>
<path id="Vector_52" d="M53.898 183.062C54.7866 182.337 56.1841 182.201 56.3968 180.888C56.6018 179.605 56.5487 178.254 56.693 176.955C56.9664 174.457 57.3082 171.8 58.1512 169.422C58.3107 168.977 59.0018 169.233 58.9259 169.679C58.4094 172.683 57.6727 175.581 57.4221 178.631C57.3309 179.71 57.5056 181.16 56.8677 182.111C56.2753 182.986 55.1436 183.1 54.3158 183.651C53.9284 183.907 53.5563 183.356 53.9056 183.069L53.898 183.062Z" fill="#3D57A4"/>
<path id="Vector_53" d="M51.3993 132.715L58.174 152.476C58.174 152.476 46.3107 163.934 43.9487 162.991C41.5867 162.047 26.3817 124.162 27.8248 117.595C29.2678 111.021 31.4551 110.915 35.9209 110.047C40.3867 109.187 47.3664 121.989 48.5892 125.431C49.6373 128.374 51.3917 132.722 51.3917 132.722L51.3993 132.715Z" fill="#A6644F"/>
<path id="Vector_54" opacity="0.7" d="M43.5918 121.543C46.9488 129.552 49.8956 137.749 52.6981 145.97C53.5032 148.325 54.2854 150.687 55.0449 153.05C55.1285 153.299 54.7335 153.405 54.65 153.155C51.9234 144.905 49.0298 136.708 45.9159 128.601C45.0197 126.276 44.1159 123.966 43.2273 121.641C43.1361 121.407 43.5083 121.317 43.5994 121.543H43.5918Z" fill="#7F4133"/>
<path id="Vector_55" opacity="0.7" d="M41.283 117.656C41.3665 116.954 42.0501 116.818 42.6577 116.848C42.5134 116.569 42.3691 116.29 42.2248 116.01C42.0273 115.633 41.6931 115.195 41.6096 114.78C41.5108 114.267 42.0577 114.116 42.4678 114.108C43.0906 114.093 43.6222 114.388 44.002 114.863C44.2678 115.195 44.4577 115.573 44.8678 115.746C45.3539 115.95 45.9235 115.799 46.4399 115.814C47.2678 115.837 48.05 116.131 48.8399 116.358C49.7969 116.629 50.7842 116.758 51.7715 116.841C53.7158 117.007 63.3538 118.305 65.6246 118.509C65.9057 118.532 65.9132 118.962 65.6246 118.947C63.3082 118.803 53.0931 117.46 50.9057 117.203C49.8804 117.082 48.9083 116.833 47.9133 116.539C47.3969 116.388 46.8728 116.26 46.3336 116.252C45.9159 116.252 45.4982 116.327 45.0804 116.26C44.0779 116.109 43.9792 115.188 43.2121 114.735C43.0222 114.622 42.6349 114.471 42.407 114.554C41.9893 114.705 42.2476 115.09 42.3919 115.369C42.6729 115.912 42.9463 116.448 43.2273 116.992C43.3184 117.173 43.1665 117.346 42.9767 117.316C42.5286 117.241 41.5488 117.097 41.7995 117.988C41.8526 118.184 42.0881 118.411 42.2096 118.577C42.5362 119.052 42.8703 119.528 43.1893 120.003C43.326 120.207 42.9994 120.388 42.8627 120.192C42.4982 119.694 42.1336 119.196 41.7767 118.698C41.5564 118.396 41.2298 118.056 41.2754 117.648L41.283 117.656Z" fill="#7F4133"/>
<path id="Vector_56" d="M45.2324 118.139C46.9564 120.577 48.1944 123.393 49.3032 126.148C49.5083 126.653 48.6881 126.865 48.483 126.374C47.3589 123.657 45.9083 121.136 44.5716 118.524C44.3438 118.079 44.9514 117.739 45.2324 118.139Z" fill="#7F4133"/>
<path id="Vector_57" d="M64.0981 110.787C66.8094 110.81 69.574 111.489 72.1714 112.229C72.6651 112.372 72.4601 113.119 71.9588 112.991C69.3234 112.327 66.6576 112.01 63.9993 111.489C63.5968 111.413 63.6955 110.779 64.0981 110.779V110.787Z" fill="#7F4133"/>
<path id="Vector_58" d="M173.426 29.3108C173.426 29.3938 173.426 29.4768 173.434 29.5523C173.563 32.7679 176.229 35.3419 179.495 35.3419C180.801 35.3419 182.092 34.9192 183.14 34.1341C183.596 33.7945 183.953 33.4623 184.166 32.9264C184.401 32.3301 184.819 31.8093 185.077 31.2129C185.214 30.8884 185.32 30.5562 185.381 30.209C185.495 29.5372 185.518 28.8428 185.411 28.171C185.388 27.9974 185.358 27.8313 185.312 27.6577C185.221 27.318 185.077 27.001 184.895 26.6991C184.682 26.3518 184.416 26.0273 184.143 25.7102C182.928 24.344 180.832 23.1287 178.963 23.2948C177.186 23.4458 175.53 24.5176 174.611 26.0424C174.27 26.6085 173.897 27.3105 173.67 28.02C173.525 28.4578 173.434 28.8956 173.434 29.3032L173.426 29.3108Z" fill="#FA8747"/>
<path id="Vector_59" d="M173.427 29.3108C173.427 29.3938 173.427 29.4768 173.434 29.5523C173.692 28.9485 174.133 28.488 174.976 28.5484C176.077 28.6239 176.791 29.741 177.475 30.511C178.325 31.4696 179.313 32.5264 180.71 32.5188C182.996 32.5037 184.865 30.3902 185.411 28.1634C185.389 27.9898 185.358 27.8238 185.313 27.6502C185.222 27.3105 185.077 26.9935 184.895 26.6915C184.903 28.4654 183.9 30.043 182.305 30.8733C181.173 31.4545 180.08 31.5073 179.092 30.6468C178.561 30.1864 178.151 29.6127 177.672 29.1145C176.806 28.2238 175.492 27.4464 174.186 27.8011C173.996 27.854 173.829 27.9294 173.677 28.02C173.533 28.4578 173.442 28.8956 173.442 29.3032L173.427 29.3108Z" fill="#B21924"/>
<path id="Vector_60" d="M167.465 29.8165C167.525 31.7791 168.391 34.6323 170.358 35.5381C170.776 35.7268 170.51 36.376 170.085 36.1948C167.844 35.2739 166.766 32.1338 166.682 29.9297C166.66 29.4315 167.442 29.3183 167.465 29.8165Z" fill="#7297C4"/>
<path id="Vector_61" opacity="0.5" d="M146.275 45.0188C153.217 39.4179 161.176 35.123 169.667 32.3527C170.032 32.232 170.29 32.7679 169.925 32.8887C161.48 35.674 153.619 39.9539 146.693 45.5094C146.374 45.766 145.963 45.283 146.282 45.0188H146.275Z" fill="#7297C4"/>
<path id="Vector_62" d="M228.543 176.767C231.512 181.446 233.852 187.289 230.662 192.482C229.72 194.022 227.32 192.641 228.224 191.071C230.692 186.791 228.148 182.05 226.363 178.027C225.725 176.585 227.654 175.37 228.535 176.767H228.543Z" fill="#D6E8E5"/>
<path id="Vector_63" d="M223.933 171.792C224.479 171.505 225.163 171.656 225.49 172.2C225.649 172.464 225.808 172.728 225.968 172.992C226.272 173.498 226.097 174.253 225.558 174.54C225.011 174.827 224.327 174.676 224.001 174.132L223.522 173.34C223.219 172.834 223.393 172.079 223.933 171.792Z" fill="#D6E8E5"/>
<path id="Vector_64" d="M84.4674 43.8941C97.0977 33.5378 100.204 16.3202 110.852 4.38635C111.718 3.41262 113.123 4.8317 112.28 5.80542C101.784 17.8902 98.8673 35.1683 86.0927 45.5094C84.9611 46.4227 83.3282 44.8376 84.4674 43.8941Z" fill="#EDF6F9"/>
<path id="Vector_65" d="M13.106 124.615C13.6528 124.615 13.9718 125.046 14.025 125.529C14.1389 126.57 14.2604 127.605 14.3743 128.646C14.4275 129.129 13.9262 129.529 13.4781 129.537C12.9465 129.537 12.6427 129.122 12.582 128.646C12.4452 127.605 12.3085 126.57 12.1794 125.529C12.1187 125.031 12.6503 124.615 13.0984 124.615H13.106Z" fill="#D6E8E5"/>
<path id="Vector_66" d="M12.4758 120.177C12.9467 120.2 13.3492 120.554 13.3492 121.045V121.543C13.3492 121.996 12.9467 122.426 12.4758 122.404C12.0049 122.381 11.61 122.026 11.61 121.543V121.045C11.6024 120.592 12.0125 120.162 12.4758 120.177Z" fill="#D6E8E5"/>
<path id="Vector_67" d="M208.378 47.9022C207.771 48.959 206.738 49.7063 205.887 50.5592C205.09 51.3593 204.376 52.1594 203.784 53.1332C203.396 53.7823 203.001 54.439 202.454 54.9599C201.452 55.9185 200.229 56.0468 199.075 55.3146C198.778 55.1259 198.125 51.4801 198.148 50.3252C198.156 49.8346 199.508 47.7286 199.895 47.4191C201.801 45.9246 203.753 44.8074 206.191 44.664C207.034 44.6112 207.976 44.7168 208.508 45.4717C209.032 46.2114 208.796 47.1851 208.371 47.9098L208.378 47.9022Z" fill="#5B4040"/>
<path id="Vector_68" d="M188.814 50.0157C188.282 49.3137 187.849 48.5438 187.249 47.8947C186.649 47.2531 185.829 46.7398 184.948 46.77C184.675 46.7775 184.371 46.8606 184.219 47.087C183.999 47.4191 184.219 47.8645 184.432 48.1966C185.13 49.2534 185.951 50.2346 186.862 51.1102C187.204 51.4348 187.561 51.7518 188.001 51.933C188.381 52.0915 190.606 52.2953 190.621 51.6839C190.621 51.4348 189.862 51.1102 189.68 50.9593C189.353 50.68 189.064 50.3554 188.806 50.0082L188.814 50.0157Z" fill="#FC9081"/>
<path id="Vector_69" d="M202.348 134.134C202.348 134.134 203.047 138.006 201.832 140.686C200.616 143.365 199.371 147.585 199.333 149.51C199.295 151.435 199.652 152.989 197.715 152.952C195.778 152.914 193.887 150.174 195.102 147.502C196.318 144.83 197.556 140.988 196.416 139.81C195.277 138.633 194.13 137.455 191.434 136.625C188.73 135.802 178.363 129.816 178.052 125.952C177.741 122.087 179.867 112.478 178.796 107.443C177.725 102.408 188.859 109.179 188.859 109.179L202.356 134.134H202.348Z" fill="#5B4040"/>
<path id="Vector_70" d="M166.72 88.7384C166.72 88.7384 159.315 90.1424 158.123 91.6596C156.93 93.1768 153.68 100.446 154.827 101.631C155.973 102.816 158.29 103.239 160.264 101.352C162.239 99.457 159.68 94.8224 161.791 94.2638C163.902 93.7052 170.062 96.5283 170.062 96.5283L166.72 88.746V88.7384Z" fill="#4A3333"/>
<path id="Vector_71" d="M166.409 85.5983C166.553 87.576 166.948 89.4706 167.518 91.2747C169.401 97.2453 173.199 102.235 176.108 105.843C179.898 110.545 187.462 121.113 188.214 122.283C188.632 122.932 189.148 124.525 190.044 126.495C190.758 128.073 191.73 129.892 193.075 131.635C195.3 134.511 201.3 136.625 205.401 138.331C206.882 138.942 208.12 139.516 208.834 140.037C211.515 142.014 213.338 147.834 214.842 150.566C216.345 153.299 220.173 156.069 220.994 153.774C221.814 151.472 219.923 148.74 218.389 147.94C216.854 147.14 215.092 137.848 213.961 135.893C213.201 134.572 209.601 132.134 207.133 130.216C205.963 129.303 205.037 128.503 204.801 128.005C204.049 126.45 204.619 117.58 202.766 112.916C200.92 108.251 197.897 103.563 196.014 100.823C194.123 98.0832 192.399 86.8665 191.7 82.9942C191.001 79.1219 192.687 72.2077 192.687 72.2077C193.363 70.3131 194.465 68.2599 195.642 66.3125C196.158 65.4595 196.69 64.6217 197.222 63.8291C197.616 63.2252 198.004 62.6365 198.384 62.0854C199.804 59.9795 200.943 58.349 201.125 57.6999C201.543 56.1676 201.163 55.7751 200.791 54.6051C200.427 53.4427 200.86 51.1329 200.108 49.9629C199.348 48.7929 198.589 48.0079 197.054 47.2078C195.52 46.4077 196.006 41.3956 196.006 41.3956C196.006 41.3956 195.262 39.8406 194.092 40.203C192.923 40.5653 191.351 41.305 190.143 43.5997C188.936 45.8944 190.796 49.7893 189.232 50.529C187.66 51.2763 183.513 45.0188 182.738 45.0037C181.963 44.9886 181.538 46.9058 182.282 48.4683C183.034 50.0308 184.872 55.0806 184.849 56.2355C184.819 57.7905 183.71 59.3605 182.7 60.5758C182.586 60.7117 182.48 60.8475 182.366 60.9683C181.196 62.3345 179.184 62.9761 178.47 64.7273C178.348 65.0217 178.272 65.3312 178.128 65.6105C177.733 66.3502 176.89 66.7276 176.131 67.1051C175.371 67.4825 174.566 68.0033 174.391 68.8185C174.353 68.9846 174.346 69.1657 174.262 69.3167C174.186 69.4601 174.05 69.5658 173.913 69.6639C171.384 71.5359 168.969 73.2116 167.579 76.1177C166.234 78.9181 166.439 81.8846 166.432 84.8813C166.432 85.1228 166.432 85.3568 166.424 85.5983H166.409Z" fill="#6C4E4E"/>
<path id="Vector_72" d="M188.814 53.9786C189.976 53.5861 191.244 53.6993 192.452 53.6163C193.94 53.5106 195.292 52.9973 196.568 52.2198C198.368 51.1253 200.191 52.6803 200.723 54.507C200.821 54.8391 200.282 55.0655 200.145 54.7334C199.826 53.9559 199.363 53.254 198.581 52.8614C197.449 52.2953 196.583 53.2992 195.611 53.7069C194.145 54.3258 192.657 54.3636 191.085 54.4239C190.166 54.4617 188.867 54.5825 188.343 55.526C187.735 56.6356 189.505 57.4433 190.242 57.8811C191.874 58.8472 193.295 59.3907 195.186 59.5266C195.672 59.5643 195.361 59.9266 194.867 59.904C192.444 59.7832 190.234 59.3379 188.305 57.8509C187.637 57.3376 186.999 56.6356 187.097 55.7222C187.196 54.8164 188.016 54.2503 188.814 53.9786Z" fill="#4A3333"/>
<path id="Vector_73" d="M185.047 55.7373C185.472 57.013 185.624 58.3188 185.525 59.6549C185.487 60.1304 184.735 60.1229 184.773 59.6398C184.88 58.3641 184.735 57.1338 184.371 55.9109C184.242 55.4807 184.902 55.3222 185.047 55.7373Z" fill="#4A3333"/>
<path id="Vector_74" d="M193.773 40.0671C194.29 39.8255 194.814 39.6066 195.376 39.5538C195.877 39.5085 196.12 39.7727 196.158 40.2407C196.173 40.4445 196.143 40.6483 196.105 40.8521C196.052 41.154 196.044 41.4635 195.999 41.7655C195.976 41.9391 195.961 42.392 195.786 42.475C195.68 42.5278 195.543 42.4976 195.444 42.4373C195.338 42.3769 195.262 42.2863 195.171 42.2033C194.624 41.6673 193.872 41.4031 193.173 41.0861C193.059 41.0333 192.946 40.9804 192.877 40.8748C192.642 40.5124 193.196 40.3464 193.416 40.2332C193.53 40.1728 193.652 40.1199 193.773 40.0595V40.0671Z" fill="#1A1A1A"/>
<path id="Vector_75" d="M195.718 48.5514C195.839 48.5363 195.953 48.5438 196.067 48.5589C196.143 48.5589 196.219 48.5589 196.302 48.5967C196.606 48.7325 196.948 48.8986 197.123 49.2005C197.335 49.5553 197.229 50.0459 196.819 50.2045C196.135 50.4611 195.475 49.7591 195.269 49.1854C195.156 48.8684 195.414 48.5891 195.718 48.5514Z" fill="#1A1A1A"/>
<path id="Vector_76" d="M199.378 107.066C199.378 107.066 210.877 114.614 213.194 115.429C215.51 116.244 218.275 113.595 221.358 114.81C224.442 116.025 224.419 117.18 222.862 117.158C221.305 117.135 219.376 116.705 217.819 117.06C216.262 117.414 213.505 119.294 211.181 118.864C208.857 118.433 200.814 112.878 200.814 112.878L199.371 107.066H199.378Z" fill="#6C4E4E"/>
<path id="Vector_77" d="M168.414 91.2596C169.5 91.5539 170.586 91.8483 171.68 92.1427C172.212 92.2861 172.751 92.4371 173.214 92.739C174.543 93.592 174.847 95.3507 175.363 96.8377C176.206 99.2532 177.9 101.352 178.47 103.85C178.629 104.567 178.698 105.322 179.055 105.971C179.404 106.62 180.148 107.149 180.862 106.952C180.801 107.994 181.136 109.051 181.781 109.866C181.963 110.1 182.206 110.327 182.495 110.372C182.723 110.41 182.958 110.334 183.179 110.402C183.467 110.485 183.619 110.779 183.756 111.051C184.986 113.602 186.209 116.161 187.409 118.728C187.599 119.143 187.796 119.551 187.986 119.966C188.32 121.294 188.654 122.63 188.989 123.959C188.685 123.196 188.442 122.608 188.222 122.275C187.47 121.105 179.905 110.538 176.115 105.835C173.206 102.227 169.409 97.2302 167.525 91.2596C167.776 91.0935 168.125 91.1614 168.422 91.2445L168.414 91.2596Z" fill="#E5D5CA"/>
<path id="Vector_78" d="M186.33 113.24C189.528 120.177 188.837 132.066 197.685 134.813C198.102 134.941 198.186 135.228 197.768 135.092C187.644 131.922 188.89 120.751 185.692 113.595C185.503 113.172 186.133 112.81 186.33 113.24Z" fill="#4A3333"/>
<path id="Vector_79" d="M166.417 84.8812C168.156 83.8622 169.842 82.7375 171.528 81.6279C172.386 81.0618 173.267 80.5108 174.027 79.8012C174.391 79.4616 174.725 79.0842 174.991 78.669C175.211 78.3218 175.401 77.7934 175.401 77.3858C175.401 77.1593 175.356 76.9404 175.371 76.7215C175.401 76.4045 175.576 76.1026 175.827 75.8988C176.146 75.6346 176.525 75.6421 176.867 75.4534C177.186 75.2798 177.406 74.9703 177.543 74.6458C177.733 74.1778 177.816 73.6645 178.097 73.2493C178.72 72.336 179.7 72.5247 180.596 72.1624C181.394 71.8378 181.652 70.8716 182.404 70.5093C182.715 70.3583 183.072 70.3508 183.414 70.3432C185.039 70.3281 186.68 70.4489 188.275 70.1243C189.68 69.8451 190.994 69.2336 192.254 68.5694C193.47 67.9353 194.609 67.2183 195.642 66.32C196.158 65.467 196.69 64.6292 197.214 63.8366C197.616 63.2328 198.004 62.6515 198.376 62.093C197.518 62.2137 196.697 62.6893 195.839 62.5685C195.634 62.5383 195.429 62.4779 195.216 62.5157C194.989 62.561 194.799 62.727 194.624 62.878C194.183 63.263 193.72 63.6253 193.166 63.8291C192.619 64.0329 191.981 64.048 191.472 63.7536C191.389 63.7083 191.305 63.6479 191.206 63.6328C191.054 63.6102 190.91 63.6932 190.773 63.7687C189.68 64.4405 188.442 65.0519 187.158 64.8934C186.877 64.8632 186.558 64.7424 186.505 64.4707C186.437 64.1386 186.824 63.8291 186.74 63.4969C185.708 63.6404 184.652 63.5951 183.634 63.3535C183.619 62.9988 183.703 62.6364 183.877 62.3194C183.687 62.2288 183.429 62.3647 183.277 62.2213C183.216 62.1684 183.201 62.0854 183.178 62.0099C183.118 61.7005 183.178 61.4136 183.148 61.1117C183.11 60.7796 182.867 60.8399 182.677 60.5758C182.563 60.7116 182.457 60.8475 182.351 60.9683C181.181 62.3345 179.168 62.9761 178.447 64.7198C178.325 65.0142 178.249 65.3236 178.105 65.6029C177.71 66.3427 176.609 66.7201 175.849 67.0975C175.09 67.4749 174.414 67.8825 174.232 68.7053C174.194 68.8713 174.323 69.1582 174.247 69.3091C174.171 69.4525 174.034 69.5582 173.898 69.6563C171.368 71.5283 168.748 73.038 167.358 75.9441C166.014 78.752 166.424 81.877 166.417 84.8737V84.8812Z" fill="#E5D5CA"/>
<path id="Vector_80" d="M191.381 151.351C192.642 154.061 194.518 156.092 196.994 157.745C197.366 157.994 197.024 158.537 196.637 158.326C193.963 156.915 191.882 154.363 190.819 151.57C190.697 151.246 191.237 151.034 191.381 151.344V151.351Z" fill="#7297C4"/>
<path id="Vector_81" d="M210.026 49.9402C210.968 48.9665 212.426 47.2379 210.991 46.0076C210.641 45.7056 211.158 45.2226 211.507 45.5169C213.277 47.019 211.758 49.2156 210.543 50.4762C210.209 50.8234 209.7 50.2875 210.026 49.9478V49.9402Z" fill="#7297C4"/>
<path id="Vector_82" d="M196.576 64.9613C196.576 64.9613 183.361 68.6751 180.999 62.2062C180.999 62.2062 178.895 62.2968 178.098 63.4441C177.3 64.5839 181.113 68.1316 186.536 68.6222C191.958 69.1129 195.376 66.8937 195.376 66.8937C195.376 66.8937 197.206 65.7539 196.576 64.9613Z" fill="#ED4450"/>
<path id="Vector_83" d="M176.67 76.9178C176.67 76.9178 171.125 82.6017 168.376 84.0887C165.627 85.5833 160.538 87.7949 159.338 89.7046C158.298 91.3577 159.482 94.9205 159.87 96.6189C160.204 98.0983 160.599 99.5627 161.085 100.997C161.449 102.084 162.072 103.714 162.984 104.431C163.439 104.786 164.092 104.658 164.647 104.492C165.217 104.318 165.786 104.122 166.242 103.744C167.085 103.035 167.328 101.789 167.07 100.718C166.538 98.4757 162.315 95.7735 162.953 93.441C163.371 91.9087 167.67 90.4444 168.816 91.2369C169.963 92.0295 178.872 93.358 183.224 89.1989C187.576 85.0398 176.67 76.9178 176.67 76.9178Z" fill="#6C4E4E"/>
<path id="Vector_84" d="M167.48 91.1463C167.48 91.1463 167.472 91.0709 167.487 91.0331C167.541 90.935 167.677 90.935 167.784 90.9501C168.429 91.0407 169.044 91.2671 169.675 91.4558C170.791 91.7879 171.953 91.9691 173.123 92.0144C174.27 92.0521 175.394 91.8332 176.518 91.6219C178.925 91.1614 181.295 90.6331 183.421 89.4027C183.794 89.1913 183.93 89.4631 183.596 89.7046C182.351 90.5953 180.961 91.2747 179.525 91.7955C177.87 92.3918 176.13 92.7843 174.376 92.9806C172.477 93.1919 170.541 92.422 168.779 91.803C168.414 91.6747 168.042 91.5464 167.7 91.3652C167.609 91.3199 167.51 91.2445 167.487 91.1539L167.48 91.1463Z" fill="#4A3333"/>
</g>
</svg>
