<svg width="20" height="20" viewBox="0 0 20 20" fill="none" xmlns="http://www.w3.org/2000/svg">
<g id="CaretDown">
<path id="Vector" d="M3.26932 12.4216L9.35424 6.27134C9.43904 6.18533 9.5398 6.11709 9.65074 6.07053C9.76169 6.02397 9.88063 6 10.0008 6C10.1209 6 10.2398 6.02397 10.3508 6.07053C10.4617 6.11709 10.5625 6.18533 10.6473 6.27134L16.7322 12.4216C16.9037 12.5949 17 12.83 17 13.0751C17 13.3202 16.9037 13.5552 16.7322 13.7286C16.5607 13.9019 16.3282 13.9992 16.0857 13.9992C15.8432 13.9992 15.6106 13.9019 15.4392 13.7286L10 8.23097L4.56085 13.7293C4.38938 13.9026 4.15682 14 3.91432 14C3.67183 14 3.43927 13.9026 3.2678 13.7293C3.09633 13.556 3 13.321 3 13.0759C3 12.8308 3.09633 12.5957 3.2678 12.4224L3.26932 12.4216Z" fill="#7A6BB9"/>
</g>
</svg>
