<svg width="181" height="198" viewBox="0 0 181 198" fill="none" xmlns="http://www.w3.org/2000/svg">
<g id="characters" clip-path="url(#clip0_291_1446)">
<path id="Vector" d="M168.699 196.264C168.699 196.264 186.341 129.656 179.37 120.586C172.397 111.515 164.211 118.47 162.09 105.77C159.969 93.0723 185.131 26.252 167.548 10.2269C149.965 -5.79812 36.2798 9.3202 25.0637 25.9497C13.8477 42.5793 10.647 196.569 10.647 196.569L168.702 196.261L168.699 196.264Z" fill="#DAD6EB"/>
<path id="Vector_2" d="M143.523 49.7005C143.523 49.2502 142.821 49.2502 142.821 49.7005V80.6526H142.138L142.327 48.729L174.992 49.2934L174.614 80.6526H143.52V49.7005H143.523Z" fill="#7A6BB9"/>
<path id="Vector_3" d="M145.53 51.3566H172.549V78.5832H145.53V51.3566Z" fill="white"/>
<path id="Vector_4" d="M3.66446 15.2386H101.597V196.569H3.66446V15.2386Z" fill="#DDBCA6"/>
<path id="Vector_5" d="M10.644 22.1378H94.4814V196.572H10.644V22.1378Z" fill="#493333"/>
<path id="Vector_6" d="M10.644 169.386V196.572H92.4838L63.5638 123.004C63.5638 123.004 44.1623 124.515 42.647 126.328C41.1317 128.142 42.647 139.026 41.7378 139.935C40.8287 140.842 32.037 139.935 31.1279 141.144C30.2187 142.353 31.734 153.539 30.8248 153.842C29.9157 154.144 19.9118 153.539 19.0027 154.748C18.0935 155.957 19.0027 168.658 18.0935 168.96C17.4905 169.16 13.4085 169.096 10.647 169.383L10.644 169.386Z" fill="#3D2B2B"/>
<path id="Vector_7" d="M47.5701 86.8085C52.0973 81.9325 56.6307 77.0596 61.1765 72.1991C61.727 71.6131 62.5403 72.2114 62.4753 72.8498C63.0381 72.9208 63.4958 73.6424 62.967 74.1544C62.7877 74.324 62.6114 74.4967 62.432 74.6694C62.4258 74.6972 62.4197 74.7219 62.4104 74.7465C62.9639 74.7219 63.4649 75.4559 62.9794 76.0018C55.2021 84.7113 47.1433 93.1803 39.2052 101.748C31.267 110.316 23.332 118.889 15.3877 127.451L10.6409 132.571V126.55C22.9052 113.264 35.2655 100.064 47.5701 86.8116V86.8085Z" fill="#3D2B2B"/>
<path id="Vector_8" d="M89.8707 195.005V23.6675L93.1795 23.0291H94.4814V195.557H93.1795L89.8707 195.005Z" fill="#8A664E"/>
<path id="Vector_9" d="M45.8692 194.57L93.1796 195.573V23.0352L44.2643 25.0368L45.8692 194.57Z" fill="#DDBCA6"/>
<path id="Vector_10" d="M93.7826 55.7299C94.3299 55.7299 94.7721 55.2889 94.7721 54.743V48.0042C94.7721 47.4583 94.3299 47.0173 93.7826 47.0173C93.2352 47.0173 92.793 47.4583 92.793 48.0042V54.743C92.793 55.2889 93.2352 55.7299 93.7826 55.7299Z" fill="#DDBCA6"/>
<path id="Vector_11" d="M93.1734 55.5202C93.5475 56.0322 94.1567 55.7052 94.3856 55.2827C94.5742 54.9342 94.5959 54.4901 94.6175 54.1015C94.6484 53.5741 94.6175 53.0375 94.602 52.5101C94.5773 51.4214 94.5526 50.3296 94.5402 49.2409C94.5371 48.9418 94.9886 48.9449 95.001 49.2409C95.0535 50.2834 95.0999 51.3258 95.1432 52.3682C95.1803 53.2657 95.304 54.2526 95.0535 55.1316C94.7814 56.0908 93.2909 57.0808 92.7126 55.7885C92.5734 55.477 92.9693 55.2426 93.1703 55.5202H93.1734Z" fill="#A68064"/>
<path id="Vector_12" d="M92.391 49.5339C92.4343 48.5563 92.4621 46.385 93.9805 46.6934C94.3175 46.7613 94.1691 47.2517 93.8413 47.2023C92.8858 47.0543 92.9724 49.5 92.9724 50.0983C92.9724 50.4746 92.8981 51.0174 93.0311 51.3659C93.1826 51.7606 93.8382 51.5663 94.2279 51.5694C94.6082 51.5725 94.5897 52.1061 94.2279 52.1462C93.7857 52.1924 92.8456 52.4299 92.5363 52.0074C92.3724 51.7822 92.425 51.3474 92.4095 51.0852C92.3755 50.5702 92.3693 50.052 92.3941 49.5339H92.391Z" fill="#A68064"/>
<path id="Vector_13" d="M93.7826 174.086C94.3299 174.086 94.7721 173.645 94.7721 173.099V166.36C94.7721 165.814 94.3299 165.373 93.7826 165.373C93.2352 165.373 92.793 165.814 92.793 166.36V173.099C92.793 173.645 93.2352 174.086 93.7826 174.086Z" fill="#DDBCA6"/>
<path id="Vector_14" d="M93.1734 173.873C93.5475 174.385 94.1567 174.058 94.3856 173.636C94.5742 173.287 94.5959 172.843 94.6175 172.454C94.6484 171.927 94.6175 171.39 94.602 170.863C94.5773 169.774 94.5526 168.682 94.5402 167.594C94.5371 167.295 94.9886 167.298 95.001 167.594C95.0535 168.636 95.0999 169.679 95.1432 170.721C95.1803 171.618 95.304 172.605 95.0535 173.484C94.7814 174.444 93.2909 175.434 92.7126 174.141C92.5734 173.83 92.9693 173.595 93.1703 173.873H93.1734Z" fill="#A68064"/>
<path id="Vector_15" d="M92.391 167.89C92.4343 166.912 92.4621 164.741 93.9805 165.049C94.3175 165.117 94.1691 165.608 93.8413 165.558C92.8858 165.41 92.9724 167.856 92.9724 168.454C92.9724 168.83 92.8981 169.373 93.0311 169.722C93.1826 170.117 93.8382 169.922 94.2279 169.925C94.6082 169.928 94.5897 170.462 94.2279 170.502C93.7857 170.548 92.8456 170.786 92.5363 170.363C92.3724 170.138 92.425 169.703 92.4095 169.441C92.3755 168.926 92.3693 168.408 92.3941 167.89H92.391Z" fill="#A68064"/>
<path id="Vector_16" d="M94.9669 21.342C96.7234 19.7321 98.4892 18.1808 100.094 16.4136C100.397 16.0775 100.892 16.574 100.589 16.9071C98.9963 18.6805 97.2924 20.4415 95.3751 21.8694C95.0659 22.1007 94.6855 21.5949 94.9638 21.339L94.9669 21.342Z" fill="#D3AC92"/>
<path id="Vector_17" d="M5.17355 16.0004C6.78777 17.7522 8.34325 19.5132 10.1152 21.1138C10.4523 21.4161 9.95437 21.9095 9.62039 21.6073C7.84227 20.019 6.07653 18.3196 4.64167 16.4075C4.41283 16.0991 4.91688 15.7197 5.17355 15.9973V16.0004Z" fill="#D3AC92"/>
<path id="Vector_18" d="M47.4742 101.412C47.066 101.529 46.7166 101.739 46.4939 102.081C46.3362 102.325 46.3176 102.633 46.3053 102.923C46.1754 106.201 46.1352 109.486 46.1816 112.767C46.2063 114.408 46.2496 116.049 46.3176 117.69C46.3517 118.51 46.3919 119.33 46.4352 120.148C46.463 120.635 46.3393 121.394 46.9547 121.551C47.7958 121.77 48.6802 121.832 49.5461 121.727C50.0223 121.671 50.5511 121.523 50.7799 121.104C50.8882 120.906 50.9129 120.672 50.9346 120.447C51.0706 119.053 50.9593 117.594 50.9809 116.182C51.0057 114.643 51.0212 113.104 51.0335 111.565C51.0552 108.521 51.0521 105.477 51.0521 102.433C51.0521 101.8 50.9253 101.578 50.3316 101.467C49.6048 101.332 48.3926 101.143 47.4742 101.409V101.412Z" fill="#F3B34E"/>
<path id="Vector_19" d="M49.9914 120.947C50.6222 119.602 50.4027 117.677 50.446 116.222C50.4924 114.624 50.5109 113.03 50.5171 111.432C50.5325 108.326 50.6748 105.168 50.3594 102.075C50.3192 101.686 50.9933 101.591 51.049 101.982C51.5252 105.276 51.352 108.712 51.3304 112.033C51.3211 113.764 51.2933 115.494 51.2314 117.221C51.185 118.55 51.3335 120.145 50.6841 121.354C50.4367 121.813 49.7749 121.409 49.9914 120.95V120.947Z" fill="#D49739"/>
<path id="Vector_20" d="M47.6968 109.19C47.8638 108.693 48.4297 108.764 48.8812 108.73C50.3563 108.626 51.8283 108.573 53.3064 108.579C53.9373 108.579 54.5341 108.468 55.1433 108.709C55.2546 108.755 55.369 108.811 55.4402 108.909C55.5329 109.039 55.536 109.208 55.5267 109.369C55.4989 109.939 55.3876 110.491 55.2917 111.05C55.2144 111.5 55.4 111.898 54.7691 111.91C54.163 111.919 53.5724 111.895 52.9724 111.876C52.3632 111.858 51.754 111.839 51.1448 111.827C50.2388 111.811 48.8287 112.129 48.0308 111.555C47.2948 111.025 47.4464 109.93 47.6938 109.187L47.6968 109.19Z" fill="#F3B34E"/>
<path id="Vector_21" d="M46.8279 108.928C47.0938 108.394 48.0586 108.363 48.5782 108.388C48.7513 108.394 49.0266 108.533 49.0204 108.733C48.7359 108.885 48.3957 108.882 48.0741 108.922C47.7525 108.962 47.4031 109.073 47.2484 109.356C47.1804 109.477 47.1588 109.616 47.1371 109.751C47.0784 110.152 47.0505 110.556 47.0474 110.96C47.0474 111.034 47.0474 111.111 47.0691 111.182C47.1031 111.29 47.1835 111.377 47.2732 111.444C47.3381 111.494 47.4464 111.592 47.5299 111.596C48.6802 111.617 49.8182 111.605 50.9686 111.666C51.3397 111.685 51.4757 112.293 51.0613 112.354C50.3408 112.459 49.5646 112.496 48.8132 112.441C47.8329 112.462 46.7846 112.24 46.6825 111.25C46.6145 110.612 46.531 109.526 46.8248 108.934L46.8279 108.928Z" fill="#D49739"/>
<path id="Vector_22" d="M47.6999 115.719C47.87 115.463 48.1854 115.337 48.4823 115.435C48.7792 115.534 48.9771 115.815 48.9895 116.126C49.0018 116.394 48.8812 116.635 48.7266 116.845C48.7328 117.215 48.739 117.585 48.7266 117.955C48.7111 118.473 47.935 118.473 47.9226 117.955C47.9133 117.634 47.9133 117.31 47.9195 116.99C47.8267 116.937 47.7556 116.848 47.7123 116.743C47.7061 116.724 47.6999 116.703 47.6938 116.681C47.6752 116.66 47.6566 116.638 47.6443 116.607C47.5206 116.327 47.5299 115.984 47.703 115.722L47.6999 115.719Z" fill="#AA6F2F"/>
<path id="Vector_23" d="M2.73367 15.5038C2.75532 14.9209 3.61809 14.9209 3.63973 15.5038C4.08813 27.1834 3.80672 38.9153 3.80981 50.601C3.8129 62.2991 3.81908 74.0002 3.81908 85.6982V195.733C3.81908 196.544 2.55431 196.544 2.55431 195.733V125.539C2.55431 102.035 2.55429 78.5307 2.56048 55.0267C2.56357 41.8699 2.22652 28.6514 2.73367 15.5007V15.5038Z" fill="#D3AC92"/>
<path id="Vector_24" d="M0.519516 196.211C27.7541 195.964 54.9979 196.146 82.2356 196.146H105.453C106.229 196.146 106.232 197.352 105.453 197.352C78.2155 197.352 50.9779 197.352 23.7371 197.34C15.9969 197.337 8.25665 197.359 0.519516 197.291C-0.17627 197.284 -0.17627 196.22 0.519516 196.214V196.211Z" fill="#867997"/>
<path id="Vector_25" d="M119.23 39.088C119.23 39.088 120.634 34.9553 117.081 32.5929C113.28 30.067 110.642 35.5968 110.642 35.5968C110.865 34.8505 110.188 32.4572 108.521 33.6168C106.854 34.7734 106.95 40.7134 106.95 40.7134C106.95 40.7134 106.325 40.0657 105.682 40.1706C104.594 40.3495 106.427 42.4127 106.427 42.4127C106.427 42.4127 104.556 44.0966 105.215 45.6202C105.874 47.1438 110.206 50.635 111.836 50.8169C114.035 51.0606 118.352 45.136 118.352 45.136L119.233 39.0911L119.23 39.088Z" fill="#802C30"/>
<path id="Vector_26" d="M118.794 38.2831C118.794 38.2831 124.261 45.9687 123.856 48.6087C123.639 50.0027 121.568 51.4615 120.476 51.9858C117.115 53.5988 114.035 52.9758 111.839 49.7375C111.839 49.7375 108.233 51.1747 108.069 46.8631C107.98 44.5068 111.193 46.4591 111.193 46.4591C111.193 46.4591 111.805 45.8607 110.936 43.4212C112.745 43.2392 116.499 39.5877 116.629 37.3733C116.629 37.3733 117.479 38.1659 118.797 38.2862L118.794 38.2831Z" fill="#E5936F"/>
<path id="Vector_27" d="M120.606 44.8492C120.535 44.7135 120.355 44.6549 120.216 44.7289C120.08 44.8029 119.947 44.8738 119.811 44.9478C119.675 45.0219 119.619 45.1977 119.691 45.3364C119.762 45.4721 119.941 45.5307 120.077 45.4567C120.213 45.3827 120.346 45.3118 120.482 45.2378C120.618 45.1637 120.674 44.9879 120.603 44.8492H120.606Z" fill="#CF5D4C"/>
<path id="Vector_28" d="M115.228 40.627C114.975 40.9293 114.672 41.1883 114.433 41.506C114.192 41.8267 113.991 42.1752 113.762 42.5052C113.555 42.8013 114.013 43.1467 114.22 42.8445C114.449 42.5145 114.647 42.1629 114.891 41.8452C115.129 41.5307 115.429 41.2685 115.686 40.9663C115.921 40.6887 115.463 40.3464 115.228 40.627Z" fill="#802C30"/>
<path id="Vector_29" d="M118.574 40.0657C118.484 40.0349 118.416 39.9578 118.398 39.8591C118.37 39.711 118.469 39.5661 118.617 39.5383C118.651 39.5321 119.496 39.3779 120.346 39.6339C120.491 39.6771 120.575 39.8313 120.532 39.9763C120.488 40.1212 120.334 40.2045 120.188 40.1613C119.471 39.9454 118.729 40.078 118.72 40.078C118.67 40.0873 118.621 40.0811 118.574 40.0657Z" fill="#802C30"/>
<path id="Vector_30" d="M114.934 43.6679C114.944 43.4551 115.154 43.2454 115.327 43.1406C115.531 43.0141 115.723 42.8815 115.97 42.8568C116.159 42.8383 116.536 42.8445 116.675 42.9956C116.784 43.1128 116.74 43.341 116.604 43.415C116.524 43.4582 116.434 43.4397 116.351 43.4212C116.233 43.3996 116.137 43.4089 116.023 43.4459C115.785 43.5199 115.655 43.6093 115.559 43.8345C115.491 43.9949 115.367 44.109 115.182 44.072C114.978 44.0319 114.897 43.8592 114.941 43.6679C114.941 43.6525 114.931 43.7173 114.941 43.6679H114.934Z" fill="#1A1A1A"/>
<path id="Vector_31" d="M121.339 42.4374C121.385 42.422 121.404 42.3634 121.404 42.314C121.413 42.0734 121.224 41.8606 121.002 41.7681C120.757 41.6663 120.392 41.6201 120.151 41.7434C120.093 41.7743 120.037 41.8175 120.018 41.8791C119.978 42.021 120.015 42.1536 120.123 42.2554C120.346 42.462 120.538 42.2647 120.77 42.2122C120.869 42.1906 120.943 42.203 121.036 42.24C121.076 42.2554 121.326 42.4405 121.339 42.4374Z" fill="#1A1A1A"/>
<path id="Vector_32" d="M120.816 70.2869C114.409 70.108 107.822 59.8133 107.822 59.8133C107.822 59.8133 111.706 58.1386 112.272 57.1517C112.983 55.9088 111.205 49.3396 111.205 49.3396L112.6 49.5247L114.375 49.7622L119.217 50.4067C119.217 50.4067 119.304 50.8663 119.443 51.4954C119.647 52.4299 119.966 53.7437 120.284 54.4901C120.321 54.5734 120.371 54.6566 120.436 54.7337C121.323 55.8255 126.157 58.0399 126.157 58.0399C126.157 58.0399 127.224 70.4689 120.816 70.29V70.2869Z" fill="#E5936F"/>
<path id="Vector_33" d="M111.836 42.8784C111.836 42.8784 112.38 43.9609 111.511 45.2285C111.511 45.2285 114.189 48.473 116.901 48.1122C118.336 47.9209 118.744 46.749 119.978 45.9471C121.175 45.1668 122.959 45.3951 123.602 46.4837C124.49 47.9857 126.163 51.662 122.381 52.8278C118.846 53.9165 115.55 52.9049 113.339 50.5825C112.961 50.1847 111.854 48.4514 111.712 47.9518C111.561 47.4244 111.434 46.6194 110.123 45.7744C108.815 44.9294 110.228 42.9154 110.228 42.9154L111.836 42.8784Z" fill="#802C30"/>
<path id="Vector_34" d="M122.285 47.2887C122.229 47.0389 122.146 46.7675 121.926 46.6349C121.812 46.5639 121.673 46.5423 121.537 46.5423C120.983 46.5423 120.485 46.86 120.024 47.1653C119.978 47.1962 119.929 47.2301 119.895 47.2733C119.793 47.3966 119.814 47.5878 119.901 47.7205C119.987 47.8531 120.127 47.9456 120.26 48.032C120.702 48.3219 121.147 48.6118 121.589 48.9017C121.883 49.096 122.449 49.3026 122.535 48.7968C122.61 48.365 122.381 47.7081 122.285 47.2887Z" fill="white"/>
<path id="Vector_35" d="M78.902 196.874C78.902 195.258 103.159 195.243 125.718 195.536C173.461 196.15 173.427 195.631 173.152 197.075C172.978 197.985 147.664 198 125.105 198C102.546 198 78.902 197.904 78.902 196.874Z" fill="#867997"/>
<path id="Vector_36" d="M165.059 197.155C164.536 197.328 141.479 198.2 139.559 197.155C137.994 196.304 139.67 192.803 140.536 190.308C140.734 189.738 140.892 189.216 140.957 188.794C141.019 188.405 141.056 187.779 141.08 187.011C141.195 183.304 140.957 176.254 140.957 176.254L151.27 173.065C151.27 173.065 149.903 181.417 150.701 183.986C150.71 184.023 150.723 184.057 150.735 184.091C150.979 184.769 151.52 185.586 152.238 186.431C154.099 188.627 157.152 191.048 159.292 191.93C162.26 193.149 164.706 193.673 165.405 195.24C166.073 196.742 165.578 196.982 165.056 197.155H165.059Z" fill="#E5936F"/>
<path id="Vector_37" d="M165.059 197.155C164.536 197.328 141.479 198.2 139.559 197.155C137.994 196.304 139.67 192.803 140.536 190.308C140.734 189.738 140.892 189.216 140.957 188.794C141.019 188.405 141.056 187.779 141.08 187.011C142.512 186.194 146.177 184.359 150.701 183.986C150.71 184.023 150.723 184.057 150.735 184.091C150.979 184.769 151.52 185.586 152.238 186.431C154.099 188.627 157.152 191.048 159.292 191.93C162.26 193.149 164.706 193.673 165.405 195.24C166.073 196.742 165.578 196.982 165.056 197.155H165.059Z" fill="white"/>
<path id="Vector_38" d="M165.727 196.489C165.687 196.914 165.38 197.047 165.059 197.152C164.536 197.325 141.479 198.197 139.559 197.152C138.928 196.81 138.826 196.039 138.981 195.073C139.213 193.645 140.017 191.795 140.536 190.305C142.064 190.879 145.871 192.409 147.157 191.841C148.728 191.144 148.521 188.066 151.313 186.7C151.811 186.456 152.414 186.644 152.791 187.048C154.665 189.065 157.356 191.129 159.298 191.927C162.266 193.146 164.712 193.67 165.411 195.237C165.671 195.823 165.755 196.214 165.73 196.489H165.727Z" fill="#802C30"/>
<path id="Vector_39" d="M165.727 196.489C165.687 196.914 165.38 197.047 165.059 197.152C164.536 197.325 141.479 198.197 139.559 197.152C138.928 196.81 138.826 196.039 138.981 195.073C140.691 195.116 144.256 195.437 145.147 195.585C146.195 195.758 147.942 196.631 148.292 196.631C154.928 196.631 163.117 196.652 165.727 196.489Z" fill="#1A1A1A"/>
<path id="Vector_40" d="M97.9882 196.806C97.4656 197.503 83.8839 197.297 83.4911 196.806C82.851 196.008 83.4602 192.93 84.3755 190.678C84.4559 190.478 84.5394 190.284 84.626 190.099C85.0095 189.272 85.8877 186.971 86.8464 184.381C88.5193 179.881 90.4366 174.518 90.4366 174.518L99.8189 177.21C99.8189 177.21 96.9708 182.94 95.5112 186.595C95.0071 187.856 94.667 188.871 94.667 189.318C94.667 189.497 94.6763 189.673 94.701 189.839C94.8834 191.307 95.8235 192.368 96.7636 193.149C97.8119 194.018 98.6871 195.872 97.9851 196.806H97.9882Z" fill="#E5936F"/>
<path id="Vector_41" d="M97.9882 196.806C97.4656 197.503 83.8839 197.297 83.4911 196.806C82.851 196.008 83.4602 192.93 84.3756 190.678C84.456 190.478 84.5394 190.284 84.626 190.099C85.0095 189.272 85.8877 186.971 86.8464 184.381C88.507 184.479 92.3662 184.886 95.5112 186.592C95.0071 187.853 94.667 188.868 94.667 189.315C94.667 189.494 94.6763 189.67 94.701 189.836C94.8834 191.304 95.8235 192.365 96.7636 193.146C97.8119 194.015 98.6871 195.869 97.9851 196.803L97.9882 196.806Z" fill="white"/>
<path id="Vector_42" d="M97.9882 196.806C97.4656 197.503 83.8839 197.297 83.4911 196.806C82.9747 196.162 83.2437 194.907 83.3674 194.182C83.4757 193.547 83.6272 192.92 83.8096 192.304C83.9024 191.989 84.0045 191.674 84.1158 191.363C84.1158 191.363 86.1104 191.23 86.9855 190.533C87.5978 190.046 87.9009 189.411 88.2008 188.689C88.9213 186.953 93.2445 186.469 93.931 188.371C94.633 190.321 94.97 190.817 95.0195 190.882C95.0195 190.882 96.3214 192.779 96.7667 193.146C97.815 194.015 98.6902 195.869 97.9882 196.803V196.806Z" fill="#802C30"/>
<path id="Vector_43" d="M98.2418 195.952C93.4486 196.874 84.7281 196.103 83.2004 195.955C83.2283 196.279 83.3118 196.578 83.4911 196.803C83.8839 197.294 97.4625 197.5 97.9882 196.803C98.1645 196.569 98.2418 196.273 98.2418 195.952Z" fill="#1A1A1A"/>
<path id="Vector_44" d="M89.6048 176.599C89.6048 176.599 100.434 185.657 102.531 184.439C103.817 183.69 113.064 165.386 119.737 147.803C123.933 136.746 125.727 130.109 128.961 117.884C128.961 117.884 133.452 125.628 136.816 131.809C138.746 135.356 140.301 138.387 140.431 139.149C140.781 141.237 134.426 183.375 136.157 184.788C138.078 186.354 150.549 181.463 150.549 181.463C150.549 181.463 156.326 138.625 155.976 133.4C155.423 125.11 136.9 88.8533 136.59 88.2858C136.59 88.2858 122.226 85.5194 111.922 96.8411C111.922 96.8411 107.612 128.197 105.119 136.626C99.6086 155.236 89.6048 176.599 89.6048 176.599Z" fill="#5F7AB3"/>
<path id="Vector_45" d="M128.952 119.081C128.788 119.025 128.689 118.859 128.72 118.689L130.133 111.04C130.167 110.849 130.35 110.726 130.542 110.76C130.733 110.794 130.857 110.976 130.823 111.167L129.41 118.819C129.373 119.025 129.159 119.152 128.958 119.084C128.958 119.084 128.955 119.084 128.952 119.084V119.081Z" fill="#464C7B"/>
<path id="Vector_46" d="M131.262 107.444C131.262 107.444 131.244 107.444 131.234 107.444C131.089 107.429 130.987 107.299 131.002 107.157C131.599 101.458 129.039 95.0678 129.011 95.003C128.955 94.8704 129.02 94.7162 129.156 94.6637C129.289 94.6082 129.444 94.673 129.496 94.8087C129.524 94.8735 132.134 101.381 131.522 107.213C131.506 107.349 131.395 107.447 131.262 107.447V107.444Z" fill="#464C7B"/>
<path id="Vector_47" d="M132.747 103.635L134.231 102.328C134.28 102.285 134.311 102.226 134.317 102.161C134.5 100.536 132.499 94.4602 132.233 94.195C132.131 94.0932 131.964 94.0932 131.862 94.195C131.769 94.2875 131.76 94.4355 131.84 94.5404C132.069 94.9506 133.881 100.403 133.804 102.007L132.4 103.244C132.292 103.339 132.283 103.503 132.379 103.614C132.431 103.672 132.502 103.703 132.576 103.703C132.638 103.703 132.7 103.682 132.75 103.639L132.747 103.635Z" fill="#464C7B"/>
<path id="Vector_48" d="M133.003 96.3785C132.867 96.3785 132.753 96.2737 132.743 96.1379C132.731 95.993 132.839 95.8696 132.985 95.8573C135.007 95.6969 136.986 95.6414 138.869 95.6877C139.015 95.6908 139.129 95.811 139.126 95.956C139.123 96.1009 139.012 96.2181 138.857 96.212C136.992 96.1657 135.032 96.2212 133.028 96.3816C133.022 96.3816 133.012 96.3816 133.006 96.3816L133.003 96.3785Z" fill="#464C7B"/>
<path id="Vector_49" d="M112.835 101.436C112.742 101.436 112.652 101.387 112.603 101.298C112.535 101.171 112.581 101.011 112.708 100.943C112.764 100.912 118.46 97.899 127.904 96.4494C128.046 96.4278 128.179 96.5265 128.204 96.6684C128.225 96.8103 128.127 96.946 127.984 96.9676C118.627 98.4017 113.011 101.375 112.955 101.406C112.915 101.427 112.872 101.436 112.832 101.436H112.835Z" fill="#464C7B"/>
<path id="Vector_50" d="M143.802 146.773C143.78 146.773 143.755 146.773 143.734 146.764C143.595 146.727 143.511 146.582 143.548 146.443C143.598 146.255 143.57 146.051 143.539 145.835C143.505 145.595 143.465 145.323 143.533 145.04C143.653 144.54 144.055 144.219 144.411 143.936C144.513 143.852 144.618 143.769 144.714 143.683C144.776 143.627 144.844 143.559 144.869 143.494C144.921 143.353 144.773 143.161 144.603 143.084C144.43 143.007 144.222 142.989 144.003 142.97C143.925 142.964 143.845 142.958 143.768 142.949C143.505 142.918 143.248 142.856 142.998 142.764C142.865 142.714 142.729 142.656 142.62 142.532C142.364 142.239 142.454 141.82 142.661 141.533C142.806 141.329 142.988 141.178 143.168 141.03C143.23 140.978 143.292 140.925 143.353 140.873C143.663 140.595 143.703 140.447 143.7 140.386C143.7 140.349 143.672 140.278 143.65 140.219C143.626 140.154 143.604 140.09 143.591 140.028C143.548 139.837 143.496 139.636 143.437 139.433C143.316 139.007 143.165 138.554 142.967 138.008C142.429 136.524 141.801 135.096 141.26 133.894C140.604 132.441 139.884 130.917 138.987 129.101C138.603 128.324 138.047 127.803 137.456 127.254C136.872 126.711 136.272 126.146 135.839 125.317C135.131 123.95 134.379 122.526 133.606 121.079C133.053 120.043 132.505 119.031 131.98 118.072C131.772 117.69 131.562 117.31 131.352 116.931C131.281 116.805 131.327 116.644 131.454 116.576C131.581 116.505 131.742 116.552 131.81 116.678C132.02 117.061 132.23 117.44 132.44 117.822C132.966 118.781 133.513 119.796 134.067 120.832C134.84 122.279 135.595 123.707 136.303 125.076C136.692 125.829 137.237 126.334 137.812 126.874C138.409 127.432 139.027 128.009 139.454 128.873C140.354 130.695 141.077 132.225 141.736 133.681C142.283 134.893 142.914 136.333 143.459 137.832C143.663 138.39 143.814 138.856 143.938 139.291C144 139.504 144.052 139.713 144.099 139.914C144.108 139.954 144.123 140 144.142 140.043C144.176 140.139 144.216 140.25 144.222 140.364C144.238 140.734 143.935 141.055 143.703 141.262C143.638 141.32 143.57 141.376 143.505 141.431C143.347 141.564 143.196 141.69 143.091 141.838C142.998 141.968 142.964 142.128 143.019 142.19C143.05 142.224 143.118 142.252 143.18 142.276C143.39 142.353 143.61 142.406 143.833 142.434C143.904 142.443 143.975 142.449 144.049 142.455C144.303 142.477 144.566 142.501 144.819 142.616C145.212 142.794 145.521 143.242 145.36 143.683C145.298 143.855 145.178 143.979 145.067 144.077C144.961 144.173 144.85 144.262 144.739 144.349C144.423 144.602 144.123 144.842 144.043 145.169C143.997 145.354 144.028 145.555 144.058 145.764C144.096 146.011 144.136 146.292 144.058 146.582C144.028 146.699 143.922 146.776 143.805 146.776L143.802 146.773Z" fill="#464C7B"/>
<path id="Vector_51" d="M139.732 181.737C139.732 181.737 139.723 181.737 139.72 181.737C139.574 181.731 139.463 181.608 139.472 181.463C139.998 170.795 143.332 148.623 143.465 148.09C143.499 147.951 143.641 147.865 143.78 147.899C143.919 147.933 144.006 148.074 143.972 148.213C143.842 148.747 140.518 170.86 139.995 181.488C139.989 181.626 139.871 181.737 139.732 181.737Z" fill="#464C7B"/>
<path id="Vector_52" d="M108.521 82.9626C108.521 82.9626 109.139 86.0467 109.758 87.5888C110.376 89.1308 111.304 90.9813 110.995 91.9065C110.559 93.2142 110.067 93.757 110.067 94.6822C110.067 95.6075 111.613 98.0748 111.613 98.0748C111.613 98.0748 122.746 93.4486 132.332 92.8318C140.688 92.2951 116.561 74.0187 116.561 74.0187L108.521 82.9626Z" fill="#ED4450"/>
<path id="Vector_53" d="M114.396 82.9626L126.543 96.579L131.095 90.6729L114.396 82.9626Z" fill="#8E2F39"/>
<path id="Vector_54" d="M128.467 90.5187C128.467 90.5187 127.585 92.8287 125.86 93.5226C124.134 94.2165 117.643 93.9112 115.479 95.7617C113.314 97.6121 111.304 103.009 112.232 105.477C113.159 107.944 117.953 116.734 117.334 120.126C116.716 123.519 115.169 123.21 113.932 123.21C112.696 123.21 107.129 123.519 106.202 125.061C105.84 125.659 105.66 126.427 105.994 127.078C106.325 127.722 107.012 127.556 107.497 127.975C107.621 128.083 107.698 128.231 107.791 128.367C108.128 128.845 108.728 129.126 109.309 129.076C109.832 129.033 110.336 128.746 110.852 128.833C111.152 128.882 111.418 129.055 111.712 129.119C112.352 129.264 112.989 128.904 113.543 128.549C114.146 128.163 114.662 127.988 115.358 127.877C116.917 127.627 118.54 127.836 120.114 127.873C121.255 127.898 123.237 128.117 124.137 127.22C125.374 125.986 123.519 122.285 122.591 120.126C121.663 117.967 121.973 113.341 122.9 113.033C123.828 112.724 130.941 116.117 134.342 115.192C137.744 114.266 137.589 114.421 137.898 114.729C138.208 115.037 138.072 121.298 136.816 127.836C135.922 132.493 135.459 137.2 136.136 141.928C136.553 144.858 137.435 147.747 138.941 150.301C139.485 151.226 140.131 152.124 141.028 152.716C141.625 153.111 141.832 152.562 141.569 152.078C141.489 151.93 141.39 151.791 141.3 151.646C141.118 151.344 140.954 151.032 140.799 150.714C139.271 147.556 138.668 143.945 138.365 140.484C137.747 133.391 140.839 121.671 141.767 119.204C142.695 116.74 148.558 105.964 149.186 104.712C149.971 103.145 150.389 101.319 150.899 99.6477C151.146 98.8427 151.36 98.0193 151.629 97.2205C151.947 96.2767 153.033 95.8234 153.469 94.9166C153.722 94.3923 153.809 93.7693 153.611 93.2235C153.413 92.6776 152.943 92.2088 152.952 91.6259C152.961 91.1016 153.36 90.676 153.617 90.2195C153.648 90.1609 153.679 90.1023 153.707 90.0437C154.127 89.1586 154 87.9928 153.914 87.0398C153.809 85.8586 153.7 84.6743 153.549 83.4992C153.252 81.1677 152.798 78.8453 151.966 76.6402C151.527 75.4713 151.103 74.2932 150.664 73.1212C150.2 71.8845 149.881 70.6755 149.071 69.6053C148.944 69.4388 148.808 69.2692 148.737 69.0718C148.644 68.8096 148.675 68.5228 148.697 68.2452C148.753 67.4958 148.697 66.6754 148.212 66.1049C147.825 65.6546 147.231 65.4356 146.798 65.0285C146.424 64.6738 146.192 64.202 145.948 63.7455C144.436 60.902 142.231 58.4347 139.59 56.5904C136.878 54.6967 133.619 53.315 130.421 52.5101C126.033 51.4029 121.073 51.3936 116.604 52.0999C115.862 52.2171 115.015 52.3621 114.291 52.0814C113.713 51.8563 113.351 51.6064 112.714 51.5139C111.171 51.2857 109.588 51.406 108.057 51.6589C104.346 52.2757 100.945 55.6682 100.635 56.285C100.326 56.9019 100.945 58.7523 100.635 59.3692C100.326 59.986 94.1413 63.3785 94.1413 64.6121C94.1413 65.8458 97.5429 71.3972 100.326 71.3972C103.418 71.3972 103.728 65.229 106.511 63.9953C109.294 62.7617 114.86 65.8458 114.86 65.8458L128.467 90.5187Z" fill="#3F4344"/>
<path id="Vector_55" d="M116.521 109.733C119.208 110.313 121.552 111.784 124.035 112.897C124.592 113.147 124.193 114.118 123.615 113.893C121.125 112.916 118.593 110.954 115.943 110.408C115.169 110.251 115.748 109.563 116.521 109.73V109.733Z" fill="#2A2F30"/>
<path id="Vector_56" d="M137.28 112.4C137.258 111.913 138.062 111.79 138.149 112.283C138.263 112.956 138.307 113.628 138.313 114.31C138.316 114.942 137.577 114.744 137.589 114.112C137.602 113.474 137.311 113.036 137.28 112.4Z" fill="#2A2F30"/>
<path id="Vector_57" d="M126.961 85.6211C130.839 83.9063 130.65 79.2247 132.023 75.8691C132.28 75.24 134.806 88.8224 132.951 90.0561C132.406 90.4169 126.358 85.8894 126.961 85.6211Z" fill="#2A2F30"/>
<path id="Vector_58" d="M119.251 65.2259C119.251 65.2259 124.601 62.299 127.23 56.5934C128.909 52.9511 126.886 51.7946 126.886 51.7946C127.313 51.5663 127.827 51.4522 128.303 51.4214C129.014 51.3782 129.799 51.7082 130.288 52.2325C130.953 52.948 131.018 53.8979 130.931 54.8139C130.851 55.662 130.659 56.5009 130.396 57.312C130.041 58.4069 129.546 59.4586 128.958 60.4486C128.201 61.7254 127.282 62.9066 126.268 63.9891C124.972 65.3708 123.519 66.5983 121.976 67.6962C121.976 67.6962 119.938 65.5312 119.254 65.2259H119.251Z" fill="#EFB44B"/>
<path id="Vector_59" d="M102.89 59.7238C102.88 59.5974 102.964 59.4617 103.131 59.4401C104.102 58.8233 105.311 59.8503 105.83 60.6676C105.917 60.8033 105.871 60.9266 105.778 61.0007C105.716 61.195 105.407 61.2936 105.255 61.0685C104.819 60.4116 104.136 60.0631 103.375 59.9706C103.152 60.1248 102.874 59.9305 102.887 59.7238H102.89Z" fill="#1A1A1A"/>
<path id="Vector_60" d="M116.001 63.9059C119.248 64.276 121.342 66.475 123.169 68.9515C123.191 68.9453 123.213 68.9361 123.237 68.9361C124.301 68.9114 125.322 68.7079 126.321 68.3439C126.617 68.236 126.741 68.6493 126.518 68.8096C126.5 68.8528 123.673 69.7009 123.67 69.7009C124.604 71.0117 125.439 72.2515 126.392 73.4204C126.76 73.8737 126.166 74.5091 125.736 74.0742C122.573 70.8791 121.237 65.488 116.252 64.7664C115.587 64.6707 115.324 63.8288 116.001 63.9059Z" fill="#2A2F30"/>
<path id="Vector_61" d="M96.1049 62.6044C96.3307 63.2983 96.0555 64.0478 96.0802 64.7756C96.0988 65.3708 96.3183 65.9414 96.4544 66.5212C96.5379 66.879 96.7234 68.4519 96.139 68.384C95.7617 68.3408 95.3226 67.8844 95.0597 67.6469C94.4814 67.1288 93.2445 66.0401 93.3775 65.1488C93.3806 65.1241 93.3867 65.1025 93.3929 65.0809C93.5599 64.5443 94.1567 64.0077 94.599 63.69C95.0968 63.3322 95.5638 62.9035 96.108 62.6013L96.1049 62.6044Z" fill="#1A1A1A"/>
<path id="Vector_62" d="M121.2 74.9439C121.2 74.9439 119.653 73.0935 118.107 70.9346C116.561 68.7757 115.633 67.2337 114.087 66C112.541 64.7664 110.376 62.9159 106.665 64.1495C102.955 65.3832 103.573 71.243 104.192 73.7103C104.81 76.1776 106.356 78.028 106.665 79.8785C106.975 81.729 109.322 84.1315 109.322 84.1315L121.2 74.9439Z" fill="#ED4450"/>
<path id="Vector_63" d="M114.396 82.0374C114.396 82.0374 109.714 85.3189 109.139 83.8879C108.521 82.3458 112.581 78.9502 112.581 78.9502L114.396 82.0374Z" fill="#802C30"/>
<path id="Vector_64" d="M121.045 74.7897C121.045 74.7897 128.776 82.1916 130.477 83.271C131.643 84.0112 136.507 87.1262 139.908 89.5935C143.31 92.0608 147.639 96.0701 148.876 96.0701C149.925 96.0701 152.847 96.2736 152.491 97.9483C152.395 98.3924 152.028 98.7008 151.888 99.1172C151.731 99.586 151.972 100.101 152.148 100.53C152.349 101.02 152.494 101.643 152.136 102.035C152.006 102.177 151.823 102.269 151.737 102.439C151.632 102.639 151.694 102.889 151.625 103.105C151.493 103.524 150.933 103.672 150.763 104.08C150.682 104.271 150.701 104.496 150.605 104.681C150.481 104.918 150.206 105.029 149.99 105.187C149.597 105.47 149.612 106.004 149.34 106.402C149.068 106.8 148.425 107.108 147.942 107.071C148.041 106.837 147.98 106.559 147.84 106.346C147.704 106.134 147.5 105.97 147.302 105.81C146.368 105.057 145.41 104.258 144.794 103.213C144.185 102.18 143.879 100.946 143.001 100.079C143.001 100.079 126.92 92.3692 124.756 90.2103C122.591 88.0514 110.531 80.9579 110.531 80.9579C110.531 80.9579 117.334 73.2477 121.045 74.7897Z" fill="#E5936F"/>
<path id="Vector_65" d="M116.493 68.8713C116.493 68.8713 119.74 74.0372 120.934 77.7289C122.127 81.4206 127.768 89.9913 130.05 82.3149C132.332 74.6386 125.838 75.8722 125.838 75.8722L119.963 68.7788L116.493 68.8744V68.8713Z" fill="#3F4344"/>
<path id="Vector_66" d="M113.005 56.9019C113.005 56.9019 117.025 59.6776 117.025 60.9112C117.025 62.1448 117.025 63.9953 117.334 64.9205C117.643 65.8458 118.262 66.771 117.643 67.6962C117.025 68.6215 115.788 69.5467 115.479 70.4719C115.169 71.3972 114.86 72.3224 113.623 72.3224C112.386 72.3224 110.84 67.6962 110.84 67.3878C110.84 67.0794 109.294 70.7804 108.057 70.7804C106.82 70.7804 106.511 69.8551 106.511 69.8551C106.511 69.8551 104.504 70.4411 103.963 67.3724C103.422 64.3037 108.985 59.986 108.985 59.986L113.005 56.9019Z" fill="#3F4344"/>
<path id="Vector_67" d="M103.926 67.2059C105.119 64.4579 108.171 65.0069 110.376 64.7664C110.41 64.2945 110.345 63.909 110.432 63.4371C110.574 62.6537 110.75 61.8673 110.645 61.0685C110.534 60.2111 110.178 59.0361 109.758 58.2928C109.569 57.9566 110.002 58.08 110.2 58.41C110.84 59.4833 111.357 60.5781 111.289 61.8549C111.217 63.215 110.791 64.5104 110.828 65.889C110.865 67.2182 111.165 68.5475 111.712 69.7626C112.263 70.9839 114.124 73.4389 115.009 71.0826C115.148 70.7125 115.231 70.3208 115.367 69.9477C115.652 69.1735 116.162 68.495 116.759 67.9214C116.978 67.7117 117.217 67.502 117.331 67.2213C117.51 66.7926 117.365 66.3084 117.241 65.8612C116.991 64.9545 116.827 64.0262 116.75 63.0917C116.682 62.259 116.876 61.2813 116.583 60.4887C116.335 59.8194 115.652 59.3476 115.117 58.9158C114.523 58.4378 113.926 57.9751 113.367 57.4539C113.122 57.2257 113.484 56.8741 113.731 57.09C114.687 57.9227 115.884 58.592 116.713 59.5573C117.458 60.4239 117.282 61.4787 117.303 62.5335C117.319 63.249 117.43 63.9645 117.634 64.6522C117.81 65.2506 118.129 65.8119 118.253 66.4225C118.466 67.4804 117.68 68.0725 117.043 68.788C116.564 69.3247 116.28 69.8582 116.045 70.5306C115.884 70.9901 115.609 71.7765 115.324 72.1775C114.848 72.8406 114.276 73.0287 113.469 72.7943C112.491 72.5106 111.848 71.3941 111.409 70.546C110.88 69.5221 110.519 68.4087 110.342 67.2706C110.246 66.6538 110.212 66.0432 110.225 65.4294C108.137 65.7872 105.428 64.7756 104.192 67.5513C104.04 67.8936 103.771 67.5729 103.926 67.2151V67.2059Z" fill="#2A2F30"/>
<path id="Vector_68" d="M103.224 67.9923C103.786 67.0054 103.972 65.852 104.556 64.8774C105.017 64.1125 105.685 63.5358 106.489 63.1534C106.789 63.0115 107.052 63.4402 106.755 63.6036C105.898 64.0755 105.249 64.7571 104.844 65.6453C104.445 66.5212 104.238 67.4588 103.759 68.3007C103.564 68.6431 103.029 68.3347 103.227 67.9892L103.224 67.9923Z" fill="#2A2F30"/>
<path id="Vector_69" d="M148.975 71.1813C148.917 71.6655 148.106 71.647 147.856 72.0294C147.639 72.3594 147.779 72.8344 148.075 73.0935C148.375 73.3525 148.79 73.4358 149.186 73.4512C149.581 73.4636 149.98 73.4173 150.373 73.4512C149.742 73.6579 149.114 73.8645 148.484 74.068C148.181 74.1667 147.871 74.2685 147.612 74.4505C147.349 74.6324 147.135 74.91 147.108 75.2277C147.08 75.5361 147.237 75.8476 147.488 76.0295C147.639 76.1406 147.825 76.2146 147.924 76.3719C148.063 76.5939 147.973 76.89 148.048 77.1398C148.159 77.5007 148.576 77.6672 148.954 77.698C149.331 77.7289 149.721 77.6734 150.076 77.7998C150.163 77.8307 150.252 77.8769 150.299 77.9571C150.339 78.028 150.342 78.1144 150.361 78.1946C150.423 78.4475 150.664 78.614 150.89 78.7466C151.282 78.9749 151.69 79.1753 152.111 79.345C152.655 79.567 153.332 79.7212 153.79 79.3511C154.05 79.1383 154.174 78.7744 154.096 78.4475C154.013 78.1021 153.725 77.769 153.843 77.4328C153.936 77.1645 154.245 77.038 154.396 76.8006C154.619 76.4521 154.449 75.9864 154.192 75.6625C154.072 75.5114 153.929 75.3572 153.917 75.166C153.901 74.9378 154.072 74.7465 154.161 74.5368C154.334 74.1205 154.161 73.6239 153.855 73.2939C153.549 72.9639 153.131 72.7604 152.723 72.5661C153.101 72.3564 153.496 72.1065 153.651 71.7056C153.812 71.2923 153.663 70.7989 153.357 70.475C153.051 70.1512 152.621 69.9693 152.185 69.8767C151.749 69.7842 151.301 69.7719 150.859 69.7256C150.902 69.2846 150.818 68.7541 150.423 68.5506C150.262 68.4673 150.073 68.455 149.894 68.4457C149.145 68.4025 148.113 68.3439 147.367 68.3779C147.361 68.6523 148.453 69.9754 148.651 70.3455C148.75 70.5275 148.845 70.7094 148.92 70.9037C148.954 70.9932 148.985 71.0888 148.972 71.1844L148.975 71.1813Z" fill="#E9946B"/>
<path id="Vector_70" d="M146.681 67.1072C146.706 67.0979 146.733 67.1072 146.758 67.1164C146.894 67.1689 147.021 67.246 147.145 67.32C147.321 67.4279 147.5 67.5359 147.677 67.6407C147.973 67.8227 148.28 68.0078 148.521 68.2607C148.855 68.6092 149.111 69.0656 149.38 69.4665C149.591 69.7811 149.884 70.1265 150.002 70.4905C150.107 70.8081 148.638 71.5637 148.638 71.5637L147.571 70.5861L147.172 68.7911C147.046 68.384 146.903 67.9831 146.746 67.5883C146.699 67.4711 146.65 67.3508 146.637 67.2213C146.631 67.175 146.637 67.1164 146.684 67.101L146.681 67.1072Z" fill="#3F4344"/>
<path id="Vector_71" d="M46.5681 8.68793C54.4753 6.19597 62.5403 4.2098 70.7011 2.74176C78.6856 1.30765 86.9113 0.135686 95.0319 -1.50316e-05C95.9194 -0.0154356 95.8854 1.27064 95.0319 1.35391C86.8247 2.14344 78.6825 2.88671 70.565 4.39485C62.599 5.87522 54.7444 7.87372 47.0196 10.3071C45.9837 10.634 45.5415 9.01176 46.5712 8.68793H46.5681Z" fill="#7A6BB9"/>
<path id="Vector_72" d="M171.868 192.677C172.363 191.375 172.808 190.046 173.167 188.698C173.424 187.742 174.852 188.146 174.648 189.105C174.351 190.475 173.993 191.807 173.535 193.133C173.173 194.182 171.479 193.707 171.871 192.677H171.868Z" fill="#FCE5EB"/>
<path id="Vector_73" d="M174.225 185.525C174.259 185.371 174.308 185.216 174.358 185.068C174.478 184.695 174.886 184.414 175.285 184.544C175.468 184.603 175.644 184.717 175.737 184.889C175.839 185.081 175.845 185.256 175.814 185.469C175.792 185.627 175.774 185.787 175.731 185.941C175.656 186.197 175.44 186.41 175.217 186.546C174.93 186.718 174.568 186.601 174.392 186.33C174.24 186.095 174.172 185.802 174.231 185.528L174.225 185.525Z" fill="#FCE5EB"/>
</g>
<defs>
<clipPath id="clip0_291_1446">
<rect width="181" height="198" fill="white" transform="matrix(-1 0 0 1 181 0)"/>
</clipPath>
</defs>
</svg>
