<svg width="78" height="157" viewBox="0 0 78 157" fill="none" xmlns="http://www.w3.org/2000/svg">
<g id="Graphic_Elements" clip-path="url(#clip0_335_71)">
<path id="Vector" d="M97.5712 122.604C100.59 117.264 102.346 111.25 102.852 105.121C103.873 92.8305 100.041 84.1773 95.5621 78.3895C91.3851 73 85.4817 69.1615 79.0375 66.9708C77.6461 66.5033 76.7903 66.2237 76.2868 66.0449C76.2227 66.0266 76.0946 65.9899 75.9024 65.9349C75.7101 65.8799 75.582 65.8432 75.5179 65.8249C74.9732 65.669 74.1311 65.4627 72.6939 65.1554C66.0571 63.6374 59.0169 63.7718 52.6302 66.1036C45.7354 68.6366 37.9057 73.9524 32.3027 84.9314C29.4898 90.4004 27.7982 96.4328 27.5347 102.562C27.0448 113.479 30.6545 128.966 55.8 126.006C57.6998 125.787 59.6861 126.356 61.1825 127.547C80.9872 143.37 92.2115 132.128 97.5712 122.604Z" stroke="#A59ACF" stroke-width="1.5" stroke-miterlimit="10"/>
<path id="Vector_2" d="M66.0703 53.3549C72.0639 53.6302 77.2492 46.744 77.652 37.9742C78.0548 29.2044 73.5225 21.8719 67.5289 21.5966C61.5353 21.3213 56.3499 28.2075 55.9472 36.9773C55.5444 45.7471 60.0766 53.0796 66.0703 53.3549Z" stroke="#A59ACF" stroke-width="1.5" stroke-miterlimit="10"/>
<path id="Vector_3" d="M44.573 61.8898C50.1627 59.7093 52.1076 51.3114 48.9171 43.1326C45.7266 34.9538 38.6089 30.0912 33.0192 32.2717C27.4295 34.4522 25.4845 42.8501 28.675 51.0289C31.8655 59.2077 38.9833 64.0703 44.573 61.8898Z" stroke="#A59ACF" stroke-width="1.5" stroke-miterlimit="10"/>
<path id="Vector_4" d="M17.717 121.728C20.4384 126.875 25.1378 130.923 30.6254 132.944C34.2685 134.264 38.1684 134.687 42.0042 135.091" stroke="#A59ACF" stroke-width="1.5" stroke-miterlimit="10" stroke-linecap="round"/>
<path id="Vector_5" d="M15.6047 104.763C15.0682 107.001 14.8201 109.322 14.961 111.616" stroke="#A59ACF" stroke-width="1.5" stroke-miterlimit="10" stroke-linecap="round"/>
</g>
<defs>
<clipPath id="clip0_335_71">
<rect width="110.871" height="130.466" fill="white" transform="translate(36.8563 0.826233) rotate(15.9696)"/>
</clipPath>
</defs>
</svg>
