<svg width="18" height="24" viewBox="0 0 18 24" fill="none" xmlns="http://www.w3.org/2000/svg">
<path id="Vector" d="M17.1243 17.8087C17.0674 17.951 17.0066 18.09 16.9431 18.2264C16.483 19.205 15.8424 20.032 15.125 20.7115C14.4797 21.3216 13.8853 22.035 13.1364 22.4214C11.3651 23.3348 9.34707 23.4856 7.52765 22.7857C6.78878 22.5019 6.05192 22.1791 5.39195 21.6724C4.73198 21.1657 4.1469 20.459 3.82862 19.5685C3.37861 18.3103 3.50231 16.8563 3.32579 15.493C3.29703 15.2676 3.25892 15.0448 3.21345 14.8236C3.09109 14.2314 2.90921 13.6594 2.67384 13.1248C2.26462 12.1953 1.6996 11.3904 1.26765 10.4778C0.714668 9.3094 0.563551 7.98422 0.761474 6.70988C0.854418 6.11423 1.02292 5.53129 1.2623 4.97969C1.4288 4.59671 1.62538 4.21628 1.84805 3.84685C2.4124 2.90974 3.14324 2.04295 3.96168 1.39392C5.02352 0.550853 6.23245 0.0729754 7.41933 0.278022C8.62158 0.485611 9.7456 1.34816 10.4477 2.60217C10.9418 3.48421 11.228 4.53317 11.7268 5.41012C12.8582 7.39789 14.8943 8.22232 16.2242 10.0016C16.4275 10.2736 16.6101 10.5668 16.7712 10.8778C17.821 12.896 17.9882 15.6413 17.1236 17.8078L17.1243 17.8087Z" fill="#A854B6"/>
</svg>
