<svg width="18" height="10" viewBox="0 0 18 10" fill="none" xmlns="http://www.w3.org/2000/svg">
<path id="Vector" d="M12.8888 1.11111V8.88889C12.8888 9.18357 12.7718 9.46619 12.5634 9.67456C12.355 9.88294 12.0724 10 11.7777 10H1.77774C1.48305 10 1.20044 9.88294 0.992063 9.67456C0.783689 9.46619 0.666626 9.18357 0.666626 8.88889V1.11111C0.666626 0.816426 0.783689 0.533811 0.992063 0.325437C1.20044 0.117063 1.48305 0 1.77774 0H11.7777C12.0724 0 12.355 0.117063 12.5634 0.325437C12.7718 0.533811 12.8888 0.816426 12.8888 1.11111ZM16.9166 1.12847C16.8382 1.10929 16.7567 1.10693 16.6773 1.12153C16.598 1.13613 16.5226 1.16737 16.4562 1.21319L14.1236 2.76806C14.0855 2.79344 14.0543 2.82784 14.0328 2.86818C14.0112 2.90852 13.9999 2.95356 14 2.99931V7.00069C13.9999 7.04644 14.0112 7.09148 14.0328 7.13182C14.0543 7.17216 14.0855 7.20656 14.1236 7.23194L16.4694 8.79583C16.5572 8.85441 16.6599 8.88675 16.7654 8.88909C16.8709 8.89143 16.9749 8.86366 17.0652 8.80903C17.1488 8.75591 17.2173 8.68224 17.2642 8.59506C17.3112 8.50788 17.335 8.41011 17.3333 8.31111V1.66667C17.3334 1.54345 17.2925 1.42372 17.217 1.32629C17.1416 1.22886 17.0359 1.15928 16.9166 1.12847Z" fill="#7A6BB9"/>
</svg>
