<svg width="18" height="24" viewBox="0 0 18 24" fill="none" xmlns="http://www.w3.org/2000/svg">
<g id="energy">
<g id="Energy01">
<g id="Group">
<path id="Vector" d="M14.5941 9.60675L9.01839 19.9567C8.91803 20.1407 8.73403 20.25 8.5333 20.25C8.4887 20.25 8.43851 20.2442 8.39391 20.2327C8.14857 20.1637 7.97573 19.9395 7.97573 19.675V13.35H2.95755C2.76797 13.35 2.59512 13.2522 2.48918 13.0912C2.38882 12.9302 2.37209 12.7233 2.44458 12.545L6.3476 3.345C6.43682 3.138 6.63754 3 6.86057 3H10.206C10.39 3 10.5629 3.092 10.6688 3.253C10.7692 3.40825 10.7915 3.6095 10.7246 3.78775L8.80094 8.75H14.1091C14.3042 8.75 14.4882 8.85925 14.5886 9.03175C14.6889 9.21 14.6945 9.4285 14.5941 9.60675Z" fill="#A854B6" stroke="#A854B6" stroke-width="1.5"/>
</g>
</g>
</g>
</svg>
