<svg width="18" height="24" viewBox="0 0 18 24" fill="none" xmlns="http://www.w3.org/2000/svg">
<g id="energy">
<g id="Energy01">
<g id="Group">
<path id="Vector" d="M14.8608 9.60675L9.28506 19.9567C9.18469 20.1407 9.00069 20.25 8.79996 20.25C8.75536 20.25 8.70518 20.2442 8.66057 20.2327C8.41524 20.1637 8.24239 19.9395 8.24239 19.675V13.35H3.22421C3.03463 13.35 2.86178 13.2522 2.75584 13.0912C2.65548 12.9302 2.63875 12.7233 2.71124 12.545L6.61427 3.345C6.70348 3.138 6.90421 3 7.12724 3H10.4727C10.6567 3 10.8295 3.092 10.9355 3.253C11.0358 3.40825 11.0581 3.6095 10.9912 3.78775L9.0676 8.75H14.3757C14.5709 8.75 14.7549 8.85925 14.8552 9.03175C14.9556 9.21 14.9612 9.4285 14.8608 9.60675Z" stroke="#A854B6" stroke-width="1.5"/>
</g>
</g>
</g>
</svg>
