<svg width="24" height="24" viewBox="0 0 24 24" fill="none" xmlns="http://www.w3.org/2000/svg">
<g id="Group">
<path id="Vector" d="M14.3561 18.5573C14.4152 19.9463 14.4078 20.6615 14.0807 21.2244C13.4348 22.336 12.2907 22.3983 11.1714 21.7562C10.6779 21.4731 10.3598 21.2898 9.79661 20.4119C9.79661 20.4119 9.5506 19.6385 8.30171 18.987C7.09785 18.2319 6.29711 18.4124 6.29711 18.4124C5.25054 18.3664 4.94597 18.1858 4.45318 17.9031C3.33381 17.261 2.81508 16.2456 3.46135 15.1334C3.78841 14.5706 4.40872 14.2078 5.64902 13.5633C5.64902 13.5633 8.05351 12.242 9.6709 11.8993C10.8391 11.6526 11.9582 12.298 11.9582 12.298L12.304 12.4963C12.304 12.4963 13.4754 13.1642 13.796 14.2657C14.2531 15.8445 14.3559 18.5576 14.3561 18.5573ZM10.1833 9.47381C11.3536 10.1451 13.1557 9.2204 14.2085 7.40864C15.2613 5.59688 15.1662 3.58383 13.9959 2.91249C12.8256 2.24115 11.0235 3.1659 9.97074 4.97766C8.91797 6.78942 9.01301 8.80247 10.1833 9.47381ZM6.30645 11.4862C7.3989 11.5853 8.41083 10.2953 8.56632 8.60447C8.7218 6.91364 7.96253 5.46237 6.87026 5.36292C5.77799 5.26347 4.7662 6.55401 4.6104 8.24466C4.45491 9.93548 5.21437 11.3864 6.30645 11.4862ZM15.1096 12.2998C16.2799 12.9711 18.0823 12.0466 19.1351 10.2348C20.1879 8.42304 20.0925 6.40982 18.9222 5.73847C17.7519 5.06713 15.9498 5.99188 14.8971 7.80364C13.8443 9.6154 13.9393 11.6284 15.1096 12.2998ZM20.3497 13.095C19.7168 12.2044 18.0725 12.2768 16.6763 13.2564C15.2802 14.2359 14.6617 15.7516 15.2947 16.6423C15.9278 17.5326 17.5721 17.4601 18.9681 16.4809C20.3641 15.5017 20.9827 13.9856 20.3497 13.095Z" fill="white"/>
</g>
</svg>
