<svg width="18" height="19" viewBox="0 0 18 19" fill="none" xmlns="http://www.w3.org/2000/svg">
<g id="cake-svgrepo-com 3">
<g id="cake_line">
<path id="&#229;&#189;&#162;&#231;&#138;&#182;" fill-rule="evenodd" clip-rule="evenodd" d="M12 4.85083C12.4142 4.85083 12.75 5.18662 12.75 5.60083V7.10083H13.5C14.7427 7.10083 15.75 8.10816 15.75 9.35083V15.3508C16.1642 15.3508 16.5 15.6866 16.5 16.1008C16.5 16.5151 16.1642 16.8508 15.75 16.8508H2.25C1.83579 16.8508 1.5 16.5151 1.5 16.1008C1.5 15.6866 1.83579 15.3508 2.25 15.3508V9.35083C2.25 8.10816 3.25736 7.10083 4.5 7.10083H5.25V5.60083C5.25 5.18662 5.58579 4.85083 6 4.85083C6.41421 4.85083 6.75 5.18662 6.75 5.60083V7.10083H8.25V5.60083C8.25 5.18662 8.58577 4.85083 9 4.85083C9.41423 4.85083 9.75 5.18662 9.75 5.60083V7.10083H11.25V5.60083C11.25 5.18662 11.5858 4.85083 12 4.85083ZM13.2803 12.1312C12.5732 12.8383 11.4268 12.8383 10.7197 12.1312C10.5983 12.0098 10.4017 12.0098 10.2803 12.1312C9.57323 12.8383 8.42677 12.8383 7.71968 12.1312C7.59833 12.0098 7.40165 12.0098 7.28033 12.1312C6.57323 12.8383 5.42677 12.8383 4.71967 12.1312C4.59835 12.0098 4.40165 12.0098 4.28033 12.1312L3.75 12.6615V15.3508H14.25V12.6615L13.7197 12.1312C13.5983 12.0098 13.4017 12.0098 13.2803 12.1312ZM13.5 8.60083H4.5C4.11538 8.60083 3.79837 8.89035 3.75505 9.26336L3.75 9.35083V10.7023C4.41745 10.3987 5.23131 10.5215 5.78033 11.0705C5.90165 11.1919 6.09835 11.1919 6.21967 11.0705C6.92677 10.3634 8.07323 10.3634 8.78032 11.0705C8.90167 11.1919 9.09833 11.1919 9.21968 11.0705C9.92677 10.3634 11.0732 10.3634 11.7803 11.0705C11.9017 11.1919 12.0983 11.1919 12.2197 11.0705C12.7344 10.5558 13.4819 10.4157 14.1232 10.6503L14.25 10.7023V9.35083C14.25 8.96619 13.9605 8.6492 13.5875 8.60588L13.5 8.60083ZM9.375 1.85083C9.18714 2.22656 9.28161 2.49834 9.4227 2.7281L9.50286 2.84963L9.54375 2.90796C9.65153 3.06092 9.75 3.20073 9.75 3.35083C9.75 3.76504 9.41423 4.10083 9 4.10083C8.58577 4.10083 8.25 3.76504 8.25 3.35083C8.25 2.93662 8.625 2.22583 9.375 1.85083ZM6.375 1.85083C6.18713 2.22656 6.28162 2.49834 6.4227 2.7281L6.50286 2.84963L6.54375 2.90796C6.6515 3.06092 6.75 3.20073 6.75 3.35083C6.75 3.76504 6.41421 4.10083 6 4.10083C5.58579 4.10083 5.25 3.76504 5.25 3.35083C5.25 2.93662 5.625 2.22583 6.375 1.85083ZM12.375 1.85083C12.1871 2.22656 12.2816 2.49834 12.4227 2.7281L12.5029 2.84963L12.5438 2.90796C12.6515 3.06092 12.75 3.20073 12.75 3.35083C12.75 3.76504 12.4142 4.10083 12 4.10083C11.5858 4.10083 11.25 3.76504 11.25 3.35083C11.25 2.93662 11.625 2.22583 12.375 1.85083Z" fill="#53497E"/>
</g>
</g>
</svg>
