<svg width="24" height="24" viewBox="0 0 24 24" fill="none" xmlns="http://www.w3.org/2000/svg">
<g id="Baby" clip-path="url(#clip0_291_1367)">
<g id="Group 9">
<path id="Vector" d="M8.76562 12.7031C9.36106 12.7031 9.84375 12.2204 9.84375 11.625C9.84375 11.0296 9.36106 10.5469 8.76562 10.5469C8.17019 10.5469 7.6875 11.0296 7.6875 11.625C7.6875 12.2204 8.17019 12.7031 8.76562 12.7031Z" fill="#A854B6"/>
<path id="Vector_2" d="M15.2344 12.7031C15.8298 12.7031 16.3125 12.2204 16.3125 11.625C16.3125 11.0296 15.8298 10.5469 15.2344 10.5469C14.6389 10.5469 14.1562 11.0296 14.1562 11.625C14.1562 12.2204 14.6389 12.7031 15.2344 12.7031Z" fill="#A854B6"/>
<path id="Vector_3" d="M14.5157 15.2188C13.7607 15.6885 12.8892 15.9375 12 15.9375C11.1108 15.9375 10.2394 15.6885 9.48441 15.2188" stroke="#A854B6" stroke-width="1.5" stroke-linecap="round" stroke-linejoin="round"/>
<path id="Vector_4" d="M12 20.25C16.7635 20.25 20.625 16.3885 20.625 11.625C20.625 6.86154 16.7635 3 12 3C7.23654 3 3.375 6.86154 3.375 11.625C3.375 16.3885 7.23654 20.25 12 20.25Z" stroke="#A854B6" stroke-width="1.5" stroke-linecap="round" stroke-linejoin="round"/>
<path id="Vector_5" d="M12 3C10.5625 4.79688 10.5625 6.59375 10.5625 6.59375C10.5625 6.975 10.714 7.34063 10.9836 7.61022C11.2531 7.8798 11.6188 8.03125 12 8.03125C12.3813 8.03125 12.7469 7.8798 13.0165 7.61022C13.2861 7.34063 13.4375 6.975 13.4375 6.59375" stroke="#A854B6" stroke-width="1.5" stroke-linecap="round" stroke-linejoin="round"/>
</g>
</g>
<defs>
<clipPath id="clip0_291_1367">
<rect width="24" height="24" fill="white"/>
</clipPath>
</defs>
</svg>
