<svg width="18" height="19" viewBox="0 0 18 19" fill="none" xmlns="http://www.w3.org/2000/svg">
<g id="grocery-weighing-scale-svgrepo-com 2">
<g id="Group">
<g id="Group_2">
<path id="Vector" d="M16.0353 16.1162L14.3481 6.9028C14.2941 6.60782 14.0367 6.39316 13.7366 6.39316H9.81645V5.68962H14.9048C15.2482 5.68962 15.5265 5.41113 15.5265 5.06773V2.4722C15.5262 2.12934 15.2482 1.85085 14.9048 1.85085C14.5615 1.85085 14.2832 2.12934 14.2832 2.4722V4.44638H4.10643V2.4722C4.10643 2.12934 3.82821 1.85085 3.48482 1.85085C3.14142 1.85085 2.8632 2.12934 2.8632 2.4722V5.06773C2.8632 5.41113 3.14142 5.68962 3.48482 5.68962H8.57321V6.39316H4.19847C3.89683 6.39316 3.63856 6.60968 3.58642 6.90706L1.96388 16.1215C1.93223 16.3024 1.9817 16.4883 2.10034 16.6285C2.21817 16.7689 2.39266 16.8508 2.57646 16.8508H15.4238C15.6084 16.8508 15.7831 16.7684 15.9012 16.6266C16.0193 16.4846 16.0686 16.2978 16.0353 16.1162ZM3.31671 15.6065L4.71981 7.63614H13.2182L14.6774 15.6065H3.31671Z" fill="#53497E"/>
<path id="Vector_2" d="M8.99991 8.11278C7.20846 8.11278 5.75031 9.57014 5.75031 11.3624C5.75031 13.1546 7.2082 14.6117 8.99991 14.6117C10.7916 14.6117 12.2495 13.1544 12.2495 11.3621C12.2495 9.57014 10.7919 8.11278 8.99991 8.11278ZM8.99991 13.3685C7.89366 13.3685 6.99381 12.4681 6.99381 11.3621C6.99381 10.4742 7.57739 9.72761 8.37829 9.46428V11.3621C8.37829 11.705 8.65652 11.9835 8.99991 11.9835C9.3433 11.9835 9.62153 11.705 9.62153 11.3621V9.46428C10.4227 9.72761 11.006 10.4742 11.006 11.3621C11.006 12.4684 10.1062 13.3685 8.99991 13.3685Z" fill="#53497E"/>
</g>
</g>
</g>
</svg>
