<svg width="24" height="24" viewBox="0 0 24 24" fill="none" xmlns="http://www.w3.org/2000/svg">
<g id="Dog" clip-path="url(#clip0_291_1375)">
<g id="Group 10">
<path id="Vector" d="M12 18V20.25" stroke="#A854B6" stroke-width="1.5" stroke-linecap="round" stroke-linejoin="round"/>
<path id="Vector_2" d="M13.5 16.5L12 18L10.5 16.5" stroke="#A854B6" stroke-width="1.5" stroke-linecap="round" stroke-linejoin="round"/>
<path id="Vector_3" d="M9.75 4.5H14.25" stroke="#A854B6" stroke-width="1.5" stroke-linecap="round" stroke-linejoin="round"/>
<path id="Vector_4" d="M9.74995 4.49999L4.72214 3.02249C4.62294 2.99774 4.51972 2.99353 4.41883 3.01013C4.31795 3.02673 4.22152 3.06378 4.13547 3.11901C4.04943 3.17423 3.97558 3.24647 3.91848 3.33128C3.86137 3.41609 3.8222 3.51168 3.80339 3.61218L2.26402 11.8622C2.11964 12.6337 3.10777 13.0809 3.59152 12.4641L9.74995 4.49999Z" stroke="#A854B6" stroke-width="1.5" stroke-linecap="round" stroke-linejoin="round"/>
<path id="Vector_5" d="M14.25 4.49999L19.2778 3.02249C19.377 2.99774 19.4802 2.99353 19.5811 3.01013C19.682 3.02673 19.7784 3.06378 19.8645 3.11901C19.9505 3.17423 20.0244 3.24647 20.0815 3.33128C20.1386 3.41609 20.1777 3.51168 20.1966 3.61218L21.7359 11.8622C21.8803 12.6337 20.8922 13.0809 20.4084 12.4641L14.25 4.49999Z" stroke="#A854B6" stroke-width="1.5" stroke-linecap="round" stroke-linejoin="round"/>
<path id="Vector_6" d="M8.625 14.25C9.24632 14.25 9.75 13.7463 9.75 13.125C9.75 12.5037 9.24632 12 8.625 12C8.00368 12 7.5 12.5037 7.5 13.125C7.5 13.7463 8.00368 14.25 8.625 14.25Z" fill="#A854B6"/>
<path id="Vector_7" d="M15.375 14.25C15.9963 14.25 16.5 13.7463 16.5 13.125C16.5 12.5037 15.9963 12 15.375 12C14.7537 12 14.25 12.5037 14.25 13.125C14.25 13.7463 14.7537 14.25 15.375 14.25Z" fill="#A854B6"/>
<path id="Vector_8" d="M19.5 11.2856V17.25C19.5 18.0457 19.1839 18.8087 18.6213 19.3713C18.0587 19.9339 17.2956 20.25 16.5 20.25H7.5C6.70435 20.25 5.94129 19.9339 5.37868 19.3713C4.81607 18.8087 4.5 18.0457 4.5 17.25V11.2856" stroke="#A854B6" stroke-width="1.5" stroke-linecap="round" stroke-linejoin="round"/>
</g>
</g>
<defs>
<clipPath id="clip0_291_1375">
<rect width="24" height="24" fill="white"/>
</clipPath>
</defs>
</svg>
