<svg width="18" height="19" viewBox="0 0 18 19" fill="none" xmlns="http://www.w3.org/2000/svg">
<g id="height-svgrepo-com (1) 2">
<g id="Group 3">
<g id="Group">
<g id="Group_2">
<path id="Vector" d="M15.8764 1.84933H2.12362C1.7784 1.84933 1.4985 2.12921 1.4985 2.47445V16.2272C1.4985 16.5725 1.7784 16.8523 2.12362 16.8523H15.8764C16.2216 16.8523 16.5015 16.5725 16.5015 16.2272V2.47445C16.5015 2.12921 16.2217 1.84933 15.8764 1.84933ZM15.2513 15.6021H2.74876V3.09959H15.2513V15.6021Z" fill="#53497E"/>
</g>
</g>
<g id="Group_3">
<g id="Group_4">
<path id="Vector_2" d="M11.7181 12.4765H9.21758C8.87234 12.4765 8.59247 12.7564 8.59247 13.1016C8.59247 13.4468 8.87234 13.7267 9.21758 13.7267H11.7181C12.0633 13.7267 12.3432 13.4468 12.3432 13.1016C12.3432 12.7564 12.0633 12.4765 11.7181 12.4765Z" fill="#53497E"/>
</g>
</g>
<g id="Group_5">
<g id="Group_6">
<path id="Vector_3" d="M13.5935 9.97603H9.21758C8.87234 9.97603 8.59247 10.2559 8.59247 10.6011C8.59247 10.9464 8.87234 11.2263 9.21758 11.2263H13.5935C13.9387 11.2263 14.2186 10.9464 14.2186 10.6011C14.2186 10.2559 13.9387 9.97603 13.5935 9.97603Z" fill="#53497E"/>
</g>
</g>
<g id="Group_7">
<g id="Group_8">
<path id="Vector_4" d="M12.3432 7.47548H9.21758C8.87234 7.47548 8.59247 7.75535 8.59247 8.10059C8.59247 8.44581 8.87234 8.72571 9.21758 8.72571H12.3432C12.6885 8.72571 12.9683 8.44584 12.9683 8.10059C12.9683 7.75535 12.6885 7.47548 12.3432 7.47548Z" fill="#53497E"/>
</g>
</g>
<g id="Group_9">
<g id="Group_10">
<path id="Vector_5" d="M13.5935 4.97502H9.21758C8.87234 4.97502 8.59247 5.25489 8.59247 5.60014C8.59247 5.94538 8.87234 6.22525 9.21758 6.22525H13.5935C13.9387 6.22525 14.2186 5.94538 14.2186 5.60014C14.2186 5.25489 13.9387 4.97502 13.5935 4.97502Z" fill="#53497E"/>
</g>
</g>
<g id="Group_11">
<g id="Group_12">
<path id="Vector_6" d="M6.38579 11.4093L6.20271 11.5924V7.10927L6.38579 7.29236C6.62991 7.53648 7.02573 7.53648 7.26985 7.29236C7.51398 7.04823 7.51398 6.65241 7.26985 6.40829L6.01959 5.15803C6.01948 5.15791 6.01936 5.15783 6.01924 5.15771C6.0048 5.14329 5.98959 5.12961 5.97379 5.11663C5.96656 5.11068 5.95891 5.10552 5.95147 5.09992C5.94259 5.09327 5.93388 5.08639 5.92465 5.0802C5.91575 5.07426 5.90652 5.0691 5.89737 5.06365C5.88899 5.05864 5.88082 5.05339 5.8722 5.04879C5.86288 5.04381 5.8533 5.03959 5.84378 5.03511C5.83481 5.03086 5.82596 5.02637 5.81676 5.02256C5.80753 5.01876 5.79809 5.01565 5.78872 5.01231C5.77884 5.00876 5.76911 5.00498 5.75903 5.00194C5.74966 4.99909 5.74011 4.99701 5.73064 4.99464C5.72036 4.99203 5.71019 4.98916 5.69973 4.98708C5.68874 4.98491 5.67766 4.98362 5.66661 4.98201C5.6575 4.98072 5.64853 4.97896 5.6393 4.97805C5.59828 4.97401 5.55693 4.97401 5.51591 4.97805C5.50665 4.97896 5.49768 4.98069 5.48857 4.98201C5.47752 4.98359 5.46645 4.98488 5.45546 4.98705C5.44497 4.98913 5.4348 4.992 5.42451 4.99461C5.41505 4.99698 5.40553 4.99906 5.39615 5.00191C5.38604 5.00495 5.37628 5.00876 5.36641 5.01231C5.35706 5.01568 5.34762 5.01876 5.33839 5.02256C5.32916 5.02637 5.32034 5.03089 5.31135 5.03511C5.30185 5.03959 5.29227 5.04381 5.28295 5.04879C5.27434 5.05342 5.26613 5.05867 5.25775 5.06368C5.24864 5.06913 5.23941 5.07428 5.2305 5.08023C5.22124 5.08642 5.21254 5.09333 5.20363 5.09998C5.19622 5.10555 5.1886 5.11071 5.18136 5.11663C5.16557 5.12961 5.15036 5.14326 5.13591 5.15771C5.13579 5.15783 5.13568 5.15791 5.13556 5.15803L3.8853 6.40829C3.64118 6.65241 3.64118 7.04823 3.8853 7.29236C4.12942 7.53648 4.52524 7.53648 4.76936 7.29236L4.95245 7.10927V11.5924L4.76939 11.4093C4.52527 11.1652 4.12945 11.1652 3.88533 11.4093C3.64121 11.6534 3.64121 12.0492 3.88533 12.2934L5.13559 13.5436C5.15015 13.5582 5.16548 13.572 5.18142 13.585C5.18863 13.5909 5.19622 13.5961 5.2036 13.6016C5.21254 13.6083 5.22127 13.6152 5.23053 13.6214C5.23941 13.6274 5.24861 13.6325 5.25772 13.638C5.26613 13.643 5.27434 13.6482 5.28298 13.6529C5.29227 13.6578 5.30179 13.6621 5.31126 13.6665C5.32028 13.6708 5.32916 13.6753 5.33842 13.6791C5.34759 13.6829 5.35697 13.686 5.36629 13.6893C5.37622 13.6929 5.38601 13.6967 5.39615 13.6998C5.40547 13.7026 5.41493 13.7046 5.42437 13.707C5.43471 13.7096 5.44494 13.7125 5.45546 13.7146C5.46636 13.7168 5.47735 13.718 5.48834 13.7196C5.49754 13.7209 5.50659 13.7227 5.51591 13.7236C5.53619 13.7256 5.55655 13.7267 5.57692 13.7267C5.57715 13.7267 5.57736 13.7267 5.57759 13.7267C5.5778 13.7267 5.578 13.7267 5.57821 13.7267C5.5986 13.7267 5.61897 13.7256 5.63927 13.7236C5.64859 13.7227 5.65765 13.7209 5.66682 13.7196C5.67781 13.718 5.6888 13.7167 5.6997 13.7146C5.71022 13.7125 5.72044 13.7096 5.73079 13.707C5.74022 13.7046 5.74969 13.7026 5.75903 13.6998C5.76917 13.6967 5.77896 13.6929 5.78886 13.6893C5.79818 13.686 5.80759 13.6829 5.81679 13.6791C5.82605 13.6753 5.8349 13.6708 5.84392 13.6665C5.85339 13.662 5.86294 13.6578 5.87223 13.6529C5.88088 13.6482 5.88908 13.643 5.89746 13.638C5.90657 13.6325 5.9158 13.6274 5.92468 13.6214C5.93394 13.6152 5.94265 13.6083 5.95155 13.6017C5.95897 13.5961 5.96659 13.591 5.97379 13.585C5.98974 13.572 6.00506 13.5582 6.01959 13.5436L7.26985 12.2934C7.51398 12.0492 7.51398 11.6534 7.26985 11.4093C7.02573 11.1652 6.62991 11.1652 6.38579 11.4093Z" fill="#53497E"/>
</g>
</g>
</g>
</g>
</svg>
